<?xml version="1.0" standalone="no"?>
<!DOCTYPE svg PUBLIC "-//W3C//DTD SVG 20010904//EN"
 "http://www.w3.org/TR/2001/REC-SVG-20010904/DTD/svg10.dtd">
<svg version="1.0" xmlns="http://www.w3.org/2000/svg"
 width="128.000000pt" height="128.000000pt" viewBox="0 0 128.000000 128.000000"
 preserveAspectRatio="xMidYMid meet">

<g transform="translate(0.000000,128.000000) scale(0.100000,-0.100000)"
fill="#000000" stroke="none">
<path d="M1059 1030 c-2 -43 -9 -84 -16 -91 -8 -8 -25 -6 -69 10 -195 74 -490
74 -675 1 -59 -24 -62 -20 -69 80 l-6 75 -23 -48 c-12 -27 -25 -65 -27 -85 -5
-35 -5 -36 11 -17 16 20 17 19 55 -25 l38 -45 80 -3 79 -4 -15 -59 -14 -59
-42 0 c-91 0 -169 43 -184 102 l-8 30 -51 -40 c-62 -49 -113 -143 -113 -207 0
-64 51 -158 114 -207 73 -59 174 -104 285 -128 53 -12 110 -29 126 -38 43 -24
181 -23 218 1 14 9 58 24 95 32 90 19 195 58 253 96 60 38 126 109 145 156 24
55 20 133 -9 189 -32 61 -117 146 -125 124 -18 -52 -125 -110 -202 -110 -25 0
-28 5 -39 57 -15 74 -14 75 10 68 12 -4 45 -4 75 0 44 5 59 13 92 46 44 46 69
45 75 -4 2 -18 3 -8 1 20 -4 46 -45 163 -57 163 -3 0 -7 -36 -8 -80z m-872
-207 c20 -28 43 -43 98 -64 l30 -11 -50 -17 c-27 -9 -50 -20 -50 -26 0 -5 16
-20 35 -33 30 -21 43 -23 93 -18 42 4 57 2 57 -7 0 -6 25 -61 55 -122 38 -78
51 -113 44 -122 -6 -6 -8 -20 -6 -30 3 -10 8 -30 11 -44 l6 -27 -68 14 c-251
49 -413 178 -413 328 0 66 25 119 80 169 23 20 45 37 49 37 5 0 17 -12 29 -27z
m1027 -67 c82 -130 13 -277 -174 -371 -63 -32 -199 -75 -235 -75 -9 0 -12 20
-10 68 2 57 9 82 49 163 25 53 46 101 46 107 0 18 16 22 51 12 42 -12 87 1
118 34 l22 24 -63 20 c-35 11 -54 21 -43 22 32 1 98 34 125 63 l25 26 30 -23
c16 -13 43 -44 59 -70z m-742 -126 c16 -6 18 -9 6 -9 -21 -1 -48 26 -47 47 0
12 3 10 9 -6 5 -12 20 -27 32 -32z m372 3 c-10 -7 -23 -13 -28 -12 -6 0 -1 5
12 11 12 6 23 20 23 32 1 19 2 20 6 2 3 -12 -2 -25 -13 -33z"/>
</g>
</svg>
