<svg xmlns="http://www.w3.org/2000/svg" xmlns:xlink="http://www.w3.org/1999/xlink" width="414" height="262" viewBox="0 0 414 262">
  <defs>
    <clipPath id="clip-path">
      <rect id="Rectángulo_13" data-name="Rectángulo 13" width="414" height="262" transform="translate(548 320)" fill="#fff" stroke="#707070" stroke-width="1"/>
    </clipPath>
    <clipPath id="clip-path-2">
      <path id="Trazado_670" data-name="Trazado 670" d="M34.753,23.957H335.31V197.34H34.753Zm0,0"/>
    </clipPath>
    <clipPath id="clip-path-3">
      <path id="Trazado_672" data-name="Trazado 672" d="M34.753,188.512H335.31v1.6H34.753Zm0,0"/>
    </clipPath>
    <clipPath id="clip-path-4">
      <path id="Trazado_674" data-name="Trazado 674" d="M34.753,148.573H335.31v1.6H34.753Zm0,0"/>
    </clipPath>
    <clipPath id="clip-path-5">
      <path id="Trazado_676" data-name="Trazado 676" d="M34.753,107.835H335.31v1.6H34.753Zm0,0"/>
    </clipPath>
    <clipPath id="clip-path-6">
      <path id="Trazado_678" data-name="Trazado 678" d="M34.753,67.1H335.31v1.6H34.753Zm0,0"/>
    </clipPath>
    <clipPath id="clip-path-7">
      <path id="Trazado_680" data-name="Trazado 680" d="M34.753,27.159H335.31v1.6H34.753Zm0,0"/>
    </clipPath>
  </defs>
  <g id="Enmascarar_grupo_5" data-name="Enmascarar grupo 5" transform="translate(-548 -320)" clip-path="url(#clip-path)">
    <g id="surface6" transform="translate(581.265 320)">
      <rect id="Rectángulo_14" data-name="Rectángulo 14" width="347.47" height="262" fill="#fff"/>
      <rect id="Rectángulo_15" data-name="Rectángulo 15" width="347.47" height="262" fill="none"/>
      <g id="Grupo_656" data-name="Grupo 656" clip-path="url(#clip-path-2)">
        <path id="Trazado_669" data-name="Trazado 669" d="M34.753,197.336H335.31V23.954H34.753Zm0,0" fill="#fff"/>
      </g>
      <g id="Grupo_657" data-name="Grupo 657" clip-path="url(#clip-path-3)">
        <path id="Trazado_671" data-name="Trazado 671" d="M34.753,189.458H335.306" fill="none" stroke="#eaf2f3" stroke-linejoin="round" stroke-miterlimit="10" stroke-width="0.852"/>
      </g>
      <g id="Grupo_658" data-name="Grupo 658" clip-path="url(#clip-path-4)">
        <path id="Trazado_673" data-name="Trazado 673" d="M34.753,149.041H335.306" fill="none" stroke="#eaf2f3" stroke-linejoin="round" stroke-miterlimit="10" stroke-width="0.852"/>
      </g>
      <g id="Grupo_659" data-name="Grupo 659" clip-path="url(#clip-path-5)">
        <path id="Trazado_675" data-name="Trazado 675" d="M34.753,108.625H335.306" fill="none" stroke="#eaf2f3" stroke-linejoin="round" stroke-miterlimit="10" stroke-width="0.852"/>
      </g>
      <g id="Grupo_660" data-name="Grupo 660" clip-path="url(#clip-path-6)">
        <path id="Trazado_677" data-name="Trazado 677" d="M34.753,68.211H335.306" fill="none" stroke="#eaf2f3" stroke-linejoin="round" stroke-miterlimit="10" stroke-width="0.852"/>
      </g>
      <g id="Grupo_661" data-name="Grupo 661" clip-path="url(#clip-path-7)">
        <path id="Trazado_679" data-name="Trazado 679" d="M34.753,27.8H335.306" fill="none" stroke="#eaf2f3" stroke-linejoin="round" stroke-miterlimit="10" stroke-width="0.852"/>
      </g>
      <path id="Trazado_681" data-name="Trazado 681" d="M72.321,189.458h37.571V43.964H72.321Zm0,0" fill="#f8766d"/>
      <path id="Trazado_682" data-name="Trazado 682" d="M166.246,189.458h37.571V31.839H166.246Zm0,0" fill="#00ba38"/>
      <path id="Trazado_683" data-name="Trazado 683" d="M260.168,189.458h37.571V35.88H260.168Zm0,0" fill="#619cff"/>
      <g id="Grupo_664" data-name="Grupo 664">
        <g id="Grupo_662" data-name="Grupo 662" transform="translate(84.789 52.096)">
          <path id="Trazado_684" data-name="Trazado 684" d="M.477-2.147l1-.134a2.183,2.183,0,0,0,.583,1.223,1.44,1.44,0,0,0,1.008.374A1.617,1.617,0,0,0,4.256-1.17a1.666,1.666,0,0,0,.487-1.211,1.56,1.56,0,0,0-.449-1.133,1.582,1.582,0,0,0-1.142-.449,3.1,3.1,0,0,0-.705.112l.112-.877q.1.009.159.009a2.059,2.059,0,0,0,1.148-.331,1.148,1.148,0,0,0,.512-1.027,1.228,1.228,0,0,0-.371-.908,1.345,1.345,0,0,0-.961-.362,1.38,1.38,0,0,0-.97.365,1.818,1.818,0,0,0-.5,1.1l-1-.178A2.546,2.546,0,0,1,1.41-7.616a2.431,2.431,0,0,1,1.613-.552,2.707,2.707,0,0,1,1.226.287,2.129,2.129,0,0,1,.858.78,2.083,2.083,0,0,1,.3,1.048,1.744,1.744,0,0,1-.284.961,1.925,1.925,0,0,1-.836.686,1.908,1.908,0,0,1,1.12.69A2.115,2.115,0,0,1,5.8-2.4,2.4,2.4,0,0,1,5.027-.6,2.748,2.748,0,0,1,3.064.144,2.575,2.575,0,0,1,1.282-.493,2.461,2.461,0,0,1,.477-2.147Zm0,0"/>
        </g>
        <g id="Grupo_663" data-name="Grupo 663" transform="translate(91.109 52.096)">
          <path id="Trazado_685" data-name="Trazado 685" d="M5.654-6.144l-.992.078a1.972,1.972,0,0,0-.378-.855,1.356,1.356,0,0,0-1-.424,1.415,1.415,0,0,0-.839.265,2.279,2.279,0,0,0-.743,1A5.226,5.226,0,0,0,1.42-4.194,2.288,2.288,0,0,1,2.3-5.008a2.394,2.394,0,0,1,1.092-.268,2.289,2.289,0,0,1,1.7.736,2.664,2.664,0,0,1,.7,1.9,3.18,3.18,0,0,1-.331,1.423,2.385,2.385,0,0,1-.9,1A2.51,2.51,0,0,1,3.251.137,2.569,2.569,0,0,1,1.214-.78,4.591,4.591,0,0,1,.427-3.807,5.4,5.4,0,0,1,1.3-7.236a2.513,2.513,0,0,1,2.047-.933,2.312,2.312,0,0,1,1.573.54A2.286,2.286,0,0,1,5.654-6.144ZM1.576-2.637a2.2,2.2,0,0,0,.218.989,1.586,1.586,0,0,0,.615.718,1.506,1.506,0,0,0,.827.246,1.413,1.413,0,0,0,1.086-.509A2.043,2.043,0,0,0,4.777-2.58a1.91,1.91,0,0,0-.449-1.326A1.507,1.507,0,0,0,3.2-4.393a1.556,1.556,0,0,0-1.148.487A1.721,1.721,0,0,0,1.576-2.637Zm0,0"/>
        </g>
      </g>
      <g id="Grupo_667" data-name="Grupo 667">
        <g id="Grupo_665" data-name="Grupo 665" transform="translate(178.711 39.97)">
          <path id="Trazado_686" data-name="Trazado 686" d="M.477-2.147l1-.134a2.183,2.183,0,0,0,.583,1.223,1.44,1.44,0,0,0,1.008.374A1.617,1.617,0,0,0,4.256-1.17a1.666,1.666,0,0,0,.487-1.211,1.56,1.56,0,0,0-.449-1.133,1.582,1.582,0,0,0-1.142-.449,3.1,3.1,0,0,0-.705.112l.112-.877q.1.009.159.009a2.059,2.059,0,0,0,1.148-.331,1.148,1.148,0,0,0,.512-1.027,1.228,1.228,0,0,0-.371-.908,1.345,1.345,0,0,0-.961-.362,1.38,1.38,0,0,0-.97.365,1.818,1.818,0,0,0-.5,1.1l-1-.178A2.546,2.546,0,0,1,1.41-7.616a2.431,2.431,0,0,1,1.613-.552,2.707,2.707,0,0,1,1.226.287,2.129,2.129,0,0,1,.858.78,2.083,2.083,0,0,1,.3,1.048,1.744,1.744,0,0,1-.284.961,1.925,1.925,0,0,1-.836.686,1.908,1.908,0,0,1,1.12.69A2.115,2.115,0,0,1,5.8-2.4,2.4,2.4,0,0,1,5.027-.6,2.748,2.748,0,0,1,3.064.144,2.575,2.575,0,0,1,1.282-.493,2.461,2.461,0,0,1,.477-2.147Zm0,0"/>
        </g>
        <g id="Grupo_666" data-name="Grupo 666" transform="translate(185.032 39.97)">
          <path id="Trazado_687" data-name="Trazado 687" d="M.621-1.882l.961-.087a1.654,1.654,0,0,0,.465.983,1.27,1.27,0,0,0,.883.3,1.537,1.537,0,0,0,.808-.209,1.753,1.753,0,0,0,.568-.565,3.357,3.357,0,0,0,.371-.952,5.288,5.288,0,0,0,.15-1.22c0-.041,0-.109-.006-.2A2.293,2.293,0,0,1,4-3.055a2.193,2.193,0,0,1-1.123.3,2.248,2.248,0,0,1-1.71-.73,2.658,2.658,0,0,1-.7-1.931A2.728,2.728,0,0,1,1.2-7.414,2.442,2.442,0,0,1,3.03-8.169a2.664,2.664,0,0,1,1.451.427,2.713,2.713,0,0,1,1,1.22,6.136,6.136,0,0,1,.34,2.287,7.5,7.5,0,0,1-.34,2.484,2.912,2.912,0,0,1-1,1.407A2.634,2.634,0,0,1,2.908.137,2.292,2.292,0,0,1,1.348-.39,2.243,2.243,0,0,1,.621-1.882ZM4.712-5.47a2,2,0,0,0-.459-1.367,1.469,1.469,0,0,0-1.1-.505A1.531,1.531,0,0,0,1.991-6.8,2.007,2.007,0,0,0,1.5-5.389a1.737,1.737,0,0,0,.468,1.264,1.536,1.536,0,0,0,1.158.484,1.482,1.482,0,0,0,1.139-.484A1.927,1.927,0,0,0,4.712-5.47Zm0,0"/>
        </g>
      </g>
      <g id="Grupo_670" data-name="Grupo 670">
        <g id="Grupo_668" data-name="Grupo 668" transform="translate(272.637 44.014)">
          <path id="Trazado_688" data-name="Trazado 688" d="M.477-2.147l1-.134a2.183,2.183,0,0,0,.583,1.223,1.44,1.44,0,0,0,1.008.374A1.617,1.617,0,0,0,4.256-1.17a1.666,1.666,0,0,0,.487-1.211,1.56,1.56,0,0,0-.449-1.133,1.582,1.582,0,0,0-1.142-.449,3.1,3.1,0,0,0-.705.112l.112-.877q.1.009.159.009a2.059,2.059,0,0,0,1.148-.331,1.148,1.148,0,0,0,.512-1.027,1.228,1.228,0,0,0-.371-.908,1.345,1.345,0,0,0-.961-.362,1.38,1.38,0,0,0-.97.365,1.818,1.818,0,0,0-.5,1.1l-1-.178A2.546,2.546,0,0,1,1.41-7.616a2.431,2.431,0,0,1,1.613-.552,2.707,2.707,0,0,1,1.226.287,2.129,2.129,0,0,1,.858.78,2.083,2.083,0,0,1,.3,1.048,1.744,1.744,0,0,1-.284.961,1.925,1.925,0,0,1-.836.686,1.908,1.908,0,0,1,1.12.69A2.115,2.115,0,0,1,5.8-2.4,2.4,2.4,0,0,1,5.027-.6,2.748,2.748,0,0,1,3.064.144,2.575,2.575,0,0,1,1.282-.493,2.461,2.461,0,0,1,.477-2.147Zm0,0"/>
        </g>
        <g id="Grupo_669" data-name="Grupo 669" transform="translate(278.957 44.014)">
          <path id="Trazado_689" data-name="Trazado 689" d="M2.009-4.412a1.818,1.818,0,0,1-.92-.649,1.641,1.641,0,0,1-.3-1.008,1.966,1.966,0,0,1,.637-1.495,2.378,2.378,0,0,1,1.7-.605,2.408,2.408,0,0,1,1.716.621,2.028,2.028,0,0,1,.649,1.5,1.685,1.685,0,0,1-.3.986,1.867,1.867,0,0,1-.9.646,2.222,2.222,0,0,1,1.139.789,2.2,2.2,0,0,1,.39,1.3A2.359,2.359,0,0,1,5.08-.571,2.7,2.7,0,0,1,3.142.137,2.7,2.7,0,0,1,1.2-.574,2.352,2.352,0,0,1,.462-2.353a2.135,2.135,0,0,1,.4-1.329A2.025,2.025,0,0,1,2.009-4.412ZM1.81-6.1a1.248,1.248,0,0,0,.371.945,1.313,1.313,0,0,0,.964.365,1.287,1.287,0,0,0,.945-.362,1.213,1.213,0,0,0,.371-.892,1.267,1.267,0,0,0-.381-.924,1.327,1.327,0,0,0-.945-.374,1.332,1.332,0,0,0-.949.365A1.156,1.156,0,0,0,1.81-6.1ZM1.488-2.346a1.8,1.8,0,0,0,.2.827,1.389,1.389,0,0,0,.6.618,1.733,1.733,0,0,0,.861.218,1.616,1.616,0,0,0,1.179-.459A1.594,1.594,0,0,0,4.8-2.315a1.63,1.63,0,0,0-.481-1.192,1.657,1.657,0,0,0-1.2-.471A1.576,1.576,0,0,0,1.95-3.51,1.59,1.59,0,0,0,1.488-2.346Zm0,0"/>
        </g>
      </g>
      <path id="Trazado_690" data-name="Trazado 690" d="M34.753,197.336V23.957" fill="none" stroke="#000" stroke-linejoin="round" stroke-miterlimit="10" stroke-width="0.852"/>
      <g id="Grupo_672" data-name="Grupo 672">
        <g id="Grupo_671" data-name="Grupo 671" transform="translate(27.992 193.901)">
          <path id="Trazado_691" data-name="Trazado 691" d="M-2.821-.331A5.033,5.033,0,0,1-4.453-.54,2.032,2.032,0,0,1-5.4-1.161,1.613,1.613,0,0,1-5.741-2.2,1.76,1.76,0,0,1-5.554-3a1.565,1.565,0,0,1,.534-.574,2.983,2.983,0,0,1,.849-.356,5.937,5.937,0,0,1,1.351-.128A5.441,5.441,0,0,1-1.2-3.853a2.037,2.037,0,0,1,.955.618A1.616,1.616,0,0,1,.1-2.2,1.573,1.573,0,0,1-.5-.9,3.714,3.714,0,0,1-2.821-.331Zm0-.724A3.546,3.546,0,0,0-.945-1.382.957.957,0,0,0-.481-2.2a.96.96,0,0,0-.468-.811,3.614,3.614,0,0,0-1.872-.331A3.636,3.636,0,0,0-4.7-3.008a1,1,0,0,0-.465.821.909.909,0,0,0,.409.771A3.6,3.6,0,0,0-2.821-1.055Zm0,0"/>
        </g>
      </g>
      <g id="Grupo_675" data-name="Grupo 675">
        <g id="Grupo_673" data-name="Grupo 673" transform="translate(27.992 157.928)">
          <path id="Trazado_692" data-name="Trazado 692" d="M0-2.977v.7H-4.474a3.6,3.6,0,0,1,.487.665,4.147,4.147,0,0,1,.359.74h-.677A4.131,4.131,0,0,0-4.977-1.9a2.609,2.609,0,0,0-.764-.624v-.452Zm0,0"/>
        </g>
        <g id="Grupo_674" data-name="Grupo 674" transform="translate(27.992 153.485)">
          <path id="Trazado_693" data-name="Trazado 693" d="M-2.821-.331A5.033,5.033,0,0,1-4.453-.54,2.032,2.032,0,0,1-5.4-1.161,1.613,1.613,0,0,1-5.741-2.2,1.76,1.76,0,0,1-5.554-3a1.565,1.565,0,0,1,.534-.574,2.983,2.983,0,0,1,.849-.356,5.937,5.937,0,0,1,1.351-.128A5.441,5.441,0,0,1-1.2-3.853a2.037,2.037,0,0,1,.955.618A1.616,1.616,0,0,1,.1-2.2,1.573,1.573,0,0,1-.5-.9,3.714,3.714,0,0,1-2.821-.331Zm0-.724A3.546,3.546,0,0,0-.945-1.382.957.957,0,0,0-.481-2.2a.96.96,0,0,0-.468-.811,3.614,3.614,0,0,0-1.872-.331A3.636,3.636,0,0,0-4.7-3.008a1,1,0,0,0-.465.821.909.909,0,0,0,.409.771A3.6,3.6,0,0,0-2.821-1.055Zm0,0"/>
        </g>
      </g>
      <g id="Grupo_678" data-name="Grupo 678">
        <g id="Grupo_676" data-name="Grupo 676" transform="translate(27.992 117.511)">
          <path id="Trazado_694" data-name="Trazado 694" d="M-.674-4.022H0V-.243A1.177,1.177,0,0,1-.487-.325a2.579,2.579,0,0,1-.761-.462A7.79,7.79,0,0,1-2.116-1.7,7.836,7.836,0,0,0-3.326-2.964a1.485,1.485,0,0,0-.842-.328.967.967,0,0,0-.705.3,1.108,1.108,0,0,0-.287.777,1.119,1.119,0,0,0,.306.811,1.164,1.164,0,0,0,.842.309l-.075.721A1.768,1.768,0,0,1-5.317-.933a1.911,1.911,0,0,1-.424-1.3,1.85,1.85,0,0,1,.456-1.3,1.523,1.523,0,0,1,1.133-.481,1.81,1.81,0,0,1,.674.14,2.661,2.661,0,0,1,.7.465,11.7,11.7,0,0,1,1,1.083c.356.421.6.693.721.811a2.253,2.253,0,0,0,.381.3Zm0,0"/>
        </g>
        <g id="Grupo_677" data-name="Grupo 677" transform="translate(27.992 113.069)">
          <path id="Trazado_695" data-name="Trazado 695" d="M-2.821-.331A5.033,5.033,0,0,1-4.453-.54,2.032,2.032,0,0,1-5.4-1.161,1.613,1.613,0,0,1-5.741-2.2,1.76,1.76,0,0,1-5.554-3a1.565,1.565,0,0,1,.534-.574,2.983,2.983,0,0,1,.849-.356,5.937,5.937,0,0,1,1.351-.128A5.441,5.441,0,0,1-1.2-3.853a2.037,2.037,0,0,1,.955.618A1.616,1.616,0,0,1,.1-2.2,1.573,1.573,0,0,1-.5-.9,3.714,3.714,0,0,1-2.821-.331Zm0-.724A3.546,3.546,0,0,0-.945-1.382.957.957,0,0,0-.481-2.2a.96.96,0,0,0-.468-.811,3.614,3.614,0,0,0-1.872-.331A3.636,3.636,0,0,0-4.7-3.008a1,1,0,0,0-.465.821.909.909,0,0,0,.409.771A3.6,3.6,0,0,0-2.821-1.055Zm0,0"/>
        </g>
      </g>
      <g id="Grupo_681" data-name="Grupo 681">
        <g id="Grupo_679" data-name="Grupo 679" transform="translate(27.992 77.098)">
          <path id="Trazado_696" data-name="Trazado 696" d="M-1.51-.337l-.094-.7a1.507,1.507,0,0,0,.861-.409.993.993,0,0,0,.262-.708,1.123,1.123,0,0,0-.343-.836,1.175,1.175,0,0,0-.849-.343,1.112,1.112,0,0,0-.8.318,1.111,1.111,0,0,0-.315.8,2.228,2.228,0,0,0,.078.5L-3.323-1.8a.52.52,0,0,0,.006-.115,1.4,1.4,0,0,0-.234-.805.8.8,0,0,0-.721-.359.883.883,0,0,0-.64.262.957.957,0,0,0-.253.674.968.968,0,0,0,.259.683,1.272,1.272,0,0,0,.771.349l-.125.7A1.8,1.8,0,0,1-5.351-.989a1.723,1.723,0,0,1-.39-1.136,1.944,1.944,0,0,1,.2-.861,1.537,1.537,0,0,1,.546-.605A1.44,1.44,0,0,1-4.256-3.8a1.222,1.222,0,0,1,.677.2,1.4,1.4,0,0,1,.481.59A1.362,1.362,0,0,1-2.612-3.8a1.485,1.485,0,0,1,.924-.281,1.685,1.685,0,0,1,1.27.546A1.923,1.923,0,0,1,.1-2.153,1.8,1.8,0,0,1-.346-.9,1.71,1.71,0,0,1-1.51-.337Zm0,0"/>
        </g>
        <g id="Grupo_680" data-name="Grupo 680" transform="translate(27.992 72.655)">
          <path id="Trazado_697" data-name="Trazado 697" d="M-2.821-.331A5.033,5.033,0,0,1-4.453-.54,2.032,2.032,0,0,1-5.4-1.161,1.613,1.613,0,0,1-5.741-2.2,1.76,1.76,0,0,1-5.554-3a1.565,1.565,0,0,1,.534-.574,2.983,2.983,0,0,1,.849-.356,5.937,5.937,0,0,1,1.351-.128A5.441,5.441,0,0,1-1.2-3.853a2.037,2.037,0,0,1,.955.618A1.616,1.616,0,0,1,.1-2.2,1.573,1.573,0,0,1-.5-.9,3.714,3.714,0,0,1-2.821-.331Zm0-.724A3.546,3.546,0,0,0-.945-1.382.957.957,0,0,0-.481-2.2a.96.96,0,0,0-.468-.811,3.614,3.614,0,0,0-1.872-.331A3.636,3.636,0,0,0-4.7-3.008a1,1,0,0,0-.465.821.909.909,0,0,0,.409.771A3.6,3.6,0,0,0-2.821-1.055Zm0,0"/>
        </g>
      </g>
      <g id="Grupo_684" data-name="Grupo 684">
        <g id="Grupo_682" data-name="Grupo 682" transform="translate(27.992 36.682)">
          <path id="Trazado_698" data-name="Trazado 698" d="M0-2.584H-1.37V-.1h-.643L-5.719-2.711v-.574h3.707v-.771h.643v.771H0Zm-2.013,0H-4.59L-2.013-.793Zm0,0"/>
        </g>
        <g id="Grupo_683" data-name="Grupo 683" transform="translate(27.992 32.239)">
          <path id="Trazado_699" data-name="Trazado 699" d="M-2.821-.331A5.033,5.033,0,0,1-4.453-.54,2.032,2.032,0,0,1-5.4-1.161,1.613,1.613,0,0,1-5.741-2.2,1.76,1.76,0,0,1-5.554-3a1.565,1.565,0,0,1,.534-.574,2.983,2.983,0,0,1,.849-.356,5.937,5.937,0,0,1,1.351-.128A5.441,5.441,0,0,1-1.2-3.853a2.037,2.037,0,0,1,.955.618A1.616,1.616,0,0,1,.1-2.2,1.573,1.573,0,0,1-.5-.9,3.714,3.714,0,0,1-2.821-.331Zm0-.724A3.546,3.546,0,0,0-.945-1.382.957.957,0,0,0-.481-2.2a.96.96,0,0,0-.468-.811,3.614,3.614,0,0,0-1.872-.331A3.636,3.636,0,0,0-4.7-3.008a1,1,0,0,0-.465.821.909.909,0,0,0,.409.771A3.6,3.6,0,0,0-2.821-1.055Zm0,0"/>
        </g>
      </g>
      <path id="Trazado_700" data-name="Trazado 700" d="M30.569,189.458h4.184" fill="none" stroke="#000" stroke-linejoin="round" stroke-miterlimit="10" stroke-width="0.852"/>
      <path id="Trazado_701" data-name="Trazado 701" d="M30.569,149.041h4.184" fill="none" stroke="#000" stroke-linejoin="round" stroke-miterlimit="10" stroke-width="0.852"/>
      <path id="Trazado_702" data-name="Trazado 702" d="M30.569,108.625h4.184" fill="none" stroke="#000" stroke-linejoin="round" stroke-miterlimit="10" stroke-width="0.852"/>
      <path id="Trazado_703" data-name="Trazado 703" d="M30.569,68.211h4.184" fill="none" stroke="#000" stroke-linejoin="round" stroke-miterlimit="10" stroke-width="0.852"/>
      <path id="Trazado_704" data-name="Trazado 704" d="M30.569,27.8h4.184" fill="none" stroke="#000" stroke-linejoin="round" stroke-miterlimit="10" stroke-width="0.852"/>
      <path id="Trazado_705" data-name="Trazado 705" d="M34.753,197.336H335.306" fill="none" stroke="#000" stroke-linejoin="round" stroke-miterlimit="10" stroke-width="0.852"/>
      <path id="Trazado_706" data-name="Trazado 706" d="M91.108,201.52v-4.184" fill="none" stroke="#000" stroke-linejoin="round" stroke-miterlimit="10" stroke-width="0.852"/>
      <path id="Trazado_707" data-name="Trazado 707" d="M185.03,201.52v-4.184" fill="none" stroke="#000" stroke-linejoin="round" stroke-miterlimit="10" stroke-width="0.852"/>
      <path id="Trazado_708" data-name="Trazado 708" d="M278.956,201.52v-4.184" fill="none" stroke="#000" stroke-linejoin="round" stroke-miterlimit="10" stroke-width="0.852"/>
      <g id="Grupo_698" data-name="Grupo 698">
        <g id="Grupo_685" data-name="Grupo 685" transform="translate(65.581 209.146)">
          <path id="Trazado_709" data-name="Trazado 709" d="M-.012,0l2.2-5.719H3L5.339,0H4.478L3.81-1.732H1.42L.793,0ZM1.638-2.35H3.576l-.6-1.582c-.184-.481-.318-.874-.406-1.186a7.713,7.713,0,0,1-.309,1.092Zm0,0"/>
        </g>
        <g id="Grupo_686" data-name="Grupo 686" transform="translate(70.909 209.146)">
          <path id="Trazado_710" data-name="Trazado 710" d="M2.059-.627l.1.618a2.525,2.525,0,0,1-.53.066,1.189,1.189,0,0,1-.6-.122.661.661,0,0,1-.3-.318,2.552,2.552,0,0,1-.084-.83V-3.6H.14v-.546H.655V-5.167l.7-.421v1.445h.705V-3.6H1.354v2.424a1.04,1.04,0,0,0,.037.387.261.261,0,0,0,.119.134.4.4,0,0,0,.24.05A1.779,1.779,0,0,0,2.059-.627Zm0,0"/>
        </g>
        <g id="Grupo_687" data-name="Grupo 687" transform="translate(73.128 209.146)">
          <path id="Trazado_711" data-name="Trazado 711" d="M.512,0V-5.719h.7V0Zm0,0"/>
        </g>
        <g id="Grupo_688" data-name="Grupo 688" transform="translate(74.903 209.146)">
          <path id="Trazado_712" data-name="Trazado 712" d="M3.229-.512a2.534,2.534,0,0,1-.752.468A2.127,2.127,0,0,1,1.7.094,1.49,1.49,0,0,1,.655-.24,1.091,1.091,0,0,1,.29-1.092a1.128,1.128,0,0,1,.137-.555,1.05,1.05,0,0,1,.362-.4,1.788,1.788,0,0,1,.505-.231,5.28,5.28,0,0,1,.624-.106A6.454,6.454,0,0,0,3.17-2.63c0-.094,0-.153.006-.181a.8.8,0,0,0-.2-.605,1.214,1.214,0,0,0-.8-.237,1.286,1.286,0,0,0-.733.175,1.062,1.062,0,0,0-.349.612L.409-2.961a1.655,1.655,0,0,1,.309-.711,1.375,1.375,0,0,1,.621-.418,2.84,2.84,0,0,1,.939-.147,2.62,2.62,0,0,1,.861.125,1.179,1.179,0,0,1,.49.315,1.246,1.246,0,0,1,.218.477,4.741,4.741,0,0,1,.034.649v.936A9.2,9.2,0,0,0,3.925-.5,1.435,1.435,0,0,0,4.1,0H3.37A1.369,1.369,0,0,1,3.229-.512ZM3.17-2.078a4.831,4.831,0,0,1-1.145.265,2.884,2.884,0,0,0-.615.14.626.626,0,0,0-.275.228.611.611,0,0,0-.1.334.583.583,0,0,0,.212.468.871.871,0,0,0,.621.187,1.389,1.389,0,0,0,.721-.178,1.063,1.063,0,0,0,.465-.487,1.8,1.8,0,0,0,.112-.7Zm0,0"/>
        </g>
        <g id="Grupo_689" data-name="Grupo 689" transform="translate(79.345 209.146)">
          <path id="Trazado_713" data-name="Trazado 713" d="M.527,0V-4.144h.63v.59a1.5,1.5,0,0,1,1.32-.683,1.773,1.773,0,0,1,.686.137,1.123,1.123,0,0,1,.471.353,1.412,1.412,0,0,1,.218.518,4.111,4.111,0,0,1,.041.683V0h-.7V-2.521a1.845,1.845,0,0,0-.084-.64.725.725,0,0,0-.29-.34.97.97,0,0,0-.49-.128,1.153,1.153,0,0,0-.774.287,1.391,1.391,0,0,0-.325,1.08V0Zm0,0"/>
        </g>
        <g id="Grupo_690" data-name="Grupo 690" transform="translate(83.788 209.146)">
          <path id="Trazado_714" data-name="Trazado 714" d="M2.059-.627l.1.618a2.525,2.525,0,0,1-.53.066,1.189,1.189,0,0,1-.6-.122.661.661,0,0,1-.3-.318,2.552,2.552,0,0,1-.084-.83V-3.6H.14v-.546H.655V-5.167l.7-.421v1.445h.705V-3.6H1.354v2.424a1.04,1.04,0,0,0,.037.387.261.261,0,0,0,.119.134.4.4,0,0,0,.24.05A1.779,1.779,0,0,0,2.059-.627Zm0,0"/>
        </g>
        <g id="Grupo_691" data-name="Grupo 691" transform="translate(86.007 209.146)">
          <path id="Trazado_715" data-name="Trazado 715" d="M3.229-.512a2.534,2.534,0,0,1-.752.468A2.127,2.127,0,0,1,1.7.094,1.49,1.49,0,0,1,.655-.24,1.091,1.091,0,0,1,.29-1.092a1.128,1.128,0,0,1,.137-.555,1.05,1.05,0,0,1,.362-.4,1.788,1.788,0,0,1,.505-.231,5.28,5.28,0,0,1,.624-.106A6.454,6.454,0,0,0,3.17-2.63c0-.094,0-.153.006-.181a.8.8,0,0,0-.2-.605,1.214,1.214,0,0,0-.8-.237,1.286,1.286,0,0,0-.733.175,1.062,1.062,0,0,0-.349.612L.409-2.961a1.655,1.655,0,0,1,.309-.711,1.375,1.375,0,0,1,.621-.418,2.84,2.84,0,0,1,.939-.147,2.62,2.62,0,0,1,.861.125,1.179,1.179,0,0,1,.49.315,1.246,1.246,0,0,1,.218.477,4.741,4.741,0,0,1,.034.649v.936A9.2,9.2,0,0,0,3.925-.5,1.435,1.435,0,0,0,4.1,0H3.37A1.369,1.369,0,0,1,3.229-.512ZM3.17-2.078a4.831,4.831,0,0,1-1.145.265,2.884,2.884,0,0,0-.615.14.626.626,0,0,0-.275.228.611.611,0,0,0-.1.334.583.583,0,0,0,.212.468.871.871,0,0,0,.621.187,1.389,1.389,0,0,0,.721-.178,1.063,1.063,0,0,0,.465-.487,1.8,1.8,0,0,0,.112-.7Zm0,0"/>
        </g>
        <g id="Grupo_692" data-name="Grupo 692" transform="translate(90.45 209.146)">
          <path id="Trazado_716" data-name="Trazado 716"/>
        </g>
        <g id="Grupo_693" data-name="Grupo 693" transform="translate(92.669 209.146)">
          <path id="Trazado_717" data-name="Trazado 717" d="M.64,0V-5.719H1.4v2.35h2.97v-2.35h.758V0H4.368V-2.7H1.4V0Zm0,0"/>
        </g>
        <g id="Grupo_694" data-name="Grupo 694" transform="translate(98.438 209.146)">
          <path id="Trazado_718" data-name="Trazado 718" d="M3.229-.512a2.534,2.534,0,0,1-.752.468A2.127,2.127,0,0,1,1.7.094,1.49,1.49,0,0,1,.655-.24,1.091,1.091,0,0,1,.29-1.092a1.128,1.128,0,0,1,.137-.555,1.05,1.05,0,0,1,.362-.4,1.788,1.788,0,0,1,.505-.231,5.28,5.28,0,0,1,.624-.106A6.454,6.454,0,0,0,3.17-2.63c0-.094,0-.153.006-.181a.8.8,0,0,0-.2-.605,1.214,1.214,0,0,0-.8-.237,1.286,1.286,0,0,0-.733.175,1.062,1.062,0,0,0-.349.612L.409-2.961a1.655,1.655,0,0,1,.309-.711,1.375,1.375,0,0,1,.621-.418,2.84,2.84,0,0,1,.939-.147,2.62,2.62,0,0,1,.861.125,1.179,1.179,0,0,1,.49.315,1.246,1.246,0,0,1,.218.477,4.741,4.741,0,0,1,.034.649v.936A9.2,9.2,0,0,0,3.925-.5,1.435,1.435,0,0,0,4.1,0H3.37A1.369,1.369,0,0,1,3.229-.512ZM3.17-2.078a4.831,4.831,0,0,1-1.145.265,2.884,2.884,0,0,0-.615.14.626.626,0,0,0-.275.228.611.611,0,0,0-.1.334.583.583,0,0,0,.212.468.871.871,0,0,0,.621.187,1.389,1.389,0,0,0,.721-.178,1.063,1.063,0,0,0,.465-.487,1.8,1.8,0,0,0,.112-.7Zm0,0"/>
        </g>
        <g id="Grupo_695" data-name="Grupo 695" transform="translate(102.88 209.146)">
          <path id="Trazado_719" data-name="Trazado 719" d="M1.292,0,.025-4.144H.749L1.407-1.75l.246.889c.006-.044.078-.328.215-.855l.658-2.428h.721l.621,2.4.206.793.24-.8.708-2.4h.683L4.412,0h-.73L3.024-2.481l-.159-.705L2.025,0Zm0,0"/>
        </g>
        <g id="Grupo_696" data-name="Grupo 696" transform="translate(108.649 209.146)">
          <path id="Trazado_720" data-name="Trazado 720" d="M.53,0V-5.719h.7v3.261L2.9-4.144H3.8L2.218-2.605,3.963,0H3.1L1.729-2.119l-.5.477V0Zm0,0"/>
        </g>
        <g id="Grupo_697" data-name="Grupo 697" transform="translate(112.642 209.146)">
          <path id="Trazado_721" data-name="Trazado 721" d="M.246-1.236l.693-.109a.954.954,0,0,0,.325.64,1.112,1.112,0,0,0,.749.222,1.071,1.071,0,0,0,.718-.2.6.6,0,0,0,.234-.462.439.439,0,0,0-.206-.374,3.3,3.3,0,0,0-.718-.24A5.878,5.878,0,0,1,.967-2.091a1.007,1.007,0,0,1-.452-.4,1.007,1.007,0,0,1-.153-.555A1.006,1.006,0,0,1,.49-3.554a1.161,1.161,0,0,1,.346-.393,1.51,1.51,0,0,1,.443-.206,2.349,2.349,0,0,1,.608-.084,2.556,2.556,0,0,1,.855.14,1.2,1.2,0,0,1,.546.381,1.53,1.53,0,0,1,.24.643l-.686.094a.784.784,0,0,0-.271-.5.994.994,0,0,0-.633-.181,1.135,1.135,0,0,0-.69.162.457.457,0,0,0-.206.374.342.342,0,0,0,.084.243.529.529,0,0,0,.271.187,5.574,5.574,0,0,0,.618.181,8.928,8.928,0,0,1,1.039.328,1.045,1.045,0,0,1,.462.368,1.075,1.075,0,0,1,.168.6,1.223,1.223,0,0,1-.206.661,1.314,1.314,0,0,1-.59.481,2.171,2.171,0,0,1-.874.168A1.931,1.931,0,0,1,.786-.24,1.533,1.533,0,0,1,.246-1.236Zm0,0"/>
        </g>
      </g>
      <g id="Grupo_712" data-name="Grupo 712">
        <g id="Grupo_699" data-name="Grupo 699" transform="translate(160.611 209.146)">
          <path id="Trazado_722" data-name="Trazado 722" d="M4.7-2.006l.758.193A2.55,2.55,0,0,1,4.6-.393,2.389,2.389,0,0,1,3.086.1a2.753,2.753,0,0,1-1.5-.374A2.329,2.329,0,0,1,.7-1.37,3.8,3.8,0,0,1,.4-2.9a3.338,3.338,0,0,1,.34-1.557A2.3,2.3,0,0,1,1.71-5.47,2.9,2.9,0,0,1,3.1-5.816a2.389,2.389,0,0,1,1.442.437A2.276,2.276,0,0,1,5.354-4.15l-.743.175a1.85,1.85,0,0,0-.58-.908,1.562,1.562,0,0,0-.949-.284,1.856,1.856,0,0,0-1.1.315A1.67,1.67,0,0,0,1.357-4a3.446,3.446,0,0,0-.178,1.1,3.444,3.444,0,0,0,.212,1.273,1.543,1.543,0,0,0,.658.814,1.818,1.818,0,0,0,.974.268A1.6,1.6,0,0,0,4.1-.914,1.89,1.89,0,0,0,4.7-2.006Zm0,0"/>
        </g>
        <g id="Grupo_700" data-name="Grupo 700" transform="translate(166.38 209.146)">
          <path id="Trazado_723" data-name="Trazado 723" d="M.527,0V-5.719h.7v2.053a1.574,1.574,0,0,1,1.239-.571,1.7,1.7,0,0,1,.8.184,1.1,1.1,0,0,1,.487.5,2.39,2.39,0,0,1,.147.927V0H3.2V-2.624a1.121,1.121,0,0,0-.228-.768.854.854,0,0,0-.646-.24,1.146,1.146,0,0,0-.587.162.92.92,0,0,0-.393.44,1.912,1.912,0,0,0-.115.764V0Zm0,0"/>
        </g>
        <g id="Grupo_701" data-name="Grupo 701" transform="translate(170.822 209.146)">
          <path id="Trazado_724" data-name="Trazado 724" d="M.53-4.911v-.808h.7v.808ZM.53,0V-4.144h.7V0Zm0,0"/>
        </g>
        <g id="Grupo_702" data-name="Grupo 702" transform="translate(172.596 209.146)">
          <path id="Trazado_725" data-name="Trazado 725" d="M3.229-1.516l.69.087a1.806,1.806,0,0,1-.58,1.12A1.691,1.691,0,0,1,2.2.094,1.773,1.773,0,0,1,.827-.462,2.224,2.224,0,0,1,.312-2.056,2.822,2.822,0,0,1,.534-3.229a1.585,1.585,0,0,1,.677-.755A2.071,2.071,0,0,1,2.2-4.237a1.733,1.733,0,0,1,1.1.343,1.6,1.6,0,0,1,.552.967l-.683.106a1.175,1.175,0,0,0-.346-.627.9.9,0,0,0-.6-.212,1.091,1.091,0,0,0-.864.381,1.781,1.781,0,0,0-.331,1.2A1.836,1.836,0,0,0,1.351-.861a1.027,1.027,0,0,0,.836.378.957.957,0,0,0,.69-.253A1.267,1.267,0,0,0,3.229-1.516Zm0,0"/>
        </g>
        <g id="Grupo_703" data-name="Grupo 703" transform="translate(176.59 209.146)">
          <path id="Trazado_726" data-name="Trazado 726" d="M3.229-.512a2.534,2.534,0,0,1-.752.468A2.127,2.127,0,0,1,1.7.094,1.49,1.49,0,0,1,.655-.24,1.091,1.091,0,0,1,.29-1.092a1.128,1.128,0,0,1,.137-.555,1.05,1.05,0,0,1,.362-.4,1.788,1.788,0,0,1,.505-.231,5.28,5.28,0,0,1,.624-.106A6.454,6.454,0,0,0,3.17-2.63c0-.094,0-.153.006-.181a.8.8,0,0,0-.2-.605,1.214,1.214,0,0,0-.8-.237,1.286,1.286,0,0,0-.733.175,1.062,1.062,0,0,0-.349.612L.409-2.961a1.655,1.655,0,0,1,.309-.711,1.375,1.375,0,0,1,.621-.418,2.84,2.84,0,0,1,.939-.147,2.62,2.62,0,0,1,.861.125,1.179,1.179,0,0,1,.49.315,1.246,1.246,0,0,1,.218.477,4.741,4.741,0,0,1,.034.649v.936A9.2,9.2,0,0,0,3.925-.5,1.435,1.435,0,0,0,4.1,0H3.37A1.369,1.369,0,0,1,3.229-.512ZM3.17-2.078a4.831,4.831,0,0,1-1.145.265,2.884,2.884,0,0,0-.615.14.626.626,0,0,0-.275.228.611.611,0,0,0-.1.334.583.583,0,0,0,.212.468.871.871,0,0,0,.621.187,1.389,1.389,0,0,0,.721-.178,1.063,1.063,0,0,0,.465-.487,1.8,1.8,0,0,0,.112-.7Zm0,0"/>
        </g>
        <g id="Grupo_704" data-name="Grupo 704" transform="translate(181.033 209.146)">
          <path id="Trazado_727" data-name="Trazado 727" d="M.4.343l.68.1A.66.66,0,0,0,1.32.9a1.189,1.189,0,0,0,.711.2A1.309,1.309,0,0,0,2.786.9.974.974,0,0,0,3.145.359a4.963,4.963,0,0,0,.05-.9A1.452,1.452,0,0,1,2.047,0,1.549,1.549,0,0,1,.727-.615,2.329,2.329,0,0,1,.259-2.094a2.71,2.71,0,0,1,.212-1.1,1.706,1.706,0,0,1,.621-.774,1.706,1.706,0,0,1,.961-.275,1.5,1.5,0,0,1,1.208.593v-.5H3.91V-.562a3.455,3.455,0,0,1-.2,1.37,1.5,1.5,0,0,1-.624.64,2.243,2.243,0,0,1-1.048.234,1.991,1.991,0,0,1-1.2-.334A1.126,1.126,0,0,1,.4.343Zm.58-2.49A1.785,1.785,0,0,0,1.3-.955a1.03,1.03,0,0,0,.814.374,1.038,1.038,0,0,0,.811-.371,1.77,1.77,0,0,0,.328-1.17,1.712,1.712,0,0,0-.34-1.145A1.067,1.067,0,0,0,2.1-3.654a1.027,1.027,0,0,0-.8.381A1.658,1.658,0,0,0,.98-2.147Zm0,0"/>
        </g>
        <g id="Grupo_705" data-name="Grupo 705" transform="translate(185.475 209.146)">
          <path id="Trazado_728" data-name="Trazado 728" d="M.265-2.072a2.116,2.116,0,0,1,.64-1.7,1.942,1.942,0,0,1,1.3-.462A1.878,1.878,0,0,1,3.6-3.676a2.129,2.129,0,0,1,.543,1.545,2.753,2.753,0,0,1-.24,1.261,1.725,1.725,0,0,1-.7.711,2.047,2.047,0,0,1-1,.253A1.852,1.852,0,0,1,.8-.465,2.186,2.186,0,0,1,.265-2.072Zm.721,0A1.727,1.727,0,0,0,1.332-.88a1.1,1.1,0,0,0,.877.4,1.1,1.1,0,0,0,.867-.4,1.806,1.806,0,0,0,.349-1.214,1.717,1.717,0,0,0-.349-1.164,1.136,1.136,0,0,0-.867-.4,1.14,1.14,0,0,0-.877.393A1.734,1.734,0,0,0,.986-2.072Zm0,0"/>
        </g>
        <g id="Grupo_706" data-name="Grupo 706" transform="translate(189.918 209.146)">
          <path id="Trazado_729" data-name="Trazado 729"/>
        </g>
        <g id="Grupo_707" data-name="Grupo 707" transform="translate(192.137 209.146)">
          <path id="Trazado_730" data-name="Trazado 730" d="M.587,0V-5.719H2.73a2.675,2.675,0,0,1,1.052.175,1.4,1.4,0,0,1,.621.537,1.463,1.463,0,0,1,.225.752,1.325,1.325,0,0,1-.2.693,1.419,1.419,0,0,1-.6.521,1.53,1.53,0,0,1,.8.521,1.424,1.424,0,0,1,.278.864,1.754,1.754,0,0,1-.168.746,1.425,1.425,0,0,1-.418.534,1.709,1.709,0,0,1-.627.284A3.917,3.917,0,0,1,2.765,0Zm.755-3.317H2.577A2.578,2.578,0,0,0,3.3-3.382a.778.778,0,0,0,.434-.284.845.845,0,0,0,.147-.5.958.958,0,0,0-.137-.5.714.714,0,0,0-.39-.3,3.428,3.428,0,0,0-.871-.081H1.342Zm0,2.643H2.765A3.2,3.2,0,0,0,3.279-.7a1.223,1.223,0,0,0,.437-.156.761.761,0,0,0,.29-.318.994.994,0,0,0,.112-.481.956.956,0,0,0-.165-.555A.876.876,0,0,0,3.5-2.543a2.86,2.86,0,0,0-.836-.1H1.342Zm0,0"/>
        </g>
        <g id="Grupo_708" data-name="Grupo 708" transform="translate(197.465 209.146)">
          <path id="Trazado_731" data-name="Trazado 731" d="M3.242,0V-.608a1.519,1.519,0,0,1-1.314.7,1.667,1.667,0,0,1-.686-.14A1.072,1.072,0,0,1,.771-.4,1.257,1.257,0,0,1,.555-.92a3.058,3.058,0,0,1-.044-.655V-4.144h.7v2.3a3.55,3.55,0,0,0,.044.739.7.7,0,0,0,.278.437.852.852,0,0,0,.534.156,1.107,1.107,0,0,0,.59-.162.9.9,0,0,0,.393-.44,2.3,2.3,0,0,0,.115-.808V-4.144h.7V0Zm0,0"/>
        </g>
        <g id="Grupo_709" data-name="Grupo 709" transform="translate(201.908 209.146)">
          <path id="Trazado_732" data-name="Trazado 732" d="M.512,0V-5.719h.7V0Zm0,0"/>
        </g>
        <g id="Grupo_710" data-name="Grupo 710" transform="translate(203.682 209.146)">
          <path id="Trazado_733" data-name="Trazado 733" d="M.512,0V-5.719h.7V0Zm0,0"/>
        </g>
        <g id="Grupo_711" data-name="Grupo 711" transform="translate(205.457 209.146)">
          <path id="Trazado_734" data-name="Trazado 734" d="M.246-1.236l.693-.109a.954.954,0,0,0,.325.64,1.112,1.112,0,0,0,.749.222,1.071,1.071,0,0,0,.718-.2.6.6,0,0,0,.234-.462.439.439,0,0,0-.206-.374,3.3,3.3,0,0,0-.718-.24A5.878,5.878,0,0,1,.967-2.091a1.007,1.007,0,0,1-.452-.4,1.007,1.007,0,0,1-.153-.555A1.006,1.006,0,0,1,.49-3.554a1.161,1.161,0,0,1,.346-.393,1.51,1.51,0,0,1,.443-.206,2.349,2.349,0,0,1,.608-.084,2.556,2.556,0,0,1,.855.14,1.2,1.2,0,0,1,.546.381,1.53,1.53,0,0,1,.24.643l-.686.094a.784.784,0,0,0-.271-.5.994.994,0,0,0-.633-.181,1.135,1.135,0,0,0-.69.162.457.457,0,0,0-.206.374.342.342,0,0,0,.084.243.529.529,0,0,0,.271.187,5.574,5.574,0,0,0,.618.181,8.928,8.928,0,0,1,1.039.328,1.045,1.045,0,0,1,.462.368,1.075,1.075,0,0,1,.168.6,1.223,1.223,0,0,1-.206.661,1.314,1.314,0,0,1-.59.481,2.171,2.171,0,0,1-.874.168A1.931,1.931,0,0,1,.786-.24,1.533,1.533,0,0,1,.246-1.236Zm0,0"/>
        </g>
      </g>
      <g id="Grupo_722" data-name="Grupo 722">
        <g id="Grupo_713" data-name="Grupo 713" transform="translate(261.198 209.146)">
          <path id="Trazado_735" data-name="Trazado 735" d="M4.368-5.719h.758v3.3a4.034,4.034,0,0,1-.2,1.37,1.651,1.651,0,0,1-.705.824A2.525,2.525,0,0,1,2.889.1,2.821,2.821,0,0,1,1.576-.178a1.55,1.55,0,0,1-.73-.8A3.81,3.81,0,0,1,.627-2.415v-3.3h.758v3.3a3.177,3.177,0,0,0,.137,1.1A1.016,1.016,0,0,0,2-.777a1.594,1.594,0,0,0,.824.19A1.562,1.562,0,0,0,4.013-.964a2.2,2.2,0,0,0,.356-1.454Zm0,0"/>
        </g>
        <g id="Grupo_714" data-name="Grupo 714" transform="translate(266.967 209.146)">
          <path id="Trazado_736" data-name="Trazado 736" d="M2.059-.627l.1.618a2.525,2.525,0,0,1-.53.066,1.189,1.189,0,0,1-.6-.122.661.661,0,0,1-.3-.318,2.552,2.552,0,0,1-.084-.83V-3.6H.14v-.546H.655V-5.167l.7-.421v1.445h.705V-3.6H1.354v2.424a1.04,1.04,0,0,0,.037.387.261.261,0,0,0,.119.134.4.4,0,0,0,.24.05A1.779,1.779,0,0,0,2.059-.627Zm0,0"/>
        </g>
        <g id="Grupo_715" data-name="Grupo 715" transform="translate(269.186 209.146)">
          <path id="Trazado_737" data-name="Trazado 737" d="M3.229-.512a2.534,2.534,0,0,1-.752.468A2.127,2.127,0,0,1,1.7.094,1.49,1.49,0,0,1,.655-.24,1.091,1.091,0,0,1,.29-1.092a1.128,1.128,0,0,1,.137-.555,1.05,1.05,0,0,1,.362-.4,1.788,1.788,0,0,1,.505-.231,5.28,5.28,0,0,1,.624-.106A6.454,6.454,0,0,0,3.17-2.63c0-.094,0-.153.006-.181a.8.8,0,0,0-.2-.605,1.214,1.214,0,0,0-.8-.237,1.286,1.286,0,0,0-.733.175,1.062,1.062,0,0,0-.349.612L.409-2.961a1.655,1.655,0,0,1,.309-.711,1.375,1.375,0,0,1,.621-.418,2.84,2.84,0,0,1,.939-.147,2.62,2.62,0,0,1,.861.125,1.179,1.179,0,0,1,.49.315,1.246,1.246,0,0,1,.218.477,4.741,4.741,0,0,1,.034.649v.936A9.2,9.2,0,0,0,3.925-.5,1.435,1.435,0,0,0,4.1,0H3.37A1.369,1.369,0,0,1,3.229-.512ZM3.17-2.078a4.831,4.831,0,0,1-1.145.265,2.884,2.884,0,0,0-.615.14.626.626,0,0,0-.275.228.611.611,0,0,0-.1.334.583.583,0,0,0,.212.468.871.871,0,0,0,.621.187,1.389,1.389,0,0,0,.721-.178,1.063,1.063,0,0,0,.465-.487,1.8,1.8,0,0,0,.112-.7Zm0,0"/>
        </g>
        <g id="Grupo_716" data-name="Grupo 716" transform="translate(273.629 209.146)">
          <path id="Trazado_738" data-name="Trazado 738" d="M.527,0V-5.719h.7v2.053a1.574,1.574,0,0,1,1.239-.571,1.7,1.7,0,0,1,.8.184,1.1,1.1,0,0,1,.487.5,2.39,2.39,0,0,1,.147.927V0H3.2V-2.624a1.121,1.121,0,0,0-.228-.768.854.854,0,0,0-.646-.24,1.146,1.146,0,0,0-.587.162.92.92,0,0,0-.393.44,1.912,1.912,0,0,0-.115.764V0Zm0,0"/>
        </g>
        <g id="Grupo_717" data-name="Grupo 717" transform="translate(278.071 209.146)">
          <path id="Trazado_739" data-name="Trazado 739"/>
        </g>
        <g id="Grupo_718" data-name="Grupo 718" transform="translate(280.29 209.146)">
          <path id="Trazado_740" data-name="Trazado 740" d="M.231-1.623l.683-.094a1.394,1.394,0,0,0,.243.9.755.755,0,0,0,.605.24.855.855,0,0,0,.49-.131.661.661,0,0,0,.287-.356,2.529,2.529,0,0,0,.078-.715V-5.719h.755v3.9A2.965,2.965,0,0,1,3.2-.708a1.224,1.224,0,0,1-.549.6A1.845,1.845,0,0,1,1.766.1,1.492,1.492,0,0,1,.615-.334,1.768,1.768,0,0,1,.231-1.623Zm0,0"/>
        </g>
        <g id="Grupo_719" data-name="Grupo 719" transform="translate(284.284 209.146)">
          <path id="Trazado_741" data-name="Trazado 741" d="M3.229-.512a2.534,2.534,0,0,1-.752.468A2.127,2.127,0,0,1,1.7.094,1.49,1.49,0,0,1,.655-.24,1.091,1.091,0,0,1,.29-1.092a1.128,1.128,0,0,1,.137-.555,1.05,1.05,0,0,1,.362-.4,1.788,1.788,0,0,1,.505-.231,5.28,5.28,0,0,1,.624-.106A6.454,6.454,0,0,0,3.17-2.63c0-.094,0-.153.006-.181a.8.8,0,0,0-.2-.605,1.214,1.214,0,0,0-.8-.237,1.286,1.286,0,0,0-.733.175,1.062,1.062,0,0,0-.349.612L.409-2.961a1.655,1.655,0,0,1,.309-.711,1.375,1.375,0,0,1,.621-.418,2.84,2.84,0,0,1,.939-.147,2.62,2.62,0,0,1,.861.125,1.179,1.179,0,0,1,.49.315,1.246,1.246,0,0,1,.218.477,4.741,4.741,0,0,1,.034.649v.936A9.2,9.2,0,0,0,3.925-.5,1.435,1.435,0,0,0,4.1,0H3.37A1.369,1.369,0,0,1,3.229-.512ZM3.17-2.078a4.831,4.831,0,0,1-1.145.265,2.884,2.884,0,0,0-.615.14.626.626,0,0,0-.275.228.611.611,0,0,0-.1.334.583.583,0,0,0,.212.468.871.871,0,0,0,.621.187,1.389,1.389,0,0,0,.721-.178,1.063,1.063,0,0,0,.465-.487,1.8,1.8,0,0,0,.112-.7Zm0,0"/>
        </g>
        <g id="Grupo_720" data-name="Grupo 720" transform="translate(288.726 209.146)">
          <path id="Trazado_742" data-name="Trazado 742" d="M.156,0V-.571L2.793-3.6c-.3.019-.568.028-.793.025H.312v-.571H3.7v.465L1.454-1.048l-.431.477c.312-.022.605-.031.883-.034H3.822V0Zm0,0"/>
        </g>
        <g id="Grupo_721" data-name="Grupo 721" transform="translate(292.72 209.146)">
          <path id="Trazado_743" data-name="Trazado 743" d="M.156,0V-.571L2.793-3.6c-.3.019-.568.028-.793.025H.312v-.571H3.7v.465L1.454-1.048l-.431.477c.312-.022.605-.031.883-.034H3.822V0Zm0,0"/>
        </g>
      </g>
      <g id="Grupo_729" data-name="Grupo 729">
        <g id="Grupo_723" data-name="Grupo 723" transform="translate(173.036 218.591)">
          <path id="Trazado_744" data-name="Trazado 744" d="M3.364-1.335l.724.09a1.817,1.817,0,0,1-.637.989A1.917,1.917,0,0,1,2.265.094,1.892,1.892,0,0,1,.824-.465a2.167,2.167,0,0,1-.53-1.573A2.27,2.27,0,0,1,.83-3.66a1.832,1.832,0,0,1,1.4-.577,1.787,1.787,0,0,1,1.357.568,2.271,2.271,0,0,1,.527,1.591c0,.044-.006.106-.006.187H1.017A1.585,1.585,0,0,0,1.4-.846a1.129,1.129,0,0,0,.867.362,1.044,1.044,0,0,0,.655-.2A1.361,1.361,0,0,0,3.364-1.335ZM1.058-2.468H3.37A1.445,1.445,0,0,0,3.1-3.254a1.086,1.086,0,0,0-.871-.406,1.115,1.115,0,0,0-.814.325A1.278,1.278,0,0,0,1.058-2.468Zm0,0"/>
        </g>
        <g id="Grupo_724" data-name="Grupo 724" transform="translate(177.479 218.591)">
          <path id="Trazado_745" data-name="Trazado 745" d="M3.167,1.588V-.44a1.242,1.242,0,0,1-.459.381,1.328,1.328,0,0,1-.624.153A1.651,1.651,0,0,1,.811-.5a2.312,2.312,0,0,1-.53-1.613A2.791,2.791,0,0,1,.5-3.229a1.6,1.6,0,0,1,.63-.752,1.7,1.7,0,0,1,.9-.256,1.408,1.408,0,0,1,1.211.649v-.555h.63V1.588ZM1-2.084a1.822,1.822,0,0,0,.334,1.2,1,1,0,0,0,.805.4.978.978,0,0,0,.774-.381,1.755,1.755,0,0,0,.325-1.158A1.932,1.932,0,0,0,2.9-3.264a1.035,1.035,0,0,0-.8-.418.984.984,0,0,0-.774.39A1.9,1.9,0,0,0,1-2.084Zm0,0"/>
        </g>
        <g id="Grupo_725" data-name="Grupo 725" transform="translate(181.921 218.591)">
          <path id="Trazado_746" data-name="Trazado 746" d="M3.242,0V-.608a1.519,1.519,0,0,1-1.314.7,1.667,1.667,0,0,1-.686-.14A1.072,1.072,0,0,1,.771-.4,1.257,1.257,0,0,1,.555-.92a3.058,3.058,0,0,1-.044-.655V-4.144h.7v2.3a3.55,3.55,0,0,0,.044.739.7.7,0,0,0,.278.437.852.852,0,0,0,.534.156,1.107,1.107,0,0,0,.59-.162.9.9,0,0,0,.393-.44,2.3,2.3,0,0,0,.115-.808V-4.144h.7V0Zm0,0"/>
        </g>
        <g id="Grupo_726" data-name="Grupo 726" transform="translate(186.363 218.591)">
          <path id="Trazado_747" data-name="Trazado 747" d="M.53-4.911v-.808h.7v.808ZM.53,0V-4.144h.7V0Zm0,0"/>
        </g>
        <g id="Grupo_727" data-name="Grupo 727" transform="translate(188.138 218.591)">
          <path id="Trazado_748" data-name="Trazado 748" d="M.527,1.588V-4.144h.64v.54a1.585,1.585,0,0,1,.509-.474,1.475,1.475,0,0,1,.693-.159,1.675,1.675,0,0,1,.936.275,1.721,1.721,0,0,1,.612.771A2.941,2.941,0,0,1,4.122-2.1,2.84,2.84,0,0,1,3.894-.958a1.723,1.723,0,0,1-.665.78,1.7,1.7,0,0,1-.911.271,1.317,1.317,0,0,1-.633-.147,1.326,1.326,0,0,1-.456-.378V1.588Zm.637-3.635A1.762,1.762,0,0,0,1.485-.864a.971.971,0,0,0,.786.381,1,1,0,0,0,.8-.4A1.893,1.893,0,0,0,3.4-2.106,1.866,1.866,0,0,0,3.08-3.292,1,1,0,0,0,2.3-3.685a1.028,1.028,0,0,0-.8.418A1.864,1.864,0,0,0,1.164-2.047Zm0,0"/>
        </g>
        <g id="Grupo_728" data-name="Grupo 728" transform="translate(192.58 218.591)">
          <path id="Trazado_749" data-name="Trazado 749" d="M.265-2.072a2.116,2.116,0,0,1,.64-1.7,1.942,1.942,0,0,1,1.3-.462A1.878,1.878,0,0,1,3.6-3.676a2.129,2.129,0,0,1,.543,1.545,2.753,2.753,0,0,1-.24,1.261,1.725,1.725,0,0,1-.7.711,2.047,2.047,0,0,1-1,.253A1.852,1.852,0,0,1,.8-.465,2.186,2.186,0,0,1,.265-2.072Zm.721,0A1.727,1.727,0,0,0,1.332-.88a1.1,1.1,0,0,0,.877.4,1.1,1.1,0,0,0,.867-.4,1.806,1.806,0,0,0,.349-1.214,1.717,1.717,0,0,0-.349-1.164,1.136,1.136,0,0,0-.867-.4,1.14,1.14,0,0,0-.877.393A1.734,1.734,0,0,0,.986-2.072Zm0,0"/>
        </g>
      </g>
      <g id="Grupo_737" data-name="Grupo 737">
        <g id="Grupo_730" data-name="Grupo 730" transform="translate(19.218 125.97)">
          <path id="Trazado_750" data-name="Trazado 750" d="M.343-.4l.1-.68A.66.66,0,0,0,.9-1.32a1.189,1.189,0,0,0,.2-.711,1.309,1.309,0,0,0-.2-.755.974.974,0,0,0-.546-.359,4.963,4.963,0,0,0-.9-.05A1.452,1.452,0,0,1,0-2.047,1.549,1.549,0,0,1-.615-.727a2.329,2.329,0,0,1-1.479.468,2.71,2.71,0,0,1-1.1-.212,1.706,1.706,0,0,1-.774-.621,1.706,1.706,0,0,1-.275-.961,1.5,1.5,0,0,1,.593-1.208h-.5V-3.91H-.562a3.455,3.455,0,0,1,1.37.2,1.5,1.5,0,0,1,.64.624,2.243,2.243,0,0,1,.234,1.048,1.991,1.991,0,0,1-.334,1.2A1.126,1.126,0,0,1,.343-.4Zm-2.49-.58A1.785,1.785,0,0,0-.955-1.3,1.03,1.03,0,0,0-.58-2.116a1.038,1.038,0,0,0-.371-.811,1.77,1.77,0,0,0-1.17-.328,1.712,1.712,0,0,0-1.145.34,1.067,1.067,0,0,0-.387.811,1.027,1.027,0,0,0,.381.8A1.658,1.658,0,0,0-2.147-.98Zm0,0"/>
        </g>
        <g id="Grupo_731" data-name="Grupo 731" transform="translate(19.218 121.528)">
          <path id="Trazado_751" data-name="Trazado 751" d="M-.512-3.229a2.534,2.534,0,0,1,.468.752A2.127,2.127,0,0,1,.094-1.7,1.49,1.49,0,0,1-.24-.655a1.091,1.091,0,0,1-.852.365,1.128,1.128,0,0,1-.555-.137,1.05,1.05,0,0,1-.4-.362,1.788,1.788,0,0,1-.231-.505,5.28,5.28,0,0,1-.106-.624A6.454,6.454,0,0,0-2.63-3.17c-.094,0-.153,0-.181-.006a.8.8,0,0,0-.605.2,1.214,1.214,0,0,0-.237.8,1.286,1.286,0,0,0,.175.733,1.062,1.062,0,0,0,.612.349l-.094.686a1.655,1.655,0,0,1-.711-.309,1.375,1.375,0,0,1-.418-.621,2.84,2.84,0,0,1-.147-.939,2.62,2.62,0,0,1,.125-.861,1.179,1.179,0,0,1,.315-.49,1.246,1.246,0,0,1,.477-.218,4.741,4.741,0,0,1,.649-.034h.936A9.2,9.2,0,0,0-.5-3.925,1.435,1.435,0,0,0,0-4.1v.733A1.369,1.369,0,0,1-.512-3.229Zm-1.566.059a4.831,4.831,0,0,1,.265,1.145,2.884,2.884,0,0,0,.14.615.626.626,0,0,0,.228.275.611.611,0,0,0,.334.1.583.583,0,0,0,.468-.212.871.871,0,0,0,.187-.621,1.389,1.389,0,0,0-.178-.721,1.063,1.063,0,0,0-.487-.465,1.8,1.8,0,0,0-.7-.112Zm0,0"/>
        </g>
        <g id="Grupo_732" data-name="Grupo 732" transform="translate(19.218 117.085)">
          <path id="Trazado_752" data-name="Trazado 752" d="M0-.527H-4.144v-.63h.59a1.5,1.5,0,0,1-.683-1.32A1.773,1.773,0,0,1-4.1-3.164a1.123,1.123,0,0,1,.353-.471,1.412,1.412,0,0,1,.518-.218,4.111,4.111,0,0,1,.683-.041H0v.7H-2.521a1.845,1.845,0,0,0-.64.084.725.725,0,0,0-.34.29.97.97,0,0,0-.128.49,1.153,1.153,0,0,0,.287.774,1.391,1.391,0,0,0,1.08.325H0Zm0,0"/>
        </g>
        <g id="Grupo_733" data-name="Grupo 733" transform="translate(19.218 112.642)">
          <path id="Trazado_753" data-name="Trazado 753" d="M-.512-3.229a2.534,2.534,0,0,1,.468.752A2.127,2.127,0,0,1,.094-1.7,1.49,1.49,0,0,1-.24-.655a1.091,1.091,0,0,1-.852.365,1.128,1.128,0,0,1-.555-.137,1.05,1.05,0,0,1-.4-.362,1.788,1.788,0,0,1-.231-.505,5.28,5.28,0,0,1-.106-.624A6.454,6.454,0,0,0-2.63-3.17c-.094,0-.153,0-.181-.006a.8.8,0,0,0-.605.2,1.214,1.214,0,0,0-.237.8,1.286,1.286,0,0,0,.175.733,1.062,1.062,0,0,0,.612.349l-.094.686a1.655,1.655,0,0,1-.711-.309,1.375,1.375,0,0,1-.418-.621,2.84,2.84,0,0,1-.147-.939,2.62,2.62,0,0,1,.125-.861,1.179,1.179,0,0,1,.315-.49,1.246,1.246,0,0,1,.477-.218,4.741,4.741,0,0,1,.649-.034h.936A9.2,9.2,0,0,0-.5-3.925,1.435,1.435,0,0,0,0-4.1v.733A1.369,1.369,0,0,1-.512-3.229Zm-1.566.059a4.831,4.831,0,0,1,.265,1.145,2.884,2.884,0,0,0,.14.615.626.626,0,0,0,.228.275.611.611,0,0,0,.334.1.583.583,0,0,0,.468-.212.871.871,0,0,0,.187-.621,1.389,1.389,0,0,0-.178-.721,1.063,1.063,0,0,0-.487-.465,1.8,1.8,0,0,0-.7-.112Zm0,0"/>
        </g>
        <g id="Grupo_734" data-name="Grupo 734" transform="translate(19.218 108.2)">
          <path id="Trazado_754" data-name="Trazado 754" d="M0-3.214H-.524A1.294,1.294,0,0,1,.094-2.056a1.618,1.618,0,0,1-.271.911A1.747,1.747,0,0,1-.942-.5a2.533,2.533,0,0,1-1.126.228A2.837,2.837,0,0,1-3.192-.481,1.6,1.6,0,0,1-3.966-1.1a1.7,1.7,0,0,1-.271-.927,1.451,1.451,0,0,1,.159-.665,1.533,1.533,0,0,1,.412-.477H-5.719v-.7H0ZM-2.069-1A1.782,1.782,0,0,0-.877-1.329a.994.994,0,0,0,.393-.793A.981.981,0,0,0-.858-2.9a1.766,1.766,0,0,0-1.151-.321A1.993,1.993,0,0,0-3.254-2.9a1.036,1.036,0,0,0-.4.808.982.982,0,0,0,.384.783A1.846,1.846,0,0,0-2.069-1Zm0,0"/>
        </g>
        <g id="Grupo_735" data-name="Grupo 735" transform="translate(19.218 103.758)">
          <path id="Trazado_755" data-name="Trazado 755" d="M-2.072-.265a2.116,2.116,0,0,1-1.7-.64,1.942,1.942,0,0,1-.462-1.3A1.878,1.878,0,0,1-3.676-3.6a2.129,2.129,0,0,1,1.545-.543,2.753,2.753,0,0,1,1.261.24,1.725,1.725,0,0,1,.711.7,2.047,2.047,0,0,1,.253,1A1.852,1.852,0,0,1-.465-.8,2.186,2.186,0,0,1-2.072-.265Zm0-.721A1.727,1.727,0,0,0-.88-1.332a1.1,1.1,0,0,0,.4-.877,1.1,1.1,0,0,0-.4-.867,1.806,1.806,0,0,0-1.214-.349,1.717,1.717,0,0,0-1.164.349,1.136,1.136,0,0,0-.4.867,1.14,1.14,0,0,0,.393.877A1.734,1.734,0,0,0-2.072-.986Zm0,0"/>
        </g>
        <g id="Grupo_736" data-name="Grupo 736" transform="translate(19.218 99.316)">
          <path id="Trazado_756" data-name="Trazado 756" d="M-1.236-.246l-.109-.693a.954.954,0,0,0,.64-.325,1.112,1.112,0,0,0,.222-.749,1.071,1.071,0,0,0-.2-.718.6.6,0,0,0-.462-.234.439.439,0,0,0-.374.206,3.3,3.3,0,0,0-.24.718A5.878,5.878,0,0,1-2.091-.967a1.007,1.007,0,0,1-.4.452,1.007,1.007,0,0,1-.555.153A1.006,1.006,0,0,1-3.554-.49a1.161,1.161,0,0,1-.393-.346,1.51,1.51,0,0,1-.206-.443,2.349,2.349,0,0,1-.084-.608,2.556,2.556,0,0,1,.14-.855,1.2,1.2,0,0,1,.381-.546,1.53,1.53,0,0,1,.643-.24l.094.686a.784.784,0,0,0-.5.271.994.994,0,0,0-.181.633,1.135,1.135,0,0,0,.162.69.457.457,0,0,0,.374.206.342.342,0,0,0,.243-.084A.529.529,0,0,0-2.693-1.4a5.574,5.574,0,0,0,.181-.618,8.928,8.928,0,0,1,.328-1.039,1.045,1.045,0,0,1,.368-.462,1.075,1.075,0,0,1,.6-.168,1.223,1.223,0,0,1,.661.206,1.314,1.314,0,0,1,.481.59,2.171,2.171,0,0,1,.168.874A1.931,1.931,0,0,1-.24-.786,1.533,1.533,0,0,1-1.236-.246Zm0,0"/>
        </g>
      </g>
      <path id="Trazado_757" data-name="Trazado 757" d="M57.241,252.83H312.822V229.478H57.241Zm0,0" fill="#fff" stroke="#000" stroke-linecap="round" stroke-linejoin="round" stroke-miterlimit="10" stroke-width="0.568"/>
      <g id="Grupo_744" data-name="Grupo 744">
        <g id="Grupo_738" data-name="Grupo 738" transform="translate(61.609 242.258)">
          <path id="Trazado_758" data-name="Trazado 758" d="M4.708-1.869l1.014.128A2.506,2.506,0,0,1,4.833-.359a2.675,2.675,0,0,1-1.66.49A2.646,2.646,0,0,1,1.154-.652a3.027,3.027,0,0,1-.746-2.2,3.2,3.2,0,0,1,.752-2.272,2.571,2.571,0,0,1,1.956-.808,2.5,2.5,0,0,1,1.9.793,3.148,3.148,0,0,1,.739,2.228c0,.059,0,.147-.006.262H1.426a2.213,2.213,0,0,0,.54,1.463A1.582,1.582,0,0,0,3.18-.677,1.463,1.463,0,0,0,4.1-.961,1.864,1.864,0,0,0,4.708-1.869ZM1.479-3.457H4.718a2,2,0,0,0-.371-1.1A1.533,1.533,0,0,0,3.13-5.123a1.583,1.583,0,0,0-1.139.456A1.778,1.778,0,0,0,1.479-3.457Zm0,0"/>
        </g>
        <g id="Grupo_739" data-name="Grupo 739" transform="translate(67.829 242.258)">
          <path id="Trazado_759" data-name="Trazado 759" d="M4.434,2.222V-.618a1.774,1.774,0,0,1-.643.537,1.862,1.862,0,0,1-.874.212A2.308,2.308,0,0,1,1.139-.693,3.233,3.233,0,0,1,.393-2.955,3.864,3.864,0,0,1,.7-4.521a2.245,2.245,0,0,1,.88-1.052,2.388,2.388,0,0,1,1.264-.359,1.965,1.965,0,0,1,1.694.908V-5.8h.883V2.222ZM1.4-2.917a2.575,2.575,0,0,0,.468,1.682A1.407,1.407,0,0,0,3-.677a1.371,1.371,0,0,0,1.08-.53A2.491,2.491,0,0,0,4.534-2.83a2.726,2.726,0,0,0-.481-1.741,1.431,1.431,0,0,0-1.12-.583,1.374,1.374,0,0,0-1.086.543A2.664,2.664,0,0,0,1.4-2.917Zm0,0"/>
        </g>
        <g id="Grupo_740" data-name="Grupo 740" transform="translate(74.048 242.258)">
          <path id="Trazado_760" data-name="Trazado 760" d="M4.537,0V-.852A2.129,2.129,0,0,1,2.7.131a2.332,2.332,0,0,1-.961-.2A1.519,1.519,0,0,1,1.08-.559a1.762,1.762,0,0,1-.3-.73,4.376,4.376,0,0,1-.062-.917V-5.8H1.7v3.217A5.1,5.1,0,0,0,1.76-1.545a.993.993,0,0,0,.39.608A1.189,1.189,0,0,0,2.9-.715a1.554,1.554,0,0,0,.827-.228,1.271,1.271,0,0,0,.549-.618,3.155,3.155,0,0,0,.162-1.133V-5.8h.983V0Zm0,0"/>
        </g>
        <g id="Grupo_741" data-name="Grupo 741" transform="translate(80.268 242.258)">
          <path id="Trazado_761" data-name="Trazado 761" d="M.743-6.874V-8.006h.983v1.133ZM.743,0V-5.8h.983V0Zm0,0"/>
        </g>
        <g id="Grupo_742" data-name="Grupo 742" transform="translate(82.752 242.258)">
          <path id="Trazado_762" data-name="Trazado 762" d="M.736,2.222V-5.8h.9v.755a2.206,2.206,0,0,1,.715-.665,2,2,0,0,1,.967-.222,2.342,2.342,0,0,1,1.31.384,2.382,2.382,0,0,1,.858,1.08,4.051,4.051,0,0,1,.29,1.526,3.934,3.934,0,0,1-.321,1.6A2.442,2.442,0,0,1,4.524-.246,2.4,2.4,0,0,1,3.245.131a1.853,1.853,0,0,1-.883-.206A1.916,1.916,0,0,1,1.719-.6V2.222Zm.892-5.089a2.52,2.52,0,0,0,.452,1.657,1.365,1.365,0,0,0,1.1.534A1.406,1.406,0,0,0,4.3-1.229a2.662,2.662,0,0,0,.468-1.719,2.619,2.619,0,0,0-.456-1.66,1.394,1.394,0,0,0-1.089-.552,1.437,1.437,0,0,0-1.114.587A2.636,2.636,0,0,0,1.629-2.867Zm0,0"/>
        </g>
        <g id="Grupo_743" data-name="Grupo 743" transform="translate(88.971 242.258)">
          <path id="Trazado_763" data-name="Trazado 763" d="M.371-2.9a2.976,2.976,0,0,1,.9-2.387,2.718,2.718,0,0,1,1.825-.646,2.618,2.618,0,0,1,1.953.786A2.985,2.985,0,0,1,5.8-2.983,3.826,3.826,0,0,1,5.467-1.22a2.4,2.4,0,0,1-.977,1,2.848,2.848,0,0,1-1.4.356A2.606,2.606,0,0,1,1.12-.649,3.1,3.1,0,0,1,.371-2.9Zm1.011,0a2.447,2.447,0,0,0,.484,1.669,1.537,1.537,0,0,0,1.226.552,1.537,1.537,0,0,0,1.217-.555,2.554,2.554,0,0,0,.487-1.7,2.424,2.424,0,0,0-.49-1.629,1.575,1.575,0,0,0-1.214-.555,1.576,1.576,0,0,0-1.226.552A2.454,2.454,0,0,0,1.382-2.9Zm0,0"/>
        </g>
      </g>
      <path id="Trazado_764" data-name="Trazado 764" d="M100.353,248.056h13.8v-13.8h-13.8Zm0,0" fill="#fff"/>
      <path id="Trazado_765" data-name="Trazado 765" d="M100.921,247.488h12.671V234.817H100.921Zm0,0" fill="#f8766d"/>
      <path id="Trazado_766" data-name="Trazado 766" d="M177.46,248.056h13.8v-13.8h-13.8Zm0,0" fill="#fff"/>
      <path id="Trazado_767" data-name="Trazado 767" d="M178.025,247.488H190.7V234.817H178.025Zm0,0" fill="#00ba38"/>
      <path id="Trazado_768" data-name="Trazado 768" d="M253.9,248.056h13.8v-13.8H253.9Zm0,0" fill="#fff"/>
      <path id="Trazado_769" data-name="Trazado 769" d="M254.464,247.488h12.672V234.817H254.464Zm0,0" fill="#619cff"/>
      <g id="Grupo_758" data-name="Grupo 758">
        <g id="Grupo_745" data-name="Grupo 745" transform="translate(119.727 244.011)">
          <path id="Trazado_770" data-name="Trazado 770" d="M-.012,0l2.2-5.719H3L5.339,0H4.478L3.81-1.732H1.42L.793,0ZM1.638-2.35H3.576l-.6-1.582c-.184-.481-.318-.874-.406-1.186a7.713,7.713,0,0,1-.309,1.092Zm0,0"/>
        </g>
        <g id="Grupo_746" data-name="Grupo 746" transform="translate(125.055 244.011)">
          <path id="Trazado_771" data-name="Trazado 771" d="M2.059-.627l.1.618a2.525,2.525,0,0,1-.53.066,1.189,1.189,0,0,1-.6-.122.661.661,0,0,1-.3-.318,2.552,2.552,0,0,1-.084-.83V-3.6H.14v-.546H.655V-5.167l.7-.421v1.445h.705V-3.6H1.354v2.424a1.04,1.04,0,0,0,.037.387.261.261,0,0,0,.119.134.4.4,0,0,0,.24.05A1.779,1.779,0,0,0,2.059-.627Zm0,0"/>
        </g>
        <g id="Grupo_747" data-name="Grupo 747" transform="translate(127.274 244.011)">
          <path id="Trazado_772" data-name="Trazado 772" d="M.512,0V-5.719h.7V0Zm0,0"/>
        </g>
        <g id="Grupo_748" data-name="Grupo 748" transform="translate(129.049 244.011)">
          <path id="Trazado_773" data-name="Trazado 773" d="M3.229-.512a2.534,2.534,0,0,1-.752.468A2.127,2.127,0,0,1,1.7.094,1.49,1.49,0,0,1,.655-.24,1.091,1.091,0,0,1,.29-1.092a1.128,1.128,0,0,1,.137-.555,1.05,1.05,0,0,1,.362-.4,1.788,1.788,0,0,1,.505-.231,5.28,5.28,0,0,1,.624-.106A6.454,6.454,0,0,0,3.17-2.63c0-.094,0-.153.006-.181a.8.8,0,0,0-.2-.605,1.214,1.214,0,0,0-.8-.237,1.286,1.286,0,0,0-.733.175,1.062,1.062,0,0,0-.349.612L.409-2.961a1.655,1.655,0,0,1,.309-.711,1.375,1.375,0,0,1,.621-.418,2.84,2.84,0,0,1,.939-.147,2.62,2.62,0,0,1,.861.125,1.179,1.179,0,0,1,.49.315,1.246,1.246,0,0,1,.218.477,4.741,4.741,0,0,1,.034.649v.936A9.2,9.2,0,0,0,3.925-.5,1.435,1.435,0,0,0,4.1,0H3.37A1.369,1.369,0,0,1,3.229-.512ZM3.17-2.078a4.831,4.831,0,0,1-1.145.265,2.884,2.884,0,0,0-.615.14.626.626,0,0,0-.275.228.611.611,0,0,0-.1.334.583.583,0,0,0,.212.468.871.871,0,0,0,.621.187,1.389,1.389,0,0,0,.721-.178,1.063,1.063,0,0,0,.465-.487,1.8,1.8,0,0,0,.112-.7Zm0,0"/>
        </g>
        <g id="Grupo_749" data-name="Grupo 749" transform="translate(133.491 244.011)">
          <path id="Trazado_774" data-name="Trazado 774" d="M.527,0V-4.144h.63v.59a1.5,1.5,0,0,1,1.32-.683,1.773,1.773,0,0,1,.686.137,1.123,1.123,0,0,1,.471.353,1.412,1.412,0,0,1,.218.518,4.111,4.111,0,0,1,.041.683V0h-.7V-2.521a1.845,1.845,0,0,0-.084-.64.725.725,0,0,0-.29-.34.97.97,0,0,0-.49-.128,1.153,1.153,0,0,0-.774.287,1.391,1.391,0,0,0-.325,1.08V0Zm0,0"/>
        </g>
        <g id="Grupo_750" data-name="Grupo 750" transform="translate(137.933 244.011)">
          <path id="Trazado_775" data-name="Trazado 775" d="M2.059-.627l.1.618a2.525,2.525,0,0,1-.53.066,1.189,1.189,0,0,1-.6-.122.661.661,0,0,1-.3-.318,2.552,2.552,0,0,1-.084-.83V-3.6H.14v-.546H.655V-5.167l.7-.421v1.445h.705V-3.6H1.354v2.424a1.04,1.04,0,0,0,.037.387.261.261,0,0,0,.119.134.4.4,0,0,0,.24.05A1.779,1.779,0,0,0,2.059-.627Zm0,0"/>
        </g>
        <g id="Grupo_751" data-name="Grupo 751" transform="translate(140.152 244.011)">
          <path id="Trazado_776" data-name="Trazado 776" d="M3.229-.512a2.534,2.534,0,0,1-.752.468A2.127,2.127,0,0,1,1.7.094,1.49,1.49,0,0,1,.655-.24,1.091,1.091,0,0,1,.29-1.092a1.128,1.128,0,0,1,.137-.555,1.05,1.05,0,0,1,.362-.4,1.788,1.788,0,0,1,.505-.231,5.28,5.28,0,0,1,.624-.106A6.454,6.454,0,0,0,3.17-2.63c0-.094,0-.153.006-.181a.8.8,0,0,0-.2-.605,1.214,1.214,0,0,0-.8-.237,1.286,1.286,0,0,0-.733.175,1.062,1.062,0,0,0-.349.612L.409-2.961a1.655,1.655,0,0,1,.309-.711,1.375,1.375,0,0,1,.621-.418,2.84,2.84,0,0,1,.939-.147,2.62,2.62,0,0,1,.861.125,1.179,1.179,0,0,1,.49.315,1.246,1.246,0,0,1,.218.477,4.741,4.741,0,0,1,.034.649v.936A9.2,9.2,0,0,0,3.925-.5,1.435,1.435,0,0,0,4.1,0H3.37A1.369,1.369,0,0,1,3.229-.512ZM3.17-2.078a4.831,4.831,0,0,1-1.145.265,2.884,2.884,0,0,0-.615.14.626.626,0,0,0-.275.228.611.611,0,0,0-.1.334.583.583,0,0,0,.212.468.871.871,0,0,0,.621.187,1.389,1.389,0,0,0,.721-.178,1.063,1.063,0,0,0,.465-.487,1.8,1.8,0,0,0,.112-.7Zm0,0"/>
        </g>
        <g id="Grupo_752" data-name="Grupo 752" transform="translate(144.595 244.011)">
          <path id="Trazado_777" data-name="Trazado 777"/>
        </g>
        <g id="Grupo_753" data-name="Grupo 753" transform="translate(146.814 244.011)">
          <path id="Trazado_778" data-name="Trazado 778" d="M.64,0V-5.719H1.4v2.35h2.97v-2.35h.758V0H4.368V-2.7H1.4V0Zm0,0"/>
        </g>
        <g id="Grupo_754" data-name="Grupo 754" transform="translate(152.583 244.011)">
          <path id="Trazado_779" data-name="Trazado 779" d="M3.229-.512a2.534,2.534,0,0,1-.752.468A2.127,2.127,0,0,1,1.7.094,1.49,1.49,0,0,1,.655-.24,1.091,1.091,0,0,1,.29-1.092a1.128,1.128,0,0,1,.137-.555,1.05,1.05,0,0,1,.362-.4,1.788,1.788,0,0,1,.505-.231,5.28,5.28,0,0,1,.624-.106A6.454,6.454,0,0,0,3.17-2.63c0-.094,0-.153.006-.181a.8.8,0,0,0-.2-.605,1.214,1.214,0,0,0-.8-.237,1.286,1.286,0,0,0-.733.175,1.062,1.062,0,0,0-.349.612L.409-2.961a1.655,1.655,0,0,1,.309-.711,1.375,1.375,0,0,1,.621-.418,2.84,2.84,0,0,1,.939-.147,2.62,2.62,0,0,1,.861.125,1.179,1.179,0,0,1,.49.315,1.246,1.246,0,0,1,.218.477,4.741,4.741,0,0,1,.034.649v.936A9.2,9.2,0,0,0,3.925-.5,1.435,1.435,0,0,0,4.1,0H3.37A1.369,1.369,0,0,1,3.229-.512ZM3.17-2.078a4.831,4.831,0,0,1-1.145.265,2.884,2.884,0,0,0-.615.14.626.626,0,0,0-.275.228.611.611,0,0,0-.1.334.583.583,0,0,0,.212.468.871.871,0,0,0,.621.187,1.389,1.389,0,0,0,.721-.178,1.063,1.063,0,0,0,.465-.487,1.8,1.8,0,0,0,.112-.7Zm0,0"/>
        </g>
        <g id="Grupo_755" data-name="Grupo 755" transform="translate(157.025 244.011)">
          <path id="Trazado_780" data-name="Trazado 780" d="M1.292,0,.025-4.144H.749L1.407-1.75l.246.889c.006-.044.078-.328.215-.855l.658-2.428h.721l.621,2.4.206.793.24-.8.708-2.4h.683L4.412,0h-.73L3.024-2.481l-.159-.705L2.025,0Zm0,0"/>
        </g>
        <g id="Grupo_756" data-name="Grupo 756" transform="translate(162.794 244.011)">
          <path id="Trazado_781" data-name="Trazado 781" d="M.53,0V-5.719h.7v3.261L2.9-4.144H3.8L2.218-2.605,3.963,0H3.1L1.729-2.119l-.5.477V0Zm0,0"/>
        </g>
        <g id="Grupo_757" data-name="Grupo 757" transform="translate(166.788 244.011)">
          <path id="Trazado_782" data-name="Trazado 782" d="M.246-1.236l.693-.109a.954.954,0,0,0,.325.64,1.112,1.112,0,0,0,.749.222,1.071,1.071,0,0,0,.718-.2.6.6,0,0,0,.234-.462.439.439,0,0,0-.206-.374,3.3,3.3,0,0,0-.718-.24A5.878,5.878,0,0,1,.967-2.091a1.007,1.007,0,0,1-.452-.4,1.007,1.007,0,0,1-.153-.555A1.006,1.006,0,0,1,.49-3.554a1.161,1.161,0,0,1,.346-.393,1.51,1.51,0,0,1,.443-.206,2.349,2.349,0,0,1,.608-.084,2.556,2.556,0,0,1,.855.14,1.2,1.2,0,0,1,.546.381,1.53,1.53,0,0,1,.24.643l-.686.094a.784.784,0,0,0-.271-.5.994.994,0,0,0-.633-.181,1.135,1.135,0,0,0-.69.162.457.457,0,0,0-.206.374.342.342,0,0,0,.084.243.529.529,0,0,0,.271.187,5.574,5.574,0,0,0,.618.181,8.928,8.928,0,0,1,1.039.328,1.045,1.045,0,0,1,.462.368,1.075,1.075,0,0,1,.168.6,1.223,1.223,0,0,1-.206.661,1.314,1.314,0,0,1-.59.481,2.171,2.171,0,0,1-.874.168A1.931,1.931,0,0,1,.786-.24,1.533,1.533,0,0,1,.246-1.236Zm0,0"/>
        </g>
      </g>
      <g id="Grupo_772" data-name="Grupo 772">
        <g id="Grupo_759" data-name="Grupo 759" transform="translate(196.834 244.011)">
          <path id="Trazado_783" data-name="Trazado 783" d="M4.7-2.006l.758.193A2.55,2.55,0,0,1,4.6-.393,2.389,2.389,0,0,1,3.086.1a2.753,2.753,0,0,1-1.5-.374A2.329,2.329,0,0,1,.7-1.37,3.8,3.8,0,0,1,.4-2.9a3.338,3.338,0,0,1,.34-1.557A2.3,2.3,0,0,1,1.71-5.47,2.9,2.9,0,0,1,3.1-5.816a2.389,2.389,0,0,1,1.442.437A2.276,2.276,0,0,1,5.354-4.15l-.743.175a1.85,1.85,0,0,0-.58-.908,1.562,1.562,0,0,0-.949-.284,1.856,1.856,0,0,0-1.1.315A1.67,1.67,0,0,0,1.357-4a3.446,3.446,0,0,0-.178,1.1,3.444,3.444,0,0,0,.212,1.273,1.543,1.543,0,0,0,.658.814,1.818,1.818,0,0,0,.974.268A1.6,1.6,0,0,0,4.1-.914,1.89,1.89,0,0,0,4.7-2.006Zm0,0"/>
        </g>
        <g id="Grupo_760" data-name="Grupo 760" transform="translate(202.603 244.011)">
          <path id="Trazado_784" data-name="Trazado 784" d="M.527,0V-5.719h.7v2.053a1.574,1.574,0,0,1,1.239-.571,1.7,1.7,0,0,1,.8.184,1.1,1.1,0,0,1,.487.5,2.39,2.39,0,0,1,.147.927V0H3.2V-2.624a1.121,1.121,0,0,0-.228-.768.854.854,0,0,0-.646-.24,1.146,1.146,0,0,0-.587.162.92.92,0,0,0-.393.44,1.912,1.912,0,0,0-.115.764V0Zm0,0"/>
        </g>
        <g id="Grupo_761" data-name="Grupo 761" transform="translate(207.045 244.011)">
          <path id="Trazado_785" data-name="Trazado 785" d="M.53-4.911v-.808h.7v.808ZM.53,0V-4.144h.7V0Zm0,0"/>
        </g>
        <g id="Grupo_762" data-name="Grupo 762" transform="translate(208.82 244.011)">
          <path id="Trazado_786" data-name="Trazado 786" d="M3.229-1.516l.69.087a1.806,1.806,0,0,1-.58,1.12A1.691,1.691,0,0,1,2.2.094,1.773,1.773,0,0,1,.827-.462,2.224,2.224,0,0,1,.312-2.056,2.822,2.822,0,0,1,.534-3.229a1.585,1.585,0,0,1,.677-.755A2.071,2.071,0,0,1,2.2-4.237a1.733,1.733,0,0,1,1.1.343,1.6,1.6,0,0,1,.552.967l-.683.106a1.175,1.175,0,0,0-.346-.627.9.9,0,0,0-.6-.212,1.091,1.091,0,0,0-.864.381,1.781,1.781,0,0,0-.331,1.2A1.836,1.836,0,0,0,1.351-.861a1.027,1.027,0,0,0,.836.378.957.957,0,0,0,.69-.253A1.267,1.267,0,0,0,3.229-1.516Zm0,0"/>
        </g>
        <g id="Grupo_763" data-name="Grupo 763" transform="translate(212.813 244.011)">
          <path id="Trazado_787" data-name="Trazado 787" d="M3.229-.512a2.534,2.534,0,0,1-.752.468A2.127,2.127,0,0,1,1.7.094,1.49,1.49,0,0,1,.655-.24,1.091,1.091,0,0,1,.29-1.092a1.128,1.128,0,0,1,.137-.555,1.05,1.05,0,0,1,.362-.4,1.788,1.788,0,0,1,.505-.231,5.28,5.28,0,0,1,.624-.106A6.454,6.454,0,0,0,3.17-2.63c0-.094,0-.153.006-.181a.8.8,0,0,0-.2-.605,1.214,1.214,0,0,0-.8-.237,1.286,1.286,0,0,0-.733.175,1.062,1.062,0,0,0-.349.612L.409-2.961a1.655,1.655,0,0,1,.309-.711,1.375,1.375,0,0,1,.621-.418,2.84,2.84,0,0,1,.939-.147,2.62,2.62,0,0,1,.861.125,1.179,1.179,0,0,1,.49.315,1.246,1.246,0,0,1,.218.477,4.741,4.741,0,0,1,.034.649v.936A9.2,9.2,0,0,0,3.925-.5,1.435,1.435,0,0,0,4.1,0H3.37A1.369,1.369,0,0,1,3.229-.512ZM3.17-2.078a4.831,4.831,0,0,1-1.145.265,2.884,2.884,0,0,0-.615.14.626.626,0,0,0-.275.228.611.611,0,0,0-.1.334.583.583,0,0,0,.212.468.871.871,0,0,0,.621.187,1.389,1.389,0,0,0,.721-.178,1.063,1.063,0,0,0,.465-.487,1.8,1.8,0,0,0,.112-.7Zm0,0"/>
        </g>
        <g id="Grupo_764" data-name="Grupo 764" transform="translate(217.256 244.011)">
          <path id="Trazado_788" data-name="Trazado 788" d="M.4.343l.68.1A.66.66,0,0,0,1.32.9a1.189,1.189,0,0,0,.711.2A1.309,1.309,0,0,0,2.786.9.974.974,0,0,0,3.145.359a4.963,4.963,0,0,0,.05-.9A1.452,1.452,0,0,1,2.047,0,1.549,1.549,0,0,1,.727-.615,2.329,2.329,0,0,1,.259-2.094a2.71,2.71,0,0,1,.212-1.1,1.706,1.706,0,0,1,.621-.774,1.706,1.706,0,0,1,.961-.275,1.5,1.5,0,0,1,1.208.593v-.5H3.91V-.562a3.455,3.455,0,0,1-.2,1.37,1.5,1.5,0,0,1-.624.64,2.243,2.243,0,0,1-1.048.234,1.991,1.991,0,0,1-1.2-.334A1.126,1.126,0,0,1,.4.343Zm.58-2.49A1.785,1.785,0,0,0,1.3-.955a1.03,1.03,0,0,0,.814.374,1.038,1.038,0,0,0,.811-.371,1.77,1.77,0,0,0,.328-1.17,1.712,1.712,0,0,0-.34-1.145A1.067,1.067,0,0,0,2.1-3.654a1.027,1.027,0,0,0-.8.381A1.658,1.658,0,0,0,.98-2.147Zm0,0"/>
        </g>
        <g id="Grupo_765" data-name="Grupo 765" transform="translate(221.698 244.011)">
          <path id="Trazado_789" data-name="Trazado 789" d="M.265-2.072a2.116,2.116,0,0,1,.64-1.7,1.942,1.942,0,0,1,1.3-.462A1.878,1.878,0,0,1,3.6-3.676a2.129,2.129,0,0,1,.543,1.545,2.753,2.753,0,0,1-.24,1.261,1.725,1.725,0,0,1-.7.711,2.047,2.047,0,0,1-1,.253A1.852,1.852,0,0,1,.8-.465,2.186,2.186,0,0,1,.265-2.072Zm.721,0A1.727,1.727,0,0,0,1.332-.88a1.1,1.1,0,0,0,.877.4,1.1,1.1,0,0,0,.867-.4,1.806,1.806,0,0,0,.349-1.214,1.717,1.717,0,0,0-.349-1.164,1.136,1.136,0,0,0-.867-.4,1.14,1.14,0,0,0-.877.393A1.734,1.734,0,0,0,.986-2.072Zm0,0"/>
        </g>
        <g id="Grupo_766" data-name="Grupo 766" transform="translate(226.141 244.011)">
          <path id="Trazado_790" data-name="Trazado 790"/>
        </g>
        <g id="Grupo_767" data-name="Grupo 767" transform="translate(228.36 244.011)">
          <path id="Trazado_791" data-name="Trazado 791" d="M.587,0V-5.719H2.73a2.675,2.675,0,0,1,1.052.175,1.4,1.4,0,0,1,.621.537,1.463,1.463,0,0,1,.225.752,1.325,1.325,0,0,1-.2.693,1.419,1.419,0,0,1-.6.521,1.53,1.53,0,0,1,.8.521,1.424,1.424,0,0,1,.278.864,1.754,1.754,0,0,1-.168.746,1.425,1.425,0,0,1-.418.534,1.709,1.709,0,0,1-.627.284A3.917,3.917,0,0,1,2.765,0Zm.755-3.317H2.577A2.578,2.578,0,0,0,3.3-3.382a.778.778,0,0,0,.434-.284.845.845,0,0,0,.147-.5.958.958,0,0,0-.137-.5.714.714,0,0,0-.39-.3,3.428,3.428,0,0,0-.871-.081H1.342Zm0,2.643H2.765A3.2,3.2,0,0,0,3.279-.7a1.223,1.223,0,0,0,.437-.156.761.761,0,0,0,.29-.318.994.994,0,0,0,.112-.481.956.956,0,0,0-.165-.555A.876.876,0,0,0,3.5-2.543a2.86,2.86,0,0,0-.836-.1H1.342Zm0,0"/>
        </g>
        <g id="Grupo_768" data-name="Grupo 768" transform="translate(233.688 244.011)">
          <path id="Trazado_792" data-name="Trazado 792" d="M3.242,0V-.608a1.519,1.519,0,0,1-1.314.7,1.667,1.667,0,0,1-.686-.14A1.072,1.072,0,0,1,.771-.4,1.257,1.257,0,0,1,.555-.92a3.058,3.058,0,0,1-.044-.655V-4.144h.7v2.3a3.55,3.55,0,0,0,.044.739.7.7,0,0,0,.278.437.852.852,0,0,0,.534.156,1.107,1.107,0,0,0,.59-.162.9.9,0,0,0,.393-.44,2.3,2.3,0,0,0,.115-.808V-4.144h.7V0Zm0,0"/>
        </g>
        <g id="Grupo_769" data-name="Grupo 769" transform="translate(238.13 244.011)">
          <path id="Trazado_793" data-name="Trazado 793" d="M.512,0V-5.719h.7V0Zm0,0"/>
        </g>
        <g id="Grupo_770" data-name="Grupo 770" transform="translate(239.905 244.011)">
          <path id="Trazado_794" data-name="Trazado 794" d="M.512,0V-5.719h.7V0Zm0,0"/>
        </g>
        <g id="Grupo_771" data-name="Grupo 771" transform="translate(241.68 244.011)">
          <path id="Trazado_795" data-name="Trazado 795" d="M.246-1.236l.693-.109a.954.954,0,0,0,.325.64,1.112,1.112,0,0,0,.749.222,1.071,1.071,0,0,0,.718-.2.6.6,0,0,0,.234-.462.439.439,0,0,0-.206-.374,3.3,3.3,0,0,0-.718-.24A5.878,5.878,0,0,1,.967-2.091a1.007,1.007,0,0,1-.452-.4,1.007,1.007,0,0,1-.153-.555A1.006,1.006,0,0,1,.49-3.554a1.161,1.161,0,0,1,.346-.393,1.51,1.51,0,0,1,.443-.206,2.349,2.349,0,0,1,.608-.084,2.556,2.556,0,0,1,.855.14,1.2,1.2,0,0,1,.546.381,1.53,1.53,0,0,1,.24.643l-.686.094a.784.784,0,0,0-.271-.5.994.994,0,0,0-.633-.181,1.135,1.135,0,0,0-.69.162.457.457,0,0,0-.206.374.342.342,0,0,0,.084.243.529.529,0,0,0,.271.187,5.574,5.574,0,0,0,.618.181,8.928,8.928,0,0,1,1.039.328,1.045,1.045,0,0,1,.462.368,1.075,1.075,0,0,1,.168.6,1.223,1.223,0,0,1-.206.661,1.314,1.314,0,0,1-.59.481,2.171,2.171,0,0,1-.874.168A1.931,1.931,0,0,1,.786-.24,1.533,1.533,0,0,1,.246-1.236Zm0,0"/>
        </g>
      </g>
      <g id="Grupo_782" data-name="Grupo 782">
        <g id="Grupo_773" data-name="Grupo 773" transform="translate(273.27 244.011)">
          <path id="Trazado_796" data-name="Trazado 796" d="M4.368-5.719h.758v3.3a4.034,4.034,0,0,1-.2,1.37,1.651,1.651,0,0,1-.705.824A2.525,2.525,0,0,1,2.889.1,2.821,2.821,0,0,1,1.576-.178a1.55,1.55,0,0,1-.73-.8A3.81,3.81,0,0,1,.627-2.415v-3.3h.758v3.3a3.177,3.177,0,0,0,.137,1.1A1.016,1.016,0,0,0,2-.777a1.594,1.594,0,0,0,.824.19A1.562,1.562,0,0,0,4.013-.964a2.2,2.2,0,0,0,.356-1.454Zm0,0"/>
        </g>
        <g id="Grupo_774" data-name="Grupo 774" transform="translate(279.039 244.011)">
          <path id="Trazado_797" data-name="Trazado 797" d="M2.059-.627l.1.618a2.525,2.525,0,0,1-.53.066,1.189,1.189,0,0,1-.6-.122.661.661,0,0,1-.3-.318,2.552,2.552,0,0,1-.084-.83V-3.6H.14v-.546H.655V-5.167l.7-.421v1.445h.705V-3.6H1.354v2.424a1.04,1.04,0,0,0,.037.387.261.261,0,0,0,.119.134.4.4,0,0,0,.24.05A1.779,1.779,0,0,0,2.059-.627Zm0,0"/>
        </g>
        <g id="Grupo_775" data-name="Grupo 775" transform="translate(281.258 244.011)">
          <path id="Trazado_798" data-name="Trazado 798" d="M3.229-.512a2.534,2.534,0,0,1-.752.468A2.127,2.127,0,0,1,1.7.094,1.49,1.49,0,0,1,.655-.24,1.091,1.091,0,0,1,.29-1.092a1.128,1.128,0,0,1,.137-.555,1.05,1.05,0,0,1,.362-.4,1.788,1.788,0,0,1,.505-.231,5.28,5.28,0,0,1,.624-.106A6.454,6.454,0,0,0,3.17-2.63c0-.094,0-.153.006-.181a.8.8,0,0,0-.2-.605,1.214,1.214,0,0,0-.8-.237,1.286,1.286,0,0,0-.733.175,1.062,1.062,0,0,0-.349.612L.409-2.961a1.655,1.655,0,0,1,.309-.711,1.375,1.375,0,0,1,.621-.418,2.84,2.84,0,0,1,.939-.147,2.62,2.62,0,0,1,.861.125,1.179,1.179,0,0,1,.49.315,1.246,1.246,0,0,1,.218.477,4.741,4.741,0,0,1,.034.649v.936A9.2,9.2,0,0,0,3.925-.5,1.435,1.435,0,0,0,4.1,0H3.37A1.369,1.369,0,0,1,3.229-.512ZM3.17-2.078a4.831,4.831,0,0,1-1.145.265,2.884,2.884,0,0,0-.615.14.626.626,0,0,0-.275.228.611.611,0,0,0-.1.334.583.583,0,0,0,.212.468.871.871,0,0,0,.621.187,1.389,1.389,0,0,0,.721-.178,1.063,1.063,0,0,0,.465-.487,1.8,1.8,0,0,0,.112-.7Zm0,0"/>
        </g>
        <g id="Grupo_776" data-name="Grupo 776" transform="translate(285.701 244.011)">
          <path id="Trazado_799" data-name="Trazado 799" d="M.527,0V-5.719h.7v2.053a1.574,1.574,0,0,1,1.239-.571,1.7,1.7,0,0,1,.8.184,1.1,1.1,0,0,1,.487.5,2.39,2.39,0,0,1,.147.927V0H3.2V-2.624a1.121,1.121,0,0,0-.228-.768.854.854,0,0,0-.646-.24,1.146,1.146,0,0,0-.587.162.92.92,0,0,0-.393.44,1.912,1.912,0,0,0-.115.764V0Zm0,0"/>
        </g>
        <g id="Grupo_777" data-name="Grupo 777" transform="translate(290.143 244.011)">
          <path id="Trazado_800" data-name="Trazado 800"/>
        </g>
        <g id="Grupo_778" data-name="Grupo 778" transform="translate(292.362 244.011)">
          <path id="Trazado_801" data-name="Trazado 801" d="M.231-1.623l.683-.094a1.394,1.394,0,0,0,.243.9.755.755,0,0,0,.605.24.855.855,0,0,0,.49-.131.661.661,0,0,0,.287-.356,2.529,2.529,0,0,0,.078-.715V-5.719h.755v3.9A2.965,2.965,0,0,1,3.2-.708a1.224,1.224,0,0,1-.549.6A1.845,1.845,0,0,1,1.766.1,1.492,1.492,0,0,1,.615-.334,1.768,1.768,0,0,1,.231-1.623Zm0,0"/>
        </g>
        <g id="Grupo_779" data-name="Grupo 779" transform="translate(296.356 244.011)">
          <path id="Trazado_802" data-name="Trazado 802" d="M3.229-.512a2.534,2.534,0,0,1-.752.468A2.127,2.127,0,0,1,1.7.094,1.49,1.49,0,0,1,.655-.24,1.091,1.091,0,0,1,.29-1.092a1.128,1.128,0,0,1,.137-.555,1.05,1.05,0,0,1,.362-.4,1.788,1.788,0,0,1,.505-.231,5.28,5.28,0,0,1,.624-.106A6.454,6.454,0,0,0,3.17-2.63c0-.094,0-.153.006-.181a.8.8,0,0,0-.2-.605,1.214,1.214,0,0,0-.8-.237,1.286,1.286,0,0,0-.733.175,1.062,1.062,0,0,0-.349.612L.409-2.961a1.655,1.655,0,0,1,.309-.711,1.375,1.375,0,0,1,.621-.418,2.84,2.84,0,0,1,.939-.147,2.62,2.62,0,0,1,.861.125,1.179,1.179,0,0,1,.49.315,1.246,1.246,0,0,1,.218.477,4.741,4.741,0,0,1,.034.649v.936A9.2,9.2,0,0,0,3.925-.5,1.435,1.435,0,0,0,4.1,0H3.37A1.369,1.369,0,0,1,3.229-.512ZM3.17-2.078a4.831,4.831,0,0,1-1.145.265,2.884,2.884,0,0,0-.615.14.626.626,0,0,0-.275.228.611.611,0,0,0-.1.334.583.583,0,0,0,.212.468.871.871,0,0,0,.621.187,1.389,1.389,0,0,0,.721-.178,1.063,1.063,0,0,0,.465-.487,1.8,1.8,0,0,0,.112-.7Zm0,0"/>
        </g>
        <g id="Grupo_780" data-name="Grupo 780" transform="translate(300.798 244.011)">
          <path id="Trazado_803" data-name="Trazado 803" d="M.156,0V-.571L2.793-3.6c-.3.019-.568.028-.793.025H.312v-.571H3.7v.465L1.454-1.048l-.431.477c.312-.022.605-.031.883-.034H3.822V0Zm0,0"/>
        </g>
        <g id="Grupo_781" data-name="Grupo 781" transform="translate(304.792 244.011)">
          <path id="Trazado_804" data-name="Trazado 804" d="M.156,0V-.571L2.793-3.6c-.3.019-.568.028-.793.025H.312v-.571H3.7v.465L1.454-1.048l-.431.477c.312-.022.605-.031.883-.034H3.822V0Zm0,0"/>
        </g>
      </g>
      <g id="Grupo_822" data-name="Grupo 822">
        <g id="Grupo_783" data-name="Grupo 783" transform="translate(83.385 17.174)">
          <path id="Trazado_805" data-name="Trazado 805" d="M4.708-1.869l1.014.128A2.506,2.506,0,0,1,4.833-.359a2.675,2.675,0,0,1-1.66.49A2.646,2.646,0,0,1,1.154-.652a3.027,3.027,0,0,1-.746-2.2,3.2,3.2,0,0,1,.752-2.272,2.571,2.571,0,0,1,1.956-.808,2.5,2.5,0,0,1,1.9.793,3.148,3.148,0,0,1,.739,2.228c0,.059,0,.147-.006.262H1.426a2.213,2.213,0,0,0,.54,1.463A1.582,1.582,0,0,0,3.18-.677,1.463,1.463,0,0,0,4.1-.961,1.864,1.864,0,0,0,4.708-1.869ZM1.479-3.457H4.718a2,2,0,0,0-.371-1.1A1.533,1.533,0,0,0,3.13-5.123a1.583,1.583,0,0,0-1.139.456A1.778,1.778,0,0,0,1.479-3.457Zm0,0"/>
        </g>
        <g id="Grupo_784" data-name="Grupo 784" transform="translate(89.605 17.174)">
          <path id="Trazado_806" data-name="Trazado 806" d="M4.434,2.222V-.618a1.774,1.774,0,0,1-.643.537,1.862,1.862,0,0,1-.874.212A2.308,2.308,0,0,1,1.139-.693,3.233,3.233,0,0,1,.393-2.955,3.864,3.864,0,0,1,.7-4.521a2.245,2.245,0,0,1,.88-1.052,2.388,2.388,0,0,1,1.264-.359,1.965,1.965,0,0,1,1.694.908V-5.8h.883V2.222ZM1.4-2.917a2.575,2.575,0,0,0,.468,1.682A1.407,1.407,0,0,0,3-.677a1.371,1.371,0,0,0,1.08-.53A2.491,2.491,0,0,0,4.534-2.83a2.726,2.726,0,0,0-.481-1.741,1.431,1.431,0,0,0-1.12-.583,1.374,1.374,0,0,0-1.086.543A2.664,2.664,0,0,0,1.4-2.917Zm0,0"/>
        </g>
        <g id="Grupo_785" data-name="Grupo 785" transform="translate(95.824 17.174)">
          <path id="Trazado_807" data-name="Trazado 807" d="M4.537,0V-.852A2.129,2.129,0,0,1,2.7.131a2.332,2.332,0,0,1-.961-.2A1.519,1.519,0,0,1,1.08-.559a1.762,1.762,0,0,1-.3-.73,4.376,4.376,0,0,1-.062-.917V-5.8H1.7v3.217A5.1,5.1,0,0,0,1.76-1.545a.993.993,0,0,0,.39.608A1.189,1.189,0,0,0,2.9-.715a1.554,1.554,0,0,0,.827-.228,1.271,1.271,0,0,0,.549-.618,3.155,3.155,0,0,0,.162-1.133V-5.8h.983V0Zm0,0"/>
        </g>
        <g id="Grupo_786" data-name="Grupo 786" transform="translate(102.043 17.174)">
          <path id="Trazado_808" data-name="Trazado 808" d="M.743-6.874V-8.006h.983v1.133ZM.743,0V-5.8h.983V0Zm0,0"/>
        </g>
        <g id="Grupo_787" data-name="Grupo 787" transform="translate(104.528 17.174)">
          <path id="Trazado_809" data-name="Trazado 809" d="M.736,2.222V-5.8h.9v.755a2.206,2.206,0,0,1,.715-.665,2,2,0,0,1,.967-.222,2.342,2.342,0,0,1,1.31.384,2.382,2.382,0,0,1,.858,1.08,4.051,4.051,0,0,1,.29,1.526,3.934,3.934,0,0,1-.321,1.6A2.442,2.442,0,0,1,4.524-.246,2.4,2.4,0,0,1,3.245.131a1.853,1.853,0,0,1-.883-.206A1.916,1.916,0,0,1,1.719-.6V2.222Zm.892-5.089a2.52,2.52,0,0,0,.452,1.657,1.365,1.365,0,0,0,1.1.534A1.406,1.406,0,0,0,4.3-1.229a2.662,2.662,0,0,0,.468-1.719,2.619,2.619,0,0,0-.456-1.66,1.394,1.394,0,0,0-1.089-.552,1.437,1.437,0,0,0-1.114.587A2.636,2.636,0,0,0,1.629-2.867Zm0,0"/>
        </g>
        <g id="Grupo_788" data-name="Grupo 788" transform="translate(110.748 17.174)">
          <path id="Trazado_810" data-name="Trazado 810" d="M.371-2.9a2.976,2.976,0,0,1,.9-2.387,2.718,2.718,0,0,1,1.825-.646,2.618,2.618,0,0,1,1.953.786A2.985,2.985,0,0,1,5.8-2.983,3.826,3.826,0,0,1,5.467-1.22a2.4,2.4,0,0,1-.977,1,2.848,2.848,0,0,1-1.4.356A2.606,2.606,0,0,1,1.12-.649,3.1,3.1,0,0,1,.371-2.9Zm1.011,0a2.447,2.447,0,0,0,.484,1.669,1.537,1.537,0,0,0,1.226.552,1.537,1.537,0,0,0,1.217-.555,2.554,2.554,0,0,0,.487-1.7,2.424,2.424,0,0,0-.49-1.629,1.575,1.575,0,0,0-1.214-.555,1.576,1.576,0,0,0-1.226.552A2.454,2.454,0,0,0,1.382-2.9Zm0,0"/>
        </g>
        <g id="Grupo_789" data-name="Grupo 789" transform="translate(116.967 17.174)">
          <path id="Trazado_811" data-name="Trazado 811" d="M.343-1.732l.974-.153a1.32,1.32,0,0,0,.456.9,1.539,1.539,0,0,0,1.045.312,1.509,1.509,0,0,0,1-.275A.84.84,0,0,0,4.15-1.6a.611.611,0,0,0-.29-.524,4.342,4.342,0,0,0-1-.334,8.63,8.63,0,0,1-1.5-.471,1.4,1.4,0,0,1-.633-.552,1.4,1.4,0,0,1-.215-.777,1.441,1.441,0,0,1,.178-.718,1.569,1.569,0,0,1,.484-.549,2.087,2.087,0,0,1,.624-.287,3.081,3.081,0,0,1,.849-.119,3.519,3.519,0,0,1,1.2.2A1.683,1.683,0,0,1,4.6-5.2a2.149,2.149,0,0,1,.34.9l-.961.131a1.087,1.087,0,0,0-.381-.7,1.425,1.425,0,0,0-.886-.253,1.643,1.643,0,0,0-.967.225.645.645,0,0,0-.29.524.5.5,0,0,0,.122.343.77.77,0,0,0,.378.262c.1.041.384.125.867.253a12.464,12.464,0,0,1,1.454.456,1.485,1.485,0,0,1,.646.518,1.47,1.47,0,0,1,.237.839,1.713,1.713,0,0,1-.287.927,1.851,1.851,0,0,1-.827.671A3.012,3.012,0,0,1,2.824.131,2.724,2.724,0,0,1,1.1-.337,2.149,2.149,0,0,1,.343-1.732Zm0,0"/>
        </g>
        <g id="Grupo_790" data-name="Grupo 790" transform="translate(122.558 17.174)">
          <path id="Trazado_812" data-name="Trazado 812"/>
        </g>
        <g id="Grupo_791" data-name="Grupo 791" transform="translate(125.666 17.174)">
          <path id="Trazado_813" data-name="Trazado 813" d="M4.521-2.125,5.488-2A2.533,2.533,0,0,1,4.677-.434a2.364,2.364,0,0,1-1.6.565A2.483,2.483,0,0,1,1.161-.646,3.133,3.133,0,0,1,.437-2.877,3.976,3.976,0,0,1,.749-4.521a2.177,2.177,0,0,1,.945-1.058A2.857,2.857,0,0,1,3.08-5.932a2.422,2.422,0,0,1,1.545.481A2.226,2.226,0,0,1,5.395-4.1l-.955.15a1.648,1.648,0,0,0-.484-.88,1.293,1.293,0,0,0-.839-.3A1.543,1.543,0,0,0,1.91-4.59,2.528,2.528,0,0,0,1.448-2.9a2.583,2.583,0,0,0,.446,1.7,1.437,1.437,0,0,0,1.17.53,1.347,1.347,0,0,0,.964-.356A1.746,1.746,0,0,0,4.521-2.125Zm0,0"/>
        </g>
        <g id="Grupo_792" data-name="Grupo 792" transform="translate(131.257 17.174)">
          <path id="Trazado_814" data-name="Trazado 814" d="M.371-2.9a2.976,2.976,0,0,1,.9-2.387,2.718,2.718,0,0,1,1.825-.646,2.618,2.618,0,0,1,1.953.786A2.985,2.985,0,0,1,5.8-2.983,3.826,3.826,0,0,1,5.467-1.22a2.4,2.4,0,0,1-.977,1,2.848,2.848,0,0,1-1.4.356A2.606,2.606,0,0,1,1.12-.649,3.1,3.1,0,0,1,.371-2.9Zm1.011,0a2.447,2.447,0,0,0,.484,1.669,1.537,1.537,0,0,0,1.226.552,1.537,1.537,0,0,0,1.217-.555,2.554,2.554,0,0,0,.487-1.7,2.424,2.424,0,0,0-.49-1.629,1.575,1.575,0,0,0-1.214-.555,1.576,1.576,0,0,0-1.226.552A2.454,2.454,0,0,0,1.382-2.9Zm0,0"/>
        </g>
        <g id="Grupo_793" data-name="Grupo 793" transform="translate(137.477 17.174)">
          <path id="Trazado_815" data-name="Trazado 815" d="M.736,0V-5.8h.886v.827a2.089,2.089,0,0,1,1.844-.958,2.518,2.518,0,0,1,.964.19,1.613,1.613,0,0,1,.658.493,1.961,1.961,0,0,1,.306.727,6.167,6.167,0,0,1,.056.955V0H4.468V-3.529a2.76,2.76,0,0,0-.115-.9A.99.99,0,0,0,3.944-4.9a1.358,1.358,0,0,0-.683-.178,1.609,1.609,0,0,0-1.086.4,1.958,1.958,0,0,0-.456,1.513V0Zm0,0"/>
        </g>
        <g id="Grupo_794" data-name="Grupo 794" transform="translate(143.696 17.174)">
          <path id="Trazado_816" data-name="Trazado 816"/>
        </g>
        <g id="Grupo_795" data-name="Grupo 795" transform="translate(146.803 17.174)">
          <path id="Trazado_817" data-name="Trazado 817" d="M.736,0V-5.8h.88v.814a2.1,2.1,0,0,1,.727-.683,2.072,2.072,0,0,1,1.033-.262,1.951,1.951,0,0,1,1.055.268,1.5,1.5,0,0,1,.583.749A2.085,2.085,0,0,1,6.805-5.932a1.784,1.784,0,0,1,1.326.481A2.079,2.079,0,0,1,8.6-3.981V0h-.98V-3.654a2.84,2.84,0,0,0-.1-.849.863.863,0,0,0-.346-.418,1.137,1.137,0,0,0-.587-.159,1.38,1.38,0,0,0-1.017.409,1.8,1.8,0,0,0-.4,1.3V0H4.184V-3.769a1.679,1.679,0,0,0-.24-.983.932.932,0,0,0-.786-.328,1.472,1.472,0,0,0-.768.218,1.221,1.221,0,0,0-.512.64,3.442,3.442,0,0,0-.159,1.214V0Zm0,0"/>
        </g>
        <g id="Grupo_796" data-name="Grupo 796" transform="translate(156.118 17.174)">
          <path id="Trazado_818" data-name="Trazado 818" d="M4.521-.715A3.738,3.738,0,0,1,3.47-.059a3.041,3.041,0,0,1-1.083.19A2.109,2.109,0,0,1,.917-.334a1.523,1.523,0,0,1-.512-1.2A1.528,1.528,0,0,1,.6-2.306,1.608,1.608,0,0,1,1.1-2.871,2.453,2.453,0,0,1,1.813-3.2a8.489,8.489,0,0,1,.874-.147,8.721,8.721,0,0,0,1.754-.34c0-.131.006-.215.006-.256a1.086,1.086,0,0,0-.281-.846,1.658,1.658,0,0,0-1.117-.334,1.775,1.775,0,0,0-1.027.243,1.52,1.52,0,0,0-.487.861L.574-4.144a2.318,2.318,0,0,1,.431-1,1.893,1.893,0,0,1,.867-.587,4,4,0,0,1,1.317-.206A3.61,3.61,0,0,1,4.4-5.757a1.683,1.683,0,0,1,.683.44,1.6,1.6,0,0,1,.306.671,6.755,6.755,0,0,1,.047.9v1.31A12.941,12.941,0,0,0,5.495-.7a2.191,2.191,0,0,0,.25.7H4.718A2.018,2.018,0,0,1,4.521-.715Zm-.081-2.2a7.113,7.113,0,0,1-1.607.371,3.829,3.829,0,0,0-.858.2.843.843,0,0,0-.387.321.794.794,0,0,0-.134.465.814.814,0,0,0,.3.655,1.242,1.242,0,0,0,.871.262A1.974,1.974,0,0,0,3.632-.886a1.518,1.518,0,0,0,.649-.68,2.467,2.467,0,0,0,.159-.983Zm0,0"/>
        </g>
        <g id="Grupo_797" data-name="Grupo 797" transform="translate(162.338 17.174)">
          <path id="Trazado_819" data-name="Trazado 819" d="M.343-1.732l.974-.153a1.32,1.32,0,0,0,.456.9,1.539,1.539,0,0,0,1.045.312,1.509,1.509,0,0,0,1-.275A.84.84,0,0,0,4.15-1.6a.611.611,0,0,0-.29-.524,4.342,4.342,0,0,0-1-.334,8.63,8.63,0,0,1-1.5-.471,1.4,1.4,0,0,1-.633-.552,1.4,1.4,0,0,1-.215-.777,1.441,1.441,0,0,1,.178-.718,1.569,1.569,0,0,1,.484-.549,2.087,2.087,0,0,1,.624-.287,3.081,3.081,0,0,1,.849-.119,3.519,3.519,0,0,1,1.2.2A1.683,1.683,0,0,1,4.6-5.2a2.149,2.149,0,0,1,.34.9l-.961.131a1.087,1.087,0,0,0-.381-.7,1.425,1.425,0,0,0-.886-.253,1.643,1.643,0,0,0-.967.225.645.645,0,0,0-.29.524.5.5,0,0,0,.122.343.77.77,0,0,0,.378.262c.1.041.384.125.867.253a12.464,12.464,0,0,1,1.454.456,1.485,1.485,0,0,1,.646.518,1.47,1.47,0,0,1,.237.839,1.713,1.713,0,0,1-.287.927,1.851,1.851,0,0,1-.827.671A3.012,3.012,0,0,1,2.824.131,2.724,2.724,0,0,1,1.1-.337,2.149,2.149,0,0,1,.343-1.732Zm0,0"/>
        </g>
        <g id="Grupo_798" data-name="Grupo 798" transform="translate(167.929 17.174)">
          <path id="Trazado_820" data-name="Trazado 820"/>
        </g>
        <g id="Grupo_799" data-name="Grupo 799" transform="translate(171.036 17.174)">
          <path id="Trazado_821" data-name="Trazado 821" d="M4.5,0V-.733A1.808,1.808,0,0,1,2.877.131,2.26,2.26,0,0,1,1.6-.25,2.485,2.485,0,0,1,.7-1.317,3.705,3.705,0,0,1,.384-2.9,4.1,4.1,0,0,1,.671-4.468a2.274,2.274,0,0,1,.867-1.086,2.349,2.349,0,0,1,1.295-.378,1.99,1.99,0,0,1,.933.222,2.068,2.068,0,0,1,.668.577V-8.006H5.41V0ZM1.392-2.9A2.482,2.482,0,0,0,1.86-1.229,1.4,1.4,0,0,0,2.97-.677a1.375,1.375,0,0,0,1.1-.527,2.462,2.462,0,0,0,.449-1.607,2.768,2.768,0,0,0-.459-1.747,1.431,1.431,0,0,0-1.13-.559,1.368,1.368,0,0,0-1.1.537A2.605,2.605,0,0,0,1.392-2.9Zm0,0"/>
        </g>
        <g id="Grupo_800" data-name="Grupo 800" transform="translate(177.256 17.174)">
          <path id="Trazado_822" data-name="Trazado 822" d="M4.708-1.869l1.014.128A2.506,2.506,0,0,1,4.833-.359a2.675,2.675,0,0,1-1.66.49A2.646,2.646,0,0,1,1.154-.652a3.027,3.027,0,0,1-.746-2.2,3.2,3.2,0,0,1,.752-2.272,2.571,2.571,0,0,1,1.956-.808,2.5,2.5,0,0,1,1.9.793,3.148,3.148,0,0,1,.739,2.228c0,.059,0,.147-.006.262H1.426a2.213,2.213,0,0,0,.54,1.463A1.582,1.582,0,0,0,3.18-.677,1.463,1.463,0,0,0,4.1-.961,1.864,1.864,0,0,0,4.708-1.869ZM1.479-3.457H4.718a2,2,0,0,0-.371-1.1A1.533,1.533,0,0,0,3.13-5.123a1.583,1.583,0,0,0-1.139.456A1.778,1.778,0,0,0,1.479-3.457Zm0,0"/>
        </g>
        <g id="Grupo_801" data-name="Grupo 801" transform="translate(183.476 17.174)">
          <path id="Trazado_823" data-name="Trazado 823"/>
        </g>
        <g id="Grupo_802" data-name="Grupo 802" transform="translate(186.582 17.174)">
          <path id="Trazado_824" data-name="Trazado 824" d="M.471-2.112l.983-.131a2.118,2.118,0,0,0,.574,1.2,1.4,1.4,0,0,0,.992.368,1.58,1.58,0,0,0,1.17-.481,1.64,1.64,0,0,0,.477-1.192A1.537,1.537,0,0,0,4.225-3.46,1.556,1.556,0,0,0,3.1-3.9a3,3,0,0,0-.693.109l.109-.861q.094.009.159.009a2.027,2.027,0,0,0,1.13-.328,1.132,1.132,0,0,0,.5-1.008,1.214,1.214,0,0,0-.368-.9A1.321,1.321,0,0,0,3-7.23a1.372,1.372,0,0,0-.958.362,1.791,1.791,0,0,0-.49,1.08L.568-5.963a2.535,2.535,0,0,1,.818-1.532,2.4,2.4,0,0,1,1.591-.543,2.693,2.693,0,0,1,1.2.281,2.106,2.106,0,0,1,.846.768A2.032,2.032,0,0,1,5.32-5.957a1.731,1.731,0,0,1-.281.945,1.9,1.9,0,0,1-.824.674,1.9,1.9,0,0,1,1.1.683,2.116,2.116,0,0,1,.393,1.289A2.383,2.383,0,0,1,4.949-.587a2.7,2.7,0,0,1-1.935.73,2.523,2.523,0,0,1-1.75-.627A2.409,2.409,0,0,1,.471-2.112Zm0,0"/>
        </g>
        <g id="Grupo_803" data-name="Grupo 803" transform="translate(192.802 17.174)">
          <path id="Trazado_825" data-name="Trazado 825" d="M4.166,0H3.183V-6.262a5.206,5.206,0,0,1-.93.677,6.211,6.211,0,0,1-1.036.505v-.949a5.777,5.777,0,0,0,1.442-.939,3.615,3.615,0,0,0,.874-1.07h.633Zm0,0"/>
        </g>
        <g id="Grupo_804" data-name="Grupo 804" transform="translate(199.022 17.174)">
          <path id="Trazado_826" data-name="Trazado 826"/>
        </g>
        <g id="Grupo_805" data-name="Grupo 805" transform="translate(202.128 17.174)">
          <path id="Trazado_827" data-name="Trazado 827" d="M2.35,0,.144-5.8H1.179L2.424-2.328c.134.381.256.771.371,1.17q.126-.454.365-1.1L4.449-5.8H5.46L3.267,0Zm0,0"/>
        </g>
        <g id="Grupo_806" data-name="Grupo 806" transform="translate(207.72 17.174)">
          <path id="Trazado_828" data-name="Trazado 828" d="M.743-6.874V-8.006h.983v1.133ZM.743,0V-5.8h.983V0Zm0,0"/>
        </g>
        <g id="Grupo_807" data-name="Grupo 807" transform="translate(210.205 17.174)">
          <path id="Trazado_829" data-name="Trazado 829" d="M4.521-2.125,5.488-2A2.533,2.533,0,0,1,4.677-.434a2.364,2.364,0,0,1-1.6.565A2.483,2.483,0,0,1,1.161-.646,3.133,3.133,0,0,1,.437-2.877,3.976,3.976,0,0,1,.749-4.521a2.177,2.177,0,0,1,.945-1.058A2.857,2.857,0,0,1,3.08-5.932a2.422,2.422,0,0,1,1.545.481A2.226,2.226,0,0,1,5.395-4.1l-.955.15a1.648,1.648,0,0,0-.484-.88,1.293,1.293,0,0,0-.839-.3A1.543,1.543,0,0,0,1.91-4.59,2.528,2.528,0,0,0,1.448-2.9a2.583,2.583,0,0,0,.446,1.7,1.437,1.437,0,0,0,1.17.53,1.347,1.347,0,0,0,.964-.356A1.746,1.746,0,0,0,4.521-2.125Zm0,0"/>
        </g>
        <g id="Grupo_808" data-name="Grupo 808" transform="translate(215.796 17.174)">
          <path id="Trazado_830" data-name="Trazado 830" d="M2.883-.88l.144.867a3.833,3.833,0,0,1-.743.09A1.731,1.731,0,0,1,1.451-.09a.936.936,0,0,1-.415-.446A3.507,3.507,0,0,1,.917-1.7V-5.036H.2V-5.8H.917V-7.236l.977-.59V-5.8h.989v.764H1.894v3.392a1.53,1.53,0,0,0,.053.543.4.4,0,0,0,.168.19.663.663,0,0,0,.337.069A3.331,3.331,0,0,0,2.883-.88Zm0,0"/>
        </g>
        <g id="Grupo_809" data-name="Grupo 809" transform="translate(218.903 17.174)">
          <path id="Trazado_831" data-name="Trazado 831" d="M.371-2.9a2.976,2.976,0,0,1,.9-2.387,2.718,2.718,0,0,1,1.825-.646,2.618,2.618,0,0,1,1.953.786A2.985,2.985,0,0,1,5.8-2.983,3.826,3.826,0,0,1,5.467-1.22a2.4,2.4,0,0,1-.977,1,2.848,2.848,0,0,1-1.4.356A2.606,2.606,0,0,1,1.12-.649,3.1,3.1,0,0,1,.371-2.9Zm1.011,0a2.447,2.447,0,0,0,.484,1.669,1.537,1.537,0,0,0,1.226.552,1.537,1.537,0,0,0,1.217-.555,2.554,2.554,0,0,0,.487-1.7,2.424,2.424,0,0,0-.49-1.629,1.575,1.575,0,0,0-1.214-.555,1.576,1.576,0,0,0-1.226.552A2.454,2.454,0,0,0,1.382-2.9Zm0,0"/>
        </g>
        <g id="Grupo_810" data-name="Grupo 810" transform="translate(225.123 17.174)">
          <path id="Trazado_832" data-name="Trazado 832" d="M.727,0V-5.8H1.61v.88a2.421,2.421,0,0,1,.627-.814,1.132,1.132,0,0,1,.63-.2,1.992,1.992,0,0,1,1.011.318l-.34.911a1.42,1.42,0,0,0-.721-.212.948.948,0,0,0-.58.193,1.05,1.05,0,0,0-.365.537A3.742,3.742,0,0,0,1.71-3.036V0Zm0,0"/>
        </g>
        <g id="Grupo_811" data-name="Grupo 811" transform="translate(228.847 17.174)">
          <path id="Trazado_833" data-name="Trazado 833" d="M.743-6.874V-8.006h.983v1.133ZM.743,0V-5.8h.983V0Zm0,0"/>
        </g>
        <g id="Grupo_812" data-name="Grupo 812" transform="translate(231.331 17.174)">
          <path id="Trazado_834" data-name="Trazado 834" d="M4.521-.715A3.738,3.738,0,0,1,3.47-.059a3.041,3.041,0,0,1-1.083.19A2.109,2.109,0,0,1,.917-.334a1.523,1.523,0,0,1-.512-1.2A1.528,1.528,0,0,1,.6-2.306,1.608,1.608,0,0,1,1.1-2.871,2.453,2.453,0,0,1,1.813-3.2a8.489,8.489,0,0,1,.874-.147,8.721,8.721,0,0,0,1.754-.34c0-.131.006-.215.006-.256a1.086,1.086,0,0,0-.281-.846,1.658,1.658,0,0,0-1.117-.334,1.775,1.775,0,0,0-1.027.243,1.52,1.52,0,0,0-.487.861L.574-4.144a2.318,2.318,0,0,1,.431-1,1.893,1.893,0,0,1,.867-.587,4,4,0,0,1,1.317-.206A3.61,3.61,0,0,1,4.4-5.757a1.683,1.683,0,0,1,.683.44,1.6,1.6,0,0,1,.306.671,6.755,6.755,0,0,1,.047.9v1.31A12.941,12.941,0,0,0,5.495-.7a2.191,2.191,0,0,0,.25.7H4.718A2.018,2.018,0,0,1,4.521-.715Zm-.081-2.2a7.113,7.113,0,0,1-1.607.371,3.829,3.829,0,0,0-.858.2.843.843,0,0,0-.387.321.794.794,0,0,0-.134.465.814.814,0,0,0,.3.655,1.242,1.242,0,0,0,.871.262A1.974,1.974,0,0,0,3.632-.886a1.518,1.518,0,0,0,.649-.68,2.467,2.467,0,0,0,.159-.983Zm0,0"/>
        </g>
        <g id="Grupo_813" data-name="Grupo 813" transform="translate(237.55 17.174)">
          <path id="Trazado_835" data-name="Trazado 835" d="M.343-1.732l.974-.153a1.32,1.32,0,0,0,.456.9,1.539,1.539,0,0,0,1.045.312,1.509,1.509,0,0,0,1-.275A.84.84,0,0,0,4.15-1.6a.611.611,0,0,0-.29-.524,4.342,4.342,0,0,0-1-.334,8.63,8.63,0,0,1-1.5-.471,1.4,1.4,0,0,1-.633-.552,1.4,1.4,0,0,1-.215-.777,1.441,1.441,0,0,1,.178-.718,1.569,1.569,0,0,1,.484-.549,2.087,2.087,0,0,1,.624-.287,3.081,3.081,0,0,1,.849-.119,3.519,3.519,0,0,1,1.2.2A1.683,1.683,0,0,1,4.6-5.2a2.149,2.149,0,0,1,.34.9l-.961.131a1.087,1.087,0,0,0-.381-.7,1.425,1.425,0,0,0-.886-.253,1.643,1.643,0,0,0-.967.225.645.645,0,0,0-.29.524.5.5,0,0,0,.122.343.77.77,0,0,0,.378.262c.1.041.384.125.867.253a12.464,12.464,0,0,1,1.454.456,1.485,1.485,0,0,1,.646.518,1.47,1.47,0,0,1,.237.839,1.713,1.713,0,0,1-.287.927,1.851,1.851,0,0,1-.827.671A3.012,3.012,0,0,1,2.824.131,2.724,2.724,0,0,1,1.1-.337,2.149,2.149,0,0,1,.343-1.732Zm0,0"/>
        </g>
        <g id="Grupo_814" data-name="Grupo 814" transform="translate(243.142 17.174)">
          <path id="Trazado_836" data-name="Trazado 836"/>
        </g>
        <g id="Grupo_815" data-name="Grupo 815" transform="translate(246.249 17.174)">
          <path id="Trazado_837" data-name="Trazado 837" d="M4.708-1.869l1.014.128A2.506,2.506,0,0,1,4.833-.359a2.675,2.675,0,0,1-1.66.49A2.646,2.646,0,0,1,1.154-.652a3.027,3.027,0,0,1-.746-2.2,3.2,3.2,0,0,1,.752-2.272,2.571,2.571,0,0,1,1.956-.808,2.5,2.5,0,0,1,1.9.793,3.148,3.148,0,0,1,.739,2.228c0,.059,0,.147-.006.262H1.426a2.213,2.213,0,0,0,.54,1.463A1.582,1.582,0,0,0,3.18-.677,1.463,1.463,0,0,0,4.1-.961,1.864,1.864,0,0,0,4.708-1.869ZM1.479-3.457H4.718a2,2,0,0,0-.371-1.1A1.533,1.533,0,0,0,3.13-5.123a1.583,1.583,0,0,0-1.139.456A1.778,1.778,0,0,0,1.479-3.457Zm0,0"/>
        </g>
        <g id="Grupo_816" data-name="Grupo 816" transform="translate(252.468 17.174)">
          <path id="Trazado_838" data-name="Trazado 838" d="M.736,0V-5.8h.886v.827a2.089,2.089,0,0,1,1.844-.958,2.518,2.518,0,0,1,.964.19,1.613,1.613,0,0,1,.658.493,1.961,1.961,0,0,1,.306.727,6.167,6.167,0,0,1,.056.955V0H4.468V-3.529a2.76,2.76,0,0,0-.115-.9A.99.99,0,0,0,3.944-4.9a1.358,1.358,0,0,0-.683-.178,1.609,1.609,0,0,0-1.086.4,1.958,1.958,0,0,0-.456,1.513V0Zm0,0"/>
        </g>
        <g id="Grupo_817" data-name="Grupo 817" transform="translate(258.688 17.174)">
          <path id="Trazado_839" data-name="Trazado 839"/>
        </g>
        <g id="Grupo_818" data-name="Grupo 818" transform="translate(261.795 17.174)">
          <path id="Trazado_840" data-name="Trazado 840" d="M4.166,0H3.183V-6.262a5.206,5.206,0,0,1-.93.677,6.211,6.211,0,0,1-1.036.505v-.949a5.777,5.777,0,0,0,1.442-.939,3.615,3.615,0,0,0,.874-1.07h.633Zm0,0"/>
        </g>
        <g id="Grupo_819" data-name="Grupo 819" transform="translate(268.015 17.174)">
          <path id="Trazado_841" data-name="Trazado 841" d="M.612-1.85l.945-.087a1.638,1.638,0,0,0,.456.967,1.232,1.232,0,0,0,.871.3,1.459,1.459,0,0,0,.793-.206,1.767,1.767,0,0,0,.562-.555A3.347,3.347,0,0,0,4.6-2.371a5.129,5.129,0,0,0,.15-1.2c0-.041,0-.106-.006-.2A2.264,2.264,0,0,1,3.938-3a2.214,2.214,0,0,1-1.1.29,2.233,2.233,0,0,1-1.682-.721,2.624,2.624,0,0,1-.686-1.9A2.681,2.681,0,0,1,1.183-7.3a2.414,2.414,0,0,1,1.8-.743,2.612,2.612,0,0,1,1.426.421,2.642,2.642,0,0,1,.983,1.2,5.9,5.9,0,0,1,.337,2.253,7.294,7.294,0,0,1-.334,2.443A2.907,2.907,0,0,1,4.4-.337,2.6,2.6,0,0,1,2.861.137,2.253,2.253,0,0,1,1.326-.384,2.225,2.225,0,0,1,.612-1.85ZM4.637-5.386a1.949,1.949,0,0,0-.452-1.342,1.432,1.432,0,0,0-1.083-.5,1.5,1.5,0,0,0-1.142.537A1.97,1.97,0,0,0,1.476-5.3a1.684,1.684,0,0,0,.459,1.242,1.5,1.5,0,0,0,1.139.477A1.448,1.448,0,0,0,4.2-4.059,1.9,1.9,0,0,0,4.637-5.386Zm0,0"/>
        </g>
        <g id="Grupo_820" data-name="Grupo 820" transform="translate(274.234 17.174)">
          <path id="Trazado_842" data-name="Trazado 842" d="M.612-1.85l.945-.087a1.638,1.638,0,0,0,.456.967,1.232,1.232,0,0,0,.871.3,1.459,1.459,0,0,0,.793-.206,1.767,1.767,0,0,0,.562-.555A3.347,3.347,0,0,0,4.6-2.371a5.129,5.129,0,0,0,.15-1.2c0-.041,0-.106-.006-.2A2.264,2.264,0,0,1,3.938-3a2.214,2.214,0,0,1-1.1.29,2.233,2.233,0,0,1-1.682-.721,2.624,2.624,0,0,1-.686-1.9A2.681,2.681,0,0,1,1.183-7.3a2.414,2.414,0,0,1,1.8-.743,2.612,2.612,0,0,1,1.426.421,2.642,2.642,0,0,1,.983,1.2,5.9,5.9,0,0,1,.337,2.253,7.294,7.294,0,0,1-.334,2.443A2.907,2.907,0,0,1,4.4-.337,2.6,2.6,0,0,1,2.861.137,2.253,2.253,0,0,1,1.326-.384,2.225,2.225,0,0,1,.612-1.85ZM4.637-5.386a1.949,1.949,0,0,0-.452-1.342,1.432,1.432,0,0,0-1.083-.5,1.5,1.5,0,0,0-1.142.537A1.97,1.97,0,0,0,1.476-5.3a1.684,1.684,0,0,0,.459,1.242,1.5,1.5,0,0,0,1.139.477A1.448,1.448,0,0,0,4.2-4.059,1.9,1.9,0,0,0,4.637-5.386Zm0,0"/>
        </g>
        <g id="Grupo_821" data-name="Grupo 821" transform="translate(280.453 17.174)">
          <path id="Trazado_843" data-name="Trazado 843" d="M5.563-6.044l-.977.075a1.9,1.9,0,0,0-.371-.839,1.33,1.33,0,0,0-.983-.421,1.379,1.379,0,0,0-.824.262,2.248,2.248,0,0,0-.733.989A5.173,5.173,0,0,0,1.4-4.128a2.284,2.284,0,0,1,.867-.8,2.424,2.424,0,0,1,1.076-.262,2.246,2.246,0,0,1,1.672.724A2.624,2.624,0,0,1,5.707-2.6a3.124,3.124,0,0,1-.325,1.4,2.424,2.424,0,0,1-.892.992A2.486,2.486,0,0,1,3.2.137,2.529,2.529,0,0,1,1.2-.768a4.556,4.556,0,0,1-.774-2.98A5.328,5.328,0,0,1,1.279-7.12a2.465,2.465,0,0,1,2.013-.917,2.283,2.283,0,0,1,1.548.53A2.255,2.255,0,0,1,5.563-6.044ZM1.551-2.593a2.191,2.191,0,0,0,.215.97,1.556,1.556,0,0,0,.6.708,1.459,1.459,0,0,0,.814.243,1.372,1.372,0,0,0,1.07-.5A2,2,0,0,0,4.7-2.54a1.873,1.873,0,0,0-.443-1.307,1.459,1.459,0,0,0-1.114-.477,1.516,1.516,0,0,0-1.13.477A1.7,1.7,0,0,0,1.551-2.593Zm0,0"/>
        </g>
      </g>
    </g>
  </g>
</svg>
