<svg xmlns="http://www.w3.org/2000/svg" xmlns:xlink="http://www.w3.org/1999/xlink" width="604" height="461" viewBox="0 0 604 461">
  <defs>
    <clipPath id="clip-path">
      <rect id="Rect치ngulo_11" data-name="Rect치ngulo 11" width="604" height="461" transform="translate(610 53)" fill="#fff" stroke="#707070" stroke-width="1"/>
    </clipPath>
    <clipPath id="clip-path-2">
      <path id="Trazado_649" data-name="Trazado 649" d="M279.662,48.419h86.3V94.668h-86.3Zm0,0" transform="translate(-279.662 -48.419)"/>
    </clipPath>
    <clipPath id="clip-path-3">
      <path id="Trazado_651" data-name="Trazado 651" d="M278.841,48.419h87.694V96.071H278.841Zm0,0" transform="translate(-278.841 -48.419)"/>
    </clipPath>
  </defs>
  <g id="Enmascarar_grupo_4" data-name="Enmascarar grupo 4" transform="translate(-610 -53)" clip-path="url(#clip-path)">
    <g id="surface1" transform="translate(609.361 53)">
      <rect id="Rect치ngulo_12" data-name="Rect치ngulo 12" width="605.504" height="460.225" fill="#fff"/>
      <path id="Trazado_545" data-name="Trazado 545" d="M332.395,170.811l-.054-3.234-.152-3.234-.256-3.222-.358-3.217-.458-3.2-.56-3.184-.658-3.168-.76-3.14-.855-3.119-.956-3.085-1.055-3.059-1.147-3.02-1.246-2.982L322.543,127l-1.43-2.893-1.517-2.851-1.609-2.8-1.7-2.746-1.783-2.691-1.871-2.631-1.946-2.571-2.028-2.5-2.11-2.439-2.18-2.374-2.256-2.3-2.333-2.225-2.4-2.148-2.462-2.072-2.529-1.99-2.588-1.913-2.649-1.825-2.707-1.737-2.756-1.655-2.812-1.562L276.02,79.6l-2.9-1.376-2.941-1.288-2.984-1.189-3.023-1.1-3.051-.992-3.082-.9-3.111-.8-3.132-.7-3.153-.6-3.176-.493-3.181-.395-3.2-.291-3.2-.192-3.207-.082-3.214.016-3.2.121-3.2.219-3.192.329-3.181.428-3.171.526-3.149.63-3.121.735-3.1.828-3.072.932L198.022,75l-3.007,1.124-2.969,1.222-2.936,1.315-2.887,1.414-2.844,1.5-2.789,1.589-2.746,1.683-2.686,1.77-2.631,1.853-2.567,1.935-2.507,2.018-2.446,2.1L162.63,96.7l-2.3,2.253L158.1,101.28l-2.159,2.39-2.082,2.467-2,2.527-1.925,2.587-1.837,2.652-1.757,2.708-1.669,2.763-1.581,2.816-1.491,2.867-1.4,2.911-1.3,2.954-1.212,2.993-1.121,3.031-1.022,3.07-.924,3.1-.827,3.129-.724,3.146-.625,3.174-.528,3.195-.425,3.206-.326,3.217-.223,3.229-.12,3.229-.017,3.24.088,3.233.185,3.229.288,3.223.391,3.206.489,3.2.593,3.179.7,3.157.789,3.135.891,3.108.99,3.081,1.083,3.041,1.179,3.01,1.272,2.97,1.371,2.927,1.457,2.878,1.549,2.833,1.641,2.78,1.725,2.729,1.811,2.67,1.892,2.614,1.979,2.548,2.055,2.484,2.133,2.416,2.208,2.352,2.277,2.274,2.355,2.2,2.419,2.12,2.485,2.05,2.55,1.963,2.61,1.884,2.664,1.8,2.724,1.709,2.778,1.623,2.828,1.534,2.87,1.442,2.915,1.348,2.958,1.254,3,1.158,3.034,1.062,3.061.965,28.513-97.457Zm0,0" transform="translate(91.202 49.2)" fill="#0890ac" stroke="#2ecc71" stroke-linecap="round" stroke-linejoin="round" stroke-miterlimit="10" stroke-width="0.615"/>
      <path id="Trazado_546" data-name="Trazado 546" d="M155.865,82.724l-3.018-4.072" transform="translate(106.575 55.911)" fill="none" stroke="#000" stroke-linecap="round" stroke-linejoin="round" stroke-miterlimit="10" stroke-width="0.615"/>
      <g id="Grupo_548" data-name="Grupo 548" transform="translate(183.707 114.157)">
        <g id="Grupo_533" data-name="Grupo 533" transform="translate(0 3.327)">
          <path id="Trazado_547" data-name="Trazado 547" d="M.611,4.433l1.43.214a1.375,1.375,0,0,0,.495.97,2.428,2.428,0,0,0,1.5.411A2.608,2.608,0,0,0,5.6,5.617a2.024,2.024,0,0,0,.75-1.151,9.568,9.568,0,0,0,.1-1.9A3,3,0,0,1,4.064,3.71,3.258,3.258,0,0,1,1.3,2.411,5.026,5.026,0,0,1,.317-.708a5.847,5.847,0,0,1,.446-2.3,3.621,3.621,0,0,1,1.3-1.633,3.482,3.482,0,0,1,2-.575A3.1,3.1,0,0,1,6.6-3.969V-5.021H7.951V2.526a7.256,7.256,0,0,1-.413,2.888,3.124,3.124,0,0,1-1.3,1.343,4.62,4.62,0,0,1-2.2.493,4.224,4.224,0,0,1-2.507-.7A2.384,2.384,0,0,1,.611,4.433ZM1.823-.812a3.73,3.73,0,0,0,.68,2.5,2.11,2.11,0,0,0,1.7.789A2.136,2.136,0,0,0,5.9,1.7,3.676,3.676,0,0,0,6.581-.763,3.635,3.635,0,0,0,5.874-3.18,2.2,2.2,0,0,0,4.172-4a2.126,2.126,0,0,0-1.664.806A3.522,3.522,0,0,0,1.823-.812Zm0,0" transform="translate(-0.317 5.219)"/>
        </g>
        <g id="Grupo_534" data-name="Grupo 534" transform="translate(9.355 3.327)">
          <path id="Trazado_548" data-name="Trazado 548" d="M6.505,2.636a5.5,5.5,0,0,1-1.571.987,4.556,4.556,0,0,1-1.615.285,3.118,3.118,0,0,1-2.2-.7,2.312,2.312,0,0,1-.767-1.8A2.351,2.351,0,0,1,.644.24a2.449,2.449,0,0,1,.761-.855A3.659,3.659,0,0,1,2.46-1.1c.288-.066.723-.143,1.3-.219a13.447,13.447,0,0,0,2.621-.51c0-.2.005-.323.005-.389a1.659,1.659,0,0,0-.419-1.272A2.464,2.464,0,0,0,4.3-4a2.634,2.634,0,0,0-1.533.367,2.242,2.242,0,0,0-.723,1.3l-1.435-.2a3.551,3.551,0,0,1,.642-1.5,2.836,2.836,0,0,1,1.294-.877,5.647,5.647,0,0,1,1.968-.312,5.148,5.148,0,0,1,1.8.263,2.411,2.411,0,0,1,1.022.663,2.357,2.357,0,0,1,.457,1.008,10.013,10.013,0,0,1,.071,1.359V.049a19.6,19.6,0,0,0,.092,2.614A3.356,3.356,0,0,0,8.332,3.71H6.8A3.141,3.141,0,0,1,6.505,2.636Zm-.12-3.31a10.39,10.39,0,0,1-2.4.559A6.118,6.118,0,0,0,2.7.18a1.343,1.343,0,0,0-.582.482,1.284,1.284,0,0,0-.2.7,1.254,1.254,0,0,0,.44.987,1.846,1.846,0,0,0,1.3.395,2.915,2.915,0,0,0,1.506-.373,2.279,2.279,0,0,0,.973-1.019,3.687,3.687,0,0,0,.239-1.48Zm0,0" transform="translate(-0.356 5.219)"/>
        </g>
        <g id="Grupo_535" data-name="Grupo 535" transform="translate(19.14 3.327)">
          <path id="Trazado_549" data-name="Trazado 549" d="M.647,3.71V-5.021H1.974v1.244A3.094,3.094,0,0,1,4.725-5.219a3.7,3.7,0,0,1,1.441.285,2.346,2.346,0,0,1,.984.74,2.918,2.918,0,0,1,.457,1.1,8.545,8.545,0,0,1,.082,1.436V3.71H6.22V-1.6a4.024,4.024,0,0,0-.174-1.354,1.441,1.441,0,0,0-.6-.713,1.962,1.962,0,0,0-1.022-.269,2.382,2.382,0,0,0-1.626.6,2.937,2.937,0,0,0-.68,2.275V3.71Zm0,0" transform="translate(-0.647 5.219)"/>
        </g>
        <g id="Grupo_536" data-name="Grupo 536" transform="translate(27.935 3.327)">
          <path id="Trazado_550" data-name="Trazado 550" d="M6.505,2.636a5.5,5.5,0,0,1-1.571.987,4.556,4.556,0,0,1-1.615.285,3.118,3.118,0,0,1-2.2-.7,2.312,2.312,0,0,1-.767-1.8A2.351,2.351,0,0,1,.644.24a2.449,2.449,0,0,1,.761-.855A3.659,3.659,0,0,1,2.46-1.1c.288-.066.723-.143,1.3-.219a13.447,13.447,0,0,0,2.621-.51c0-.2.005-.323.005-.389a1.659,1.659,0,0,0-.419-1.272A2.464,2.464,0,0,0,4.3-4a2.634,2.634,0,0,0-1.533.367,2.242,2.242,0,0,0-.723,1.3l-1.435-.2a3.551,3.551,0,0,1,.642-1.5,2.836,2.836,0,0,1,1.294-.877,5.647,5.647,0,0,1,1.968-.312,5.148,5.148,0,0,1,1.8.263,2.411,2.411,0,0,1,1.022.663,2.357,2.357,0,0,1,.457,1.008,10.013,10.013,0,0,1,.071,1.359V.049a19.6,19.6,0,0,0,.092,2.614A3.356,3.356,0,0,0,8.332,3.71H6.8A3.141,3.141,0,0,1,6.505,2.636Zm-.12-3.31a10.39,10.39,0,0,1-2.4.559A6.118,6.118,0,0,0,2.7.18a1.343,1.343,0,0,0-.582.482,1.284,1.284,0,0,0-.2.7,1.254,1.254,0,0,0,.44.987,1.846,1.846,0,0,0,1.3.395,2.915,2.915,0,0,0,1.506-.373,2.279,2.279,0,0,0,.973-1.019,3.687,3.687,0,0,0,.239-1.48Zm0,0" transform="translate(-0.356 5.219)"/>
        </g>
        <g id="Grupo_537" data-name="Grupo 537" transform="translate(37.191 0.203)">
          <path id="Trazado_551" data-name="Trazado 551" d="M6.486,5.008v-1.1a2.705,2.705,0,0,1-2.425,1.3,3.367,3.367,0,0,1-1.9-.576A3.689,3.689,0,0,1,.809,3.024,5.6,5.6,0,0,1,.336.651a6.269,6.269,0,0,1,.43-2.373,3.439,3.439,0,0,1,1.3-1.628A3.441,3.441,0,0,1,4-3.921a2.943,2.943,0,0,1,1.4.334,2.949,2.949,0,0,1,1,.866V-7.045H7.845V5.008ZM1.843.651a3.761,3.761,0,0,0,.7,2.51A2.1,2.1,0,0,0,4.2,3.988a2.052,2.052,0,0,0,1.631-.795A3.707,3.707,0,0,0,6.508.777,4.227,4.227,0,0,0,5.823-1.86,2.143,2.143,0,0,0,4.137-2.7,2.059,2.059,0,0,0,2.5-1.893,3.936,3.936,0,0,0,1.843.651Zm0,0" transform="translate(-0.336 7.045)"/>
        </g>
        <g id="Grupo_538" data-name="Grupo 538" transform="translate(46.465 3.327)">
          <path id="Trazado_552" data-name="Trazado 552" d="M.327-.653a4.526,4.526,0,0,1,1.338-3.6,4.011,4.011,0,0,1,2.724-.97,3.863,3.863,0,0,1,2.92,1.184A4.559,4.559,0,0,1,8.439-.779a6,6,0,0,1-.5,2.653,3.579,3.579,0,0,1-1.457,1.5,4.234,4.234,0,0,1-2.093.532A3.858,3.858,0,0,1,1.447,2.734,4.707,4.707,0,0,1,.327-.653Zm1.512,0a3.683,3.683,0,0,0,.723,2.51,2.294,2.294,0,0,0,1.827.833A2.3,2.3,0,0,0,6.2,1.852a3.826,3.826,0,0,0,.729-2.56A3.616,3.616,0,0,0,6.2-3.158,2.348,2.348,0,0,0,4.388-4a2.328,2.328,0,0,0-1.827.833A3.721,3.721,0,0,0,1.838-.653Zm0,0" transform="translate(-0.327 5.219)"/>
        </g>
        <g id="Grupo_539" data-name="Grupo 539" transform="translate(55.711 3.327)">
          <path id="Trazado_553" data-name="Trazado 553" d="M.3,1.1,1.758.871a2.016,2.016,0,0,0,.68,1.354A2.351,2.351,0,0,0,4,2.69a2.266,2.266,0,0,0,1.5-.417A1.236,1.236,0,0,0,5.989,1.3.916.916,0,0,0,5.554.509a6.657,6.657,0,0,0-1.5-.5A13.153,13.153,0,0,1,1.818-.7,2.106,2.106,0,0,1,.872-1.53,2.139,2.139,0,0,1,.551-2.7a2.2,2.2,0,0,1,.261-1.08,2.4,2.4,0,0,1,.723-.828,3.2,3.2,0,0,1,.935-.428,4.293,4.293,0,0,1,1.267-.181,4.98,4.98,0,0,1,1.789.3,2.431,2.431,0,0,1,1.136.806,3.244,3.244,0,0,1,.511,1.348l-1.435.2a1.625,1.625,0,0,0-.571-1.052A2.065,2.065,0,0,0,3.846-4a2.382,2.382,0,0,0-1.446.34.956.956,0,0,0-.435.784.74.74,0,0,0,.185.521,1.194,1.194,0,0,0,.56.395c.147.055.576.181,1.3.378A18.936,18.936,0,0,1,6.179-.9a2.316,2.316,0,0,1,.968.778A2.223,2.223,0,0,1,7.5,1.145a2.587,2.587,0,0,1-.43,1.4,2.723,2.723,0,0,1-1.24,1.008,4.414,4.414,0,0,1-1.822.356A4.043,4.043,0,0,1,1.432,3.2,3.277,3.277,0,0,1,.3,1.1Zm0,0" transform="translate(-0.301 5.219)"/>
        </g>
        <g id="Grupo_540" data-name="Grupo 540" transform="translate(63.552 12.255)">
          <path id="Trazado_554" data-name="Trazado 554"/>
        </g>
        <g id="Grupo_541" data-name="Grupo 541" transform="translate(68.987 0.362)">
          <path id="Trazado_555" data-name="Trazado 555" d="M.468-5.532v-1.42H8.205V-5.8A16.557,16.557,0,0,0,5.938-2.545,19.476,19.476,0,0,0,4.209,1.631a15.73,15.73,0,0,0-.565,3.311H2.137a14.878,14.878,0,0,1,.555-3.437A17.83,17.83,0,0,1,4.209-2.375a16.743,16.743,0,0,1,2.11-3.157Zm0,0" transform="translate(-0.468 6.952)"/>
        </g>
        <g id="Grupo_542" data-name="Grupo 542" transform="translate(78.179 0.153)">
          <path id="Trazado_556" data-name="Trazado 556" d="M.41-.913A10.942,10.942,0,0,1,.845-4.355,4.256,4.256,0,0,1,2.139-6.367,3.269,3.269,0,0,1,4.3-7.074a3.552,3.552,0,0,1,1.691.389,3.37,3.37,0,0,1,1.2,1.129,6.442,6.442,0,0,1,.745,1.792,12.3,12.3,0,0,1,.272,2.85,11.261,11.261,0,0,1-.435,3.42A4.372,4.372,0,0,1,6.478,4.524,3.322,3.322,0,0,1,4.3,5.237,3.266,3.266,0,0,1,1.59,3.987C.8,2.984.4,1.351.41-.913Zm1.506,0q0,2.968.685,3.952a2,2,0,0,0,1.7.981,2.02,2.02,0,0,0,1.7-.987c.457-.652.691-1.968.691-3.946S6.462-4.218,6.005-4.87a2.083,2.083,0,0,0-1.713-.976,1.9,1.9,0,0,0-1.62.861A7.712,7.712,0,0,0,1.916-.913Zm0,0" transform="translate(-0.41 7.074)"/>
        </g>
        <g id="Grupo_543" data-name="Grupo 543" transform="translate(87.74 0)">
          <path id="Trazado_557" data-name="Trazado 557" d="M.57-4.067a3.626,3.626,0,0,1,.647-2.192,2.172,2.172,0,0,1,1.865-.9,2.449,2.449,0,0,1,1.865.811,3.427,3.427,0,0,1,.739,2.379,3.367,3.367,0,0,1-.75,2.351A2.38,2.38,0,0,1,3.1-.794a2.308,2.308,0,0,1-1.811-.811A3.552,3.552,0,0,1,.57-4.067ZM3.126-6.144a1.124,1.124,0,0,0-.908.477,3.03,3.03,0,0,0-.364,1.748,2.712,2.712,0,0,0,.364,1.633,1.1,1.1,0,0,0,.908.471,1.115,1.115,0,0,0,.919-.477,3.087,3.087,0,0,0,.364-1.743,2.79,2.79,0,0,0-.37-1.639A1.167,1.167,0,0,0,3.126-6.144Zm.011,11.68,6.536-12.7h1.2L4.349,5.536ZM8.3,2.264a3.609,3.609,0,0,1,.647-2.2,2.185,2.185,0,0,1,1.876-.9,2.43,2.43,0,0,1,1.86.811,3.473,3.473,0,0,1,.739,2.379,3.457,3.457,0,0,1-.745,2.362,2.4,2.4,0,0,1-1.843.822,2.3,2.3,0,0,1-1.811-.817A3.546,3.546,0,0,1,8.3,2.264ZM10.869.181A1.129,1.129,0,0,0,9.95.658a3.039,3.039,0,0,0-.364,1.754A2.737,2.737,0,0,0,9.95,4.04a1.119,1.119,0,0,0,1.832,0A3.042,3.042,0,0,0,12.146,2.3a2.749,2.749,0,0,0-.37-1.639A1.139,1.139,0,0,0,10.869.181Zm0,0" transform="translate(-0.57 7.163)"/>
        </g>
        <g id="Grupo_544" data-name="Grupo 544" transform="translate(101.625 12.255)">
          <path id="Trazado_558" data-name="Trazado 558"/>
        </g>
      </g>
      <path id="Trazado_562" data-name="Trazado 562" d="M173.385,226.053l3.11.871,3.138.767,3.16.668,3.181.565,3.2.46,3.208.362L195.6,230l3.225.149,3.224.049,3.229-.055,3.225-.164,3.218-.264,3.208-.368,3.192-.476,3.175-.571,3.16-.679,3.136-.779,3.105-.883,3.078-.975,3.044-1.08,3.012-1.172,2.969-1.278,2.931-1.364,2.887-1.463,2.833-1.552,2.789-1.649,2.73-1.733,2.675-1.82,2.616-1.907,2.556-1.99,2.49-2.072,2.419-2.148,2.354-2.231,2.279-2.3,2.208-2.374,2.131-2.444,2.05-2.516,1.974-2.576,1.886-2.642,1.8-2.7,1.719-2.756,1.626-2.812,1.538-2.861,1.446-2.911,1.354-2.954,1.256-3,1.164-3.031,1.066-3.074.967-3.1.864-3.136.773-3.163.663-3.184.566-3.2.468-3.223.358-3.234.262-3.244.152-3.251.054-3.25H201.9Zm0,0" transform="translate(120.895 91.416)" fill="#cb4335" stroke="#cb4335" stroke-linecap="round" stroke-linejoin="round" stroke-miterlimit="10" stroke-width="0.615"/>
      <path id="Trazado_563" data-name="Trazado 563" d="M225.748,176.16l3.018,4.066" transform="translate(157.406 125.227)" fill="none" stroke="#000" stroke-linecap="round" stroke-linejoin="round" stroke-miterlimit="10" stroke-width="0.615"/>
      <g id="Grupo_565" data-name="Grupo 565" transform="translate(390.289 301.726)">
        <g id="Grupo_549" data-name="Grupo 549" transform="translate(0 3.327)">
          <path id="Trazado_564" data-name="Trazado 564" d="M.647,7.053V-5.021H1.985v1.135a3.34,3.34,0,0,1,1.071-1A2.906,2.906,0,0,1,4.5-5.219a3.428,3.428,0,0,1,1.957.575A3.6,3.6,0,0,1,7.737-3.015a6.1,6.1,0,0,1,.435,2.3,6,6,0,0,1-.478,2.412A3.567,3.567,0,0,1,6.307,3.337a3.526,3.526,0,0,1-1.914.57,2.732,2.732,0,0,1-1.316-.312,2.992,2.992,0,0,1-.962-.789V7.053ZM1.979-.609a3.819,3.819,0,0,0,.674,2.494A2.075,2.075,0,0,0,4.3,2.69,2.108,2.108,0,0,0,5.97,1.857a4.008,4.008,0,0,0,.7-2.587,3.95,3.95,0,0,0-.685-2.5,2.065,2.065,0,0,0-1.626-.833A2.133,2.133,0,0,0,2.7-3.174,4,4,0,0,0,1.979-.609Zm0,0" transform="translate(-0.647 5.219)"/>
        </g>
        <g id="Grupo_550" data-name="Grupo 550" transform="translate(8.799 3.327)">
          <path id="Trazado_565" data-name="Trazado 565" d="M6.78.9,8.3,1.09A3.73,3.73,0,0,1,6.965,3.167a3.969,3.969,0,0,1-2.474.74A3.932,3.932,0,0,1,1.473,2.729,4.555,4.555,0,0,1,.359-.582,4.8,4.8,0,0,1,1.484-4,3.779,3.779,0,0,1,4.4-5.219,3.691,3.691,0,0,1,7.243-4.024a4.756,4.756,0,0,1,1.1,3.349c0,.093-.005.225-.005.395H1.881a3.29,3.29,0,0,0,.8,2.209A2.392,2.392,0,0,0,4.5,2.69a2.253,2.253,0,0,0,1.381-.428A2.874,2.874,0,0,0,6.78.9ZM1.957-1.5H6.8a3.011,3.011,0,0,0-.555-1.65A2.245,2.245,0,0,0,4.426-4a2.315,2.315,0,0,0-1.7.685A2.7,2.7,0,0,0,1.957-1.5Zm0,0" transform="translate(-0.359 5.219)"/>
        </g>
        <g id="Grupo_551" data-name="Grupo 551" transform="translate(18.568 3.327)">
          <path id="Trazado_566" data-name="Trazado 566" d="M.641,3.71V-5.021H1.957V-3.7a3.614,3.614,0,0,1,.935-1.222,1.615,1.615,0,0,1,.946-.3,2.853,2.853,0,0,1,1.506.477l-.506,1.37a2.137,2.137,0,0,0-1.077-.318A1.406,1.406,0,0,0,2.9-3.4a1.537,1.537,0,0,0-.549.811A5.639,5.639,0,0,0,2.109-.861V3.71Zm0,0" transform="translate(-0.641 5.219)"/>
        </g>
        <g id="Grupo_552" data-name="Grupo 552" transform="translate(23.613 0.203)">
          <path id="Trazado_567" data-name="Trazado 567" d="M6.486,5.008v-1.1a2.705,2.705,0,0,1-2.425,1.3,3.367,3.367,0,0,1-1.9-.576A3.689,3.689,0,0,1,.809,3.024,5.6,5.6,0,0,1,.336.651a6.269,6.269,0,0,1,.43-2.373,3.439,3.439,0,0,1,1.3-1.628A3.441,3.441,0,0,1,4-3.921a2.943,2.943,0,0,1,1.4.334,2.949,2.949,0,0,1,1,.866V-7.045H7.845V5.008ZM1.843.651a3.761,3.761,0,0,0,.7,2.51A2.1,2.1,0,0,0,4.2,3.988a2.052,2.052,0,0,0,1.631-.795A3.707,3.707,0,0,0,6.508.777,4.227,4.227,0,0,0,5.823-1.86,2.143,2.143,0,0,0,4.137-2.7,2.059,2.059,0,0,0,2.5-1.893,3.936,3.936,0,0,0,1.843.651Zm0,0" transform="translate(-0.336 7.045)"/>
        </g>
        <g id="Grupo_553" data-name="Grupo 553" transform="translate(33.442 0.203)">
          <path id="Trazado_568" data-name="Trazado 568" d="M.654-5.34v-1.7H2.122v1.7Zm0,10.348V-3.723H2.122V5.008Zm0,0" transform="translate(-0.654 7.045)"/>
        </g>
        <g id="Grupo_554" data-name="Grupo 554" transform="translate(36.614 0.203)">
          <path id="Trazado_569" data-name="Trazado 569" d="M6.486,5.008v-1.1a2.705,2.705,0,0,1-2.425,1.3,3.367,3.367,0,0,1-1.9-.576A3.689,3.689,0,0,1,.809,3.024,5.6,5.6,0,0,1,.336.651a6.269,6.269,0,0,1,.43-2.373,3.439,3.439,0,0,1,1.3-1.628A3.441,3.441,0,0,1,4-3.921a2.943,2.943,0,0,1,1.4.334,2.949,2.949,0,0,1,1,.866V-7.045H7.845V5.008ZM1.843.651a3.761,3.761,0,0,0,.7,2.51A2.1,2.1,0,0,0,4.2,3.988a2.052,2.052,0,0,0,1.631-.795A3.707,3.707,0,0,0,6.508.777,4.227,4.227,0,0,0,5.823-1.86,2.143,2.143,0,0,0,4.137-2.7,2.059,2.059,0,0,0,2.5-1.893,3.936,3.936,0,0,0,1.843.651Zm0,0" transform="translate(-0.336 7.045)"/>
        </g>
        <g id="Grupo_555" data-name="Grupo 555" transform="translate(45.888 3.327)">
          <path id="Trazado_570" data-name="Trazado 570" d="M.327-.653a4.526,4.526,0,0,1,1.338-3.6,4.011,4.011,0,0,1,2.724-.97,3.863,3.863,0,0,1,2.92,1.184A4.559,4.559,0,0,1,8.439-.779a6,6,0,0,1-.5,2.653,3.579,3.579,0,0,1-1.457,1.5,4.234,4.234,0,0,1-2.093.532A3.858,3.858,0,0,1,1.447,2.734,4.707,4.707,0,0,1,.327-.653Zm1.512,0a3.683,3.683,0,0,0,.723,2.51,2.294,2.294,0,0,0,1.827.833A2.3,2.3,0,0,0,6.2,1.852a3.826,3.826,0,0,0,.729-2.56A3.616,3.616,0,0,0,6.2-3.158,2.348,2.348,0,0,0,4.388-4a2.328,2.328,0,0,0-1.827.833A3.721,3.721,0,0,0,1.838-.653Zm0,0" transform="translate(-0.327 5.219)"/>
        </g>
        <g id="Grupo_556" data-name="Grupo 556" transform="translate(55.135 3.327)">
          <path id="Trazado_571" data-name="Trazado 571" d="M.3,1.1,1.758.871a2.016,2.016,0,0,0,.68,1.354A2.351,2.351,0,0,0,4,2.69a2.266,2.266,0,0,0,1.5-.417A1.236,1.236,0,0,0,5.989,1.3.916.916,0,0,0,5.554.509a6.657,6.657,0,0,0-1.5-.5A13.153,13.153,0,0,1,1.818-.7,2.106,2.106,0,0,1,.872-1.53,2.139,2.139,0,0,1,.551-2.7a2.2,2.2,0,0,1,.261-1.08,2.4,2.4,0,0,1,.723-.828,3.2,3.2,0,0,1,.935-.428,4.293,4.293,0,0,1,1.267-.181,4.98,4.98,0,0,1,1.789.3,2.431,2.431,0,0,1,1.136.806,3.244,3.244,0,0,1,.511,1.348l-1.435.2a1.625,1.625,0,0,0-.571-1.052A2.065,2.065,0,0,0,3.846-4a2.382,2.382,0,0,0-1.446.34.956.956,0,0,0-.435.784.74.74,0,0,0,.185.521,1.194,1.194,0,0,0,.56.395c.147.055.576.181,1.3.378A18.936,18.936,0,0,1,6.179-.9a2.316,2.316,0,0,1,.968.778A2.223,2.223,0,0,1,7.5,1.145a2.587,2.587,0,0,1-.43,1.4,2.723,2.723,0,0,1-1.24,1.008,4.414,4.414,0,0,1-1.822.356A4.043,4.043,0,0,1,1.432,3.2,3.277,3.277,0,0,1,.3,1.1Zm0,0" transform="translate(-0.301 5.219)"/>
        </g>
        <g id="Grupo_557" data-name="Grupo 557" transform="translate(62.975 12.255)">
          <path id="Trazado_572" data-name="Trazado 572"/>
        </g>
        <g id="Grupo_558" data-name="Grupo 558" transform="translate(68.317 0.153)">
          <path id="Trazado_573" data-name="Trazado 573" d="M.413,1.849l1.468-.2A3.266,3.266,0,0,0,2.74,3.466a2.075,2.075,0,0,0,1.484.554A2.325,2.325,0,0,0,5.97,3.3a2.491,2.491,0,0,0,.712-1.8A2.325,2.325,0,0,0,6.025-.179a2.286,2.286,0,0,0-1.68-.663,4.129,4.129,0,0,0-1.033.164l.163-1.3a1.939,1.939,0,0,0,.234.016A3.027,3.027,0,0,0,5.4-2.453a1.712,1.712,0,0,0,.75-1.518A1.83,1.83,0,0,0,5.6-5.32a1.955,1.955,0,0,0-1.408-.537,1.988,1.988,0,0,0-1.43.543,2.734,2.734,0,0,0-.734,1.628L.56-3.949A3.824,3.824,0,0,1,1.783-6.257,3.51,3.51,0,0,1,4.16-7.074a3.923,3.923,0,0,1,1.8.422A3.108,3.108,0,0,1,7.215-5.5a3,3,0,0,1,.44,1.557,2.552,2.552,0,0,1-.419,1.42A2.837,2.837,0,0,1,6.008-1.5,2.787,2.787,0,0,1,7.656-.474a3.159,3.159,0,0,1,.587,1.94A3.567,3.567,0,0,1,7.1,4.146a3.986,3.986,0,0,1-2.887,1.1A3.717,3.717,0,0,1,1.6,4.3,3.654,3.654,0,0,1,.413,1.849Zm0,0" transform="translate(-0.413 7.074)"/>
        </g>
        <g id="Grupo_559" data-name="Grupo 559" transform="translate(77.602 0.153)">
          <path id="Trazado_574" data-name="Trazado 574" d="M.41-.913A10.942,10.942,0,0,1,.845-4.355,4.256,4.256,0,0,1,2.139-6.367,3.269,3.269,0,0,1,4.3-7.074a3.552,3.552,0,0,1,1.691.389,3.37,3.37,0,0,1,1.2,1.129,6.442,6.442,0,0,1,.745,1.792,12.3,12.3,0,0,1,.272,2.85,11.261,11.261,0,0,1-.435,3.42A4.372,4.372,0,0,1,6.478,4.524,3.322,3.322,0,0,1,4.3,5.237,3.266,3.266,0,0,1,1.59,3.987C.8,2.984.4,1.351.41-.913Zm1.506,0q0,2.968.685,3.952a2,2,0,0,0,1.7.981,2.02,2.02,0,0,0,1.7-.987c.457-.652.691-1.968.691-3.946S6.462-4.218,6.005-4.87a2.083,2.083,0,0,0-1.713-.976,1.9,1.9,0,0,0-1.62.861A7.712,7.712,0,0,0,1.916-.913Zm0,0" transform="translate(-0.41 7.074)"/>
        </g>
        <g id="Grupo_560" data-name="Grupo 560" transform="translate(87.164 0)">
          <path id="Trazado_575" data-name="Trazado 575" d="M.57-4.067a3.626,3.626,0,0,1,.647-2.192,2.172,2.172,0,0,1,1.865-.9,2.449,2.449,0,0,1,1.865.811,3.427,3.427,0,0,1,.739,2.379,3.367,3.367,0,0,1-.75,2.351A2.38,2.38,0,0,1,3.1-.794a2.308,2.308,0,0,1-1.811-.811A3.552,3.552,0,0,1,.57-4.067ZM3.126-6.144a1.124,1.124,0,0,0-.908.477,3.03,3.03,0,0,0-.364,1.748,2.712,2.712,0,0,0,.364,1.633,1.1,1.1,0,0,0,.908.471,1.115,1.115,0,0,0,.919-.477,3.087,3.087,0,0,0,.364-1.743,2.79,2.79,0,0,0-.37-1.639A1.167,1.167,0,0,0,3.126-6.144Zm.011,11.68,6.536-12.7h1.2L4.349,5.536ZM8.3,2.264a3.609,3.609,0,0,1,.647-2.2,2.185,2.185,0,0,1,1.876-.9,2.43,2.43,0,0,1,1.86.811,3.473,3.473,0,0,1,.739,2.379,3.457,3.457,0,0,1-.745,2.362,2.4,2.4,0,0,1-1.843.822,2.3,2.3,0,0,1-1.811-.817A3.546,3.546,0,0,1,8.3,2.264ZM10.869.181A1.129,1.129,0,0,0,9.95.658a3.039,3.039,0,0,0-.364,1.754A2.737,2.737,0,0,0,9.95,4.04a1.119,1.119,0,0,0,1.832,0A3.042,3.042,0,0,0,12.146,2.3a2.749,2.749,0,0,0-.37-1.639A1.139,1.139,0,0,0,10.869.181Zm0,0" transform="translate(-0.57 7.163)"/>
        </g>
        <g id="Grupo_561" data-name="Grupo 561" transform="translate(101.047 12.255)">
          <path id="Trazado_576" data-name="Trazado 576"/>
        </g>
      </g>
      <g id="Grupo_580" data-name="Grupo 580" transform="translate(254.098 33.944)">
        <g id="Grupo_566" data-name="Grupo 566" transform="translate(0 0.247)">
          <path id="Trazado_580" data-name="Trazado 580" d="M.865-8.454H6.6a17.556,17.556,0,0,1,2.539.143,3.872,3.872,0,0,1,1.5.6A3.814,3.814,0,0,1,11.74-6.5a3.408,3.408,0,0,1,.44,1.688,3.442,3.442,0,0,1-.544,1.869,3.336,3.336,0,0,1-1.474,1.272,3.819,3.819,0,0,1,2.012,1.31,3.572,3.572,0,0,1,.707,2.181,4.456,4.456,0,0,1-.457,1.918,3.836,3.836,0,0,1-1.24,1.491,4.037,4.037,0,0,1-1.941.685q-.734.082-3.5.1H.865Zm2.9,2.406V-2.7h1.9q1.688.008,2.1-.049a1.875,1.875,0,0,0,1.169-.521A1.563,1.563,0,0,0,9.358-4.4a1.616,1.616,0,0,0-.37-1.085A1.692,1.692,0,0,0,7.9-6c-.288-.027-1.115-.044-2.474-.049Zm0,5.755V3.571H6.444a11.552,11.552,0,0,0,1.985-.088,1.759,1.759,0,0,0,1.055-.576A1.822,1.822,0,0,0,9.891,1.68,1.977,1.977,0,0,0,9.576.573a1.866,1.866,0,0,0-.908-.658A10.325,10.325,0,0,0,6.1-.293Zm0,0" transform="translate(-0.865 8.454)"/>
        </g>
        <g id="Grupo_567" data-name="Grupo 567" transform="translate(13.812 3.996)">
          <path id="Trazado_581" data-name="Trazado 581" d="M.474-.936A5.559,5.559,0,0,1,1.148-3.6,4.625,4.625,0,0,1,3.057-5.578a5.68,5.68,0,0,1,2.768-.685A5.21,5.21,0,0,1,9.69-4.717,5.416,5.416,0,0,1,11.2-.815,5.438,5.438,0,0,1,9.674,3.126,5.151,5.151,0,0,1,5.846,4.688a6.153,6.153,0,0,1-2.73-.647A4.407,4.407,0,0,1,1.148,2.134,6.271,6.271,0,0,1,.474-.936Zm2.817.148A3.475,3.475,0,0,0,4.025,1.6a2.32,2.32,0,0,0,1.811.828A2.309,2.309,0,0,0,7.641,1.6,3.585,3.585,0,0,0,8.369-.8a3.565,3.565,0,0,0-.729-2.368A2.35,2.35,0,0,0,5.835-4a2.361,2.361,0,0,0-1.811.833A3.507,3.507,0,0,0,3.291-.788Zm0,0" transform="translate(-0.474 6.263)"/>
        </g>
        <g id="Grupo_568" data-name="Grupo 568" transform="translate(25.72 3.996)">
          <path id="Trazado_582" data-name="Trazado 582" d="M.276,1.465l2.762-.428A1.972,1.972,0,0,0,3.75,2.271a2.325,2.325,0,0,0,1.512.417,2.643,2.643,0,0,0,1.6-.395.907.907,0,0,0,.359-.74.8.8,0,0,0-.2-.526A2.364,2.364,0,0,0,6.11.665,14.156,14.156,0,0,1,1.89-.689,2.668,2.668,0,0,1,.662-3.046,2.877,2.877,0,0,1,1.727-5.331a4.961,4.961,0,0,1,3.306-.932,5.8,5.8,0,0,1,3.17.7A3.665,3.665,0,0,1,9.633-3.49L7.04-3.007a1.677,1.677,0,0,0-.631-.932,2.385,2.385,0,0,0-1.327-.329,3.066,3.066,0,0,0-1.555.307.646.646,0,0,0-.315.559.58.58,0,0,0,.277.5,9.676,9.676,0,0,0,2.566.778A7.824,7.824,0,0,1,9.128-.886a2.593,2.593,0,0,1,.859,2.061,3.171,3.171,0,0,1-1.2,2.477A5.287,5.287,0,0,1,5.262,4.688,5.837,5.837,0,0,1,1.9,3.822,3.952,3.952,0,0,1,.276,1.465Zm0,0" transform="translate(-0.276 6.263)"/>
        </g>
        <g id="Grupo_569" data-name="Grupo 569" transform="translate(36.703 0.532)">
          <path id="Trazado_583" data-name="Trazado 583" d="M6.079-4.588v2.214H4.2v4.22a9.788,9.788,0,0,0,.049,1.5.567.567,0,0,0,.245.351.7.7,0,0,0,.468.137,3.227,3.227,0,0,0,1.1-.269l.239,2.154a5.618,5.618,0,0,1-2.175.411,3.558,3.558,0,0,1-1.343-.252,1.883,1.883,0,0,1-.875-.647,2.556,2.556,0,0,1-.386-1.085,13.346,13.346,0,0,1-.087-1.951V-2.374H.179V-4.588H1.441V-6.665L4.2-8.288v3.7Zm0,0" transform="translate(-0.179 8.288)"/>
        </g>
        <g id="Grupo_570" data-name="Grupo 570" transform="translate(43.878 3.996)">
          <path id="Trazado_584" data-name="Trazado 584" d="M.474-.936A5.559,5.559,0,0,1,1.148-3.6,4.625,4.625,0,0,1,3.057-5.578a5.68,5.68,0,0,1,2.768-.685A5.21,5.21,0,0,1,9.69-4.717,5.416,5.416,0,0,1,11.2-.815,5.438,5.438,0,0,1,9.674,3.126,5.151,5.151,0,0,1,5.846,4.688a6.153,6.153,0,0,1-2.73-.647A4.407,4.407,0,0,1,1.148,2.134,6.271,6.271,0,0,1,.474-.936Zm2.817.148A3.475,3.475,0,0,0,4.025,1.6a2.32,2.32,0,0,0,1.811.828A2.309,2.309,0,0,0,7.641,1.6,3.585,3.585,0,0,0,8.369-.8a3.565,3.565,0,0,0-.729-2.368A2.35,2.35,0,0,0,5.835-4a2.361,2.361,0,0,0-1.811.833A3.507,3.507,0,0,0,3.291-.788Zm0,0" transform="translate(-0.474 6.263)"/>
        </g>
        <g id="Grupo_571" data-name="Grupo 571" transform="translate(56.738 3.996)">
          <path id="Trazado_585" data-name="Trazado 585" d="M10.308,4.452H7.562V-.9A8.748,8.748,0,0,0,7.383-3.09a1.588,1.588,0,0,0-.571-.773,1.714,1.714,0,0,0-.957-.28,2.278,2.278,0,0,0-1.283.395A1.98,1.98,0,0,0,3.794-2.7,8.931,8.931,0,0,0,3.587-.294V4.452H.836V-6.027H3.392v1.54A4.169,4.169,0,0,1,6.817-6.263a4.229,4.229,0,0,1,1.658.334,2.9,2.9,0,0,1,1.142.844,3.116,3.116,0,0,1,.538,1.162,9.375,9.375,0,0,1,.152,1.864Zm0,0" transform="translate(-0.836 6.263)"/>
        </g>
        <g id="Grupo_572" data-name="Grupo 572" transform="translate(67.562 14.711)">
          <path id="Trazado_586" data-name="Trazado 586"/>
        </g>
        <g id="Grupo_573" data-name="Grupo 573" transform="translate(74.082)">
          <path id="Trazado_587" data-name="Trazado 587" d="M10.25.8l2.806.9a6.387,6.387,0,0,1-2.148,3.519A6.094,6.094,0,0,1,7.1,6.359,6.126,6.126,0,0,1,2.4,4.391,7.515,7.515,0,0,1,.561-.991,7.889,7.889,0,0,1,2.409-6.6a6.322,6.322,0,0,1,4.861-2A6,6,0,0,1,11.55-7.031a5.784,5.784,0,0,1,1.468,2.664l-2.865.691a3.094,3.094,0,0,0-1.066-1.77A3.072,3.072,0,0,0,7.124-6.1,3.276,3.276,0,0,0,4.535-4.943a5.655,5.655,0,0,0-.99,3.733A6.037,6.037,0,0,0,4.524,2.7,3.129,3.129,0,0,0,7.069,3.865a2.838,2.838,0,0,0,1.985-.74A4.3,4.3,0,0,0,10.25.8Zm0,0" transform="translate(-0.561 8.598)"/>
        </g>
        <g id="Grupo_574" data-name="Grupo 574" transform="translate(88.243 3.996)">
          <path id="Trazado_588" data-name="Trazado 588" d="M7.2,1.12l2.74.46A4.557,4.557,0,0,1,8.264,3.893a4.928,4.928,0,0,1-2.849.795A4.645,4.645,0,0,1,1.4,2.9,6,6,0,0,1,.375-.705,5.826,5.826,0,0,1,1.723-4.789a4.455,4.455,0,0,1,3.42-1.474A4.631,4.631,0,0,1,8.8-4.717,6.93,6.93,0,0,1,10.086.013H3.191A2.772,2.772,0,0,0,3.86,1.931a2.025,2.025,0,0,0,1.582.685A1.674,1.674,0,0,0,6.53,2.265,2.264,2.264,0,0,0,7.2,1.12Zm.152-2.806a2.7,2.7,0,0,0-.614-1.825,1.916,1.916,0,0,0-1.43-.63,1.911,1.911,0,0,0-1.484.663A2.533,2.533,0,0,0,3.24-1.686Zm0,0" transform="translate(-0.375 6.263)"/>
        </g>
        <g id="Grupo_575" data-name="Grupo 575" transform="translate(100.194 0.247)">
          <path id="Trazado_589" data-name="Trazado 589" d="M.849,6.01V-8.454H3.595V6.01Zm0,0" transform="translate(-0.849 8.454)"/>
        </g>
        <g id="Grupo_576" data-name="Grupo 576" transform="translate(104.627 0.532)">
          <path id="Trazado_590" data-name="Trazado 590" d="M6.079-4.588v2.214H4.2v4.22a9.788,9.788,0,0,0,.049,1.5.567.567,0,0,0,.245.351.7.7,0,0,0,.468.137,3.227,3.227,0,0,0,1.1-.269l.239,2.154a5.618,5.618,0,0,1-2.175.411,3.558,3.558,0,0,1-1.343-.252,1.883,1.883,0,0,1-.875-.647,2.556,2.556,0,0,1-.386-1.085,13.346,13.346,0,0,1-.087-1.951V-2.374H.179V-4.588H1.441V-6.665L4.2-8.288v3.7Zm0,0" transform="translate(-0.179 8.288)"/>
        </g>
        <g id="Grupo_577" data-name="Grupo 577" transform="translate(112.438 0.247)">
          <path id="Trazado_591" data-name="Trazado 591" d="M.849-5.889V-8.454H3.595v2.565Zm0,11.9V-4.47H3.595V6.01Zm0,0" transform="translate(-0.849 8.454)"/>
        </g>
        <g id="Grupo_578" data-name="Grupo 578" transform="translate(117.398 3.996)">
          <path id="Trazado_592" data-name="Trazado 592" d="M10.158-2.925,7.45-2.432a2.055,2.055,0,0,0-.625-1.233,1.889,1.889,0,0,0-1.256-.417,2.04,2.04,0,0,0-1.642.718,3.616,3.616,0,0,0-.609,2.39,4.2,4.2,0,0,0,.62,2.636,2.022,2.022,0,0,0,1.669.767A1.854,1.854,0,0,0,6.89,1.98,2.725,2.725,0,0,0,7.6.435L10.3.9a4.9,4.9,0,0,1-1.62,2.834,5,5,0,0,1-3.2.954A4.762,4.762,0,0,1,1.844,3.241,5.657,5.657,0,0,1,.49-.777,5.673,5.673,0,0,1,1.849-4.816,4.839,4.839,0,0,1,5.531-6.263a5.047,5.047,0,0,1,3.018.828A4.647,4.647,0,0,1,10.158-2.925Zm0,0" transform="translate(-0.49 6.263)"/>
        </g>
        <g id="Grupo_579" data-name="Grupo 579" transform="translate(128.182 3.996)">
          <path id="Trazado_593" data-name="Trazado 593" d="M.276,1.465l2.762-.428A1.972,1.972,0,0,0,3.75,2.271a2.325,2.325,0,0,0,1.512.417,2.643,2.643,0,0,0,1.6-.395.907.907,0,0,0,.359-.74.8.8,0,0,0-.2-.526A2.364,2.364,0,0,0,6.11.665,14.156,14.156,0,0,1,1.89-.689,2.668,2.668,0,0,1,.662-3.046,2.877,2.877,0,0,1,1.727-5.331a4.961,4.961,0,0,1,3.306-.932,5.8,5.8,0,0,1,3.17.7A3.665,3.665,0,0,1,9.633-3.49L7.04-3.007a1.677,1.677,0,0,0-.631-.932,2.385,2.385,0,0,0-1.327-.329,3.066,3.066,0,0,0-1.555.307.646.646,0,0,0-.315.559.58.58,0,0,0,.277.5,9.676,9.676,0,0,0,2.566.778A7.824,7.824,0,0,1,9.128-.886a2.593,2.593,0,0,1,.859,2.061,3.171,3.171,0,0,1-1.2,2.477A5.287,5.287,0,0,1,5.262,4.688,5.837,5.837,0,0,1,1.9,3.822,3.952,3.952,0,0,1,.276,1.465Zm0,0" transform="translate(-0.276 6.263)"/>
        </g>
      </g>
      <g id="Grupo_624" data-name="Grupo 624" transform="translate(159.532 421.908)">
        <g id="Grupo_581" data-name="Grupo 581" transform="translate(0 3.124)">
          <path id="Trazado_594" data-name="Trazado 594" d="M.647,7.053V-5.021H1.985v1.135a3.34,3.34,0,0,1,1.071-1A2.906,2.906,0,0,1,4.5-5.219a3.428,3.428,0,0,1,1.957.575A3.6,3.6,0,0,1,7.737-3.015a6.1,6.1,0,0,1,.435,2.3,6,6,0,0,1-.478,2.412A3.567,3.567,0,0,1,6.307,3.337a3.526,3.526,0,0,1-1.914.57,2.732,2.732,0,0,1-1.316-.312,2.992,2.992,0,0,1-.962-.789V7.053ZM1.979-.609a3.819,3.819,0,0,0,.674,2.494A2.075,2.075,0,0,0,4.3,2.69,2.108,2.108,0,0,0,5.97,1.857a4.008,4.008,0,0,0,.7-2.587,3.95,3.95,0,0,0-.685-2.5,2.065,2.065,0,0,0-1.626-.833A2.133,2.133,0,0,0,2.7-3.174,4,4,0,0,0,1.979-.609Zm0,0" transform="translate(-0.647 5.219)"/>
        </g>
        <g id="Grupo_582" data-name="Grupo 582" transform="translate(8.746 3.124)">
          <path id="Trazado_595" data-name="Trazado 595" d="M.327-.653a4.526,4.526,0,0,1,1.338-3.6,4.011,4.011,0,0,1,2.724-.97,3.863,3.863,0,0,1,2.92,1.184A4.559,4.559,0,0,1,8.439-.779a6,6,0,0,1-.5,2.653,3.579,3.579,0,0,1-1.457,1.5,4.234,4.234,0,0,1-2.093.532A3.858,3.858,0,0,1,1.447,2.734,4.707,4.707,0,0,1,.327-.653Zm1.512,0a3.683,3.683,0,0,0,.723,2.51,2.294,2.294,0,0,0,1.827.833A2.3,2.3,0,0,0,6.2,1.852a3.826,3.826,0,0,0,.729-2.56A3.616,3.616,0,0,0,6.2-3.158,2.348,2.348,0,0,0,4.388-4a2.328,2.328,0,0,0-1.827.833A3.721,3.721,0,0,0,1.838-.653Zm0,0" transform="translate(-0.327 5.219)"/>
        </g>
        <g id="Grupo_583" data-name="Grupo 583" transform="translate(18.569 3.124)">
          <path id="Trazado_596" data-name="Trazado 596" d="M.641,3.71V-5.021H1.957V-3.7a3.614,3.614,0,0,1,.935-1.222,1.615,1.615,0,0,1,.946-.3,2.853,2.853,0,0,1,1.506.477l-.506,1.37a2.137,2.137,0,0,0-1.077-.318A1.406,1.406,0,0,0,2.9-3.4a1.537,1.537,0,0,0-.549.811A5.639,5.639,0,0,0,2.109-.861V3.71Zm0,0" transform="translate(-0.641 5.219)"/>
        </g>
        <g id="Grupo_584" data-name="Grupo 584" transform="translate(23.696 3.124)">
          <path id="Trazado_597" data-name="Trazado 597" d="M6.485.509,7.931.7A3.793,3.793,0,0,1,6.719,3.058a3.512,3.512,0,0,1-2.4.85A3.683,3.683,0,0,1,1.466,2.734,4.75,4.75,0,0,1,.384-.62,6.171,6.171,0,0,1,.847-3.1,3.278,3.278,0,0,1,2.26-4.687a4.2,4.2,0,0,1,2.072-.532A3.579,3.579,0,0,1,6.643-4.5,3.34,3.34,0,0,1,7.79-2.456l-1.425.225a2.455,2.455,0,0,0-.723-1.326A1.874,1.874,0,0,0,4.386-4a2.245,2.245,0,0,0-1.8.806A3.8,3.8,0,0,0,1.9-.664,3.9,3.9,0,0,0,2.565,1.9,2.152,2.152,0,0,0,4.31,2.69a2.067,2.067,0,0,0,1.441-.532A2.663,2.663,0,0,0,6.485.509Zm0,0" transform="translate(-0.384 5.219)"/>
        </g>
        <g id="Grupo_585" data-name="Grupo 585" transform="translate(32.005 3.124)">
          <path id="Trazado_598" data-name="Trazado 598" d="M6.78.9,8.3,1.09A3.73,3.73,0,0,1,6.965,3.167a3.969,3.969,0,0,1-2.474.74A3.932,3.932,0,0,1,1.473,2.729,4.555,4.555,0,0,1,.359-.582,4.8,4.8,0,0,1,1.484-4,3.779,3.779,0,0,1,4.4-5.219,3.691,3.691,0,0,1,7.243-4.024a4.756,4.756,0,0,1,1.1,3.349c0,.093-.005.225-.005.395H1.881a3.29,3.29,0,0,0,.8,2.209A2.392,2.392,0,0,0,4.5,2.69a2.253,2.253,0,0,0,1.381-.428A2.874,2.874,0,0,0,6.78.9ZM1.957-1.5H6.8a3.011,3.011,0,0,0-.555-1.65A2.245,2.245,0,0,0,4.426-4a2.315,2.315,0,0,0-1.7.685A2.7,2.7,0,0,0,1.957-1.5Zm0,0" transform="translate(-0.359 5.219)"/>
        </g>
        <g id="Grupo_586" data-name="Grupo 586" transform="translate(41.784 3.124)">
          <path id="Trazado_599" data-name="Trazado 599" d="M.647,3.71V-5.021H1.974v1.244A3.094,3.094,0,0,1,4.725-5.219a3.7,3.7,0,0,1,1.441.285,2.346,2.346,0,0,1,.984.74,2.918,2.918,0,0,1,.457,1.1,8.545,8.545,0,0,1,.082,1.436V3.71H6.22V-1.6a4.024,4.024,0,0,0-.174-1.354,1.441,1.441,0,0,0-.6-.713,1.962,1.962,0,0,0-1.022-.269,2.382,2.382,0,0,0-1.626.6,2.937,2.937,0,0,0-.68,2.275V3.71Zm0,0" transform="translate(-0.647 5.219)"/>
        </g>
        <g id="Grupo_587" data-name="Grupo 587" transform="translate(50.269 0.269)">
          <path id="Trazado_600" data-name="Trazado 600" d="M4.186,3.57,4.4,4.88a5.4,5.4,0,0,1-1.109.132,2.5,2.5,0,0,1-1.24-.252,1.419,1.419,0,0,1-.62-.674A5.3,5.3,0,0,1,1.25,2.342V-2.684H.173V-3.835H1.25V-6l1.457-.888v3.053H4.186v1.151H2.707v5.1a2.375,2.375,0,0,0,.076.817.627.627,0,0,0,.256.29.969.969,0,0,0,.506.1A4.183,4.183,0,0,0,4.186,3.57Zm0,0" transform="translate(-0.173 6.888)"/>
        </g>
        <g id="Grupo_588" data-name="Grupo 588" transform="translate(55.22 3.124)">
          <path id="Trazado_601" data-name="Trazado 601" d="M6.505,2.636a5.5,5.5,0,0,1-1.571.987,4.556,4.556,0,0,1-1.615.285,3.118,3.118,0,0,1-2.2-.7,2.312,2.312,0,0,1-.767-1.8A2.351,2.351,0,0,1,.644.24a2.449,2.449,0,0,1,.761-.855A3.659,3.659,0,0,1,2.46-1.1c.288-.066.723-.143,1.3-.219a13.447,13.447,0,0,0,2.621-.51c0-.2.005-.323.005-.389a1.659,1.659,0,0,0-.419-1.272A2.464,2.464,0,0,0,4.3-4a2.634,2.634,0,0,0-1.533.367,2.242,2.242,0,0,0-.723,1.3l-1.435-.2a3.551,3.551,0,0,1,.642-1.5,2.836,2.836,0,0,1,1.294-.877,5.647,5.647,0,0,1,1.968-.312,5.148,5.148,0,0,1,1.8.263,2.411,2.411,0,0,1,1.022.663,2.357,2.357,0,0,1,.457,1.008,10.013,10.013,0,0,1,.071,1.359V.049a19.6,19.6,0,0,0,.092,2.614A3.356,3.356,0,0,0,8.332,3.71H6.8A3.141,3.141,0,0,1,6.505,2.636Zm-.12-3.31a10.39,10.39,0,0,1-2.4.559A6.118,6.118,0,0,0,2.7.18a1.343,1.343,0,0,0-.582.482,1.284,1.284,0,0,0-.2.7,1.254,1.254,0,0,0,.44.987,1.846,1.846,0,0,0,1.3.395,2.915,2.915,0,0,0,1.506-.373,2.279,2.279,0,0,0,.973-1.019,3.687,3.687,0,0,0,.239-1.48Zm0,0" transform="translate(-0.356 5.219)"/>
        </g>
        <g id="Grupo_589" data-name="Grupo 589" transform="translate(63.14 0)">
          <path id="Trazado_602" data-name="Trazado 602" d="M1.408-5.329V-7.045H2.876v1.716ZM-.452,8.4l.277-1.261a3.287,3.287,0,0,0,.7.121.794.794,0,0,0,.663-.3,3.089,3.089,0,0,0,.223-1.5V-3.723H2.876V5.485a4.331,4.331,0,0,1-.419,2.242A1.96,1.96,0,0,1,.7,8.549,4.672,4.672,0,0,1-.452,8.4Zm0,0" transform="translate(0.452 7.045)"/>
        </g>
        <g id="Grupo_590" data-name="Grupo 590" transform="translate(68.226 3.124)">
          <path id="Trazado_603" data-name="Trazado 603" d="M6.78.9,8.3,1.09A3.73,3.73,0,0,1,6.965,3.167a3.969,3.969,0,0,1-2.474.74A3.932,3.932,0,0,1,1.473,2.729,4.555,4.555,0,0,1,.359-.582,4.8,4.8,0,0,1,1.484-4,3.779,3.779,0,0,1,4.4-5.219,3.691,3.691,0,0,1,7.243-4.024a4.756,4.756,0,0,1,1.1,3.349c0,.093-.005.225-.005.395H1.881a3.29,3.29,0,0,0,.8,2.209A2.392,2.392,0,0,0,4.5,2.69a2.253,2.253,0,0,0,1.381-.428A2.874,2.874,0,0,0,6.78.9ZM1.957-1.5H6.8a3.011,3.011,0,0,0-.555-1.65A2.245,2.245,0,0,0,4.426-4a2.315,2.315,0,0,0-1.7.685A2.7,2.7,0,0,0,1.957-1.5Zm0,0" transform="translate(-0.359 5.219)"/>
        </g>
        <g id="Grupo_591" data-name="Grupo 591" transform="translate(77.417 3.124)">
          <path id="Trazado_604" data-name="Trazado 604" d="M.3,1.1,1.758.871a2.016,2.016,0,0,0,.68,1.354A2.351,2.351,0,0,0,4,2.69a2.266,2.266,0,0,0,1.5-.417A1.236,1.236,0,0,0,5.989,1.3.916.916,0,0,0,5.554.509a6.657,6.657,0,0,0-1.5-.5A13.153,13.153,0,0,1,1.818-.7,2.106,2.106,0,0,1,.872-1.53,2.139,2.139,0,0,1,.551-2.7a2.2,2.2,0,0,1,.261-1.08,2.4,2.4,0,0,1,.723-.828,3.2,3.2,0,0,1,.935-.428,4.293,4.293,0,0,1,1.267-.181,4.98,4.98,0,0,1,1.789.3,2.431,2.431,0,0,1,1.136.806,3.244,3.244,0,0,1,.511,1.348l-1.435.2a1.625,1.625,0,0,0-.571-1.052A2.065,2.065,0,0,0,3.846-4a2.382,2.382,0,0,0-1.446.34.956.956,0,0,0-.435.784.74.74,0,0,0,.185.521,1.194,1.194,0,0,0,.56.395c.147.055.576.181,1.3.378A18.936,18.936,0,0,1,6.179-.9a2.316,2.316,0,0,1,.968.778A2.223,2.223,0,0,1,7.5,1.145a2.587,2.587,0,0,1-.43,1.4,2.723,2.723,0,0,1-1.24,1.008,4.414,4.414,0,0,1-1.822.356A4.043,4.043,0,0,1,1.432,3.2,3.277,3.277,0,0,1,.3,1.1Zm0,0" transform="translate(-0.301 5.219)"/>
        </g>
        <g id="Grupo_592" data-name="Grupo 592" transform="translate(85.258 12.053)">
          <path id="Trazado_605" data-name="Trazado 605"/>
        </g>
        <g id="Grupo_593" data-name="Grupo 593" transform="translate(90.469 0)">
          <path id="Trazado_606" data-name="Trazado 606" d="M6.486,5.008v-1.1a2.705,2.705,0,0,1-2.425,1.3,3.367,3.367,0,0,1-1.9-.576A3.689,3.689,0,0,1,.809,3.024,5.6,5.6,0,0,1,.336.651a6.269,6.269,0,0,1,.43-2.373,3.439,3.439,0,0,1,1.3-1.628A3.441,3.441,0,0,1,4-3.921a2.943,2.943,0,0,1,1.4.334,2.949,2.949,0,0,1,1,.866V-7.045H7.845V5.008ZM1.843.651a3.761,3.761,0,0,0,.7,2.51A2.1,2.1,0,0,0,4.2,3.988a2.052,2.052,0,0,0,1.631-.795A3.707,3.707,0,0,0,6.508.777,4.227,4.227,0,0,0,5.823-1.86,2.143,2.143,0,0,0,4.137-2.7,2.059,2.059,0,0,0,2.5-1.893,3.936,3.936,0,0,0,1.843.651Zm0,0" transform="translate(-0.336 7.045)"/>
        </g>
        <g id="Grupo_594" data-name="Grupo 594" transform="translate(99.797 3.124)">
          <path id="Trazado_607" data-name="Trazado 607" d="M6.78.9,8.3,1.09A3.73,3.73,0,0,1,6.965,3.167a3.969,3.969,0,0,1-2.474.74A3.932,3.932,0,0,1,1.473,2.729,4.555,4.555,0,0,1,.359-.582,4.8,4.8,0,0,1,1.484-4,3.779,3.779,0,0,1,4.4-5.219,3.691,3.691,0,0,1,7.243-4.024a4.756,4.756,0,0,1,1.1,3.349c0,.093-.005.225-.005.395H1.881a3.29,3.29,0,0,0,.8,2.209A2.392,2.392,0,0,0,4.5,2.69a2.253,2.253,0,0,0,1.381-.428A2.874,2.874,0,0,0,6.78.9ZM1.957-1.5H6.8a3.011,3.011,0,0,0-.555-1.65A2.245,2.245,0,0,0,4.426-4a2.315,2.315,0,0,0-1.7.685A2.7,2.7,0,0,0,1.957-1.5Zm0,0" transform="translate(-0.359 5.219)"/>
        </g>
        <g id="Grupo_595" data-name="Grupo 595" transform="translate(108.478 12.053)">
          <path id="Trazado_608" data-name="Trazado 608"/>
        </g>
        <g id="Grupo_596" data-name="Grupo 596" transform="translate(114.218 3.124)">
          <path id="Trazado_609" data-name="Trazado 609" d="M.647,7.053V-5.021H1.985v1.135a3.34,3.34,0,0,1,1.071-1A2.906,2.906,0,0,1,4.5-5.219a3.428,3.428,0,0,1,1.957.575A3.6,3.6,0,0,1,7.737-3.015a6.1,6.1,0,0,1,.435,2.3,6,6,0,0,1-.478,2.412A3.567,3.567,0,0,1,6.307,3.337a3.526,3.526,0,0,1-1.914.57,2.732,2.732,0,0,1-1.316-.312,2.992,2.992,0,0,1-.962-.789V7.053ZM1.979-.609a3.819,3.819,0,0,0,.674,2.494A2.075,2.075,0,0,0,4.3,2.69,2.108,2.108,0,0,0,5.97,1.857a4.008,4.008,0,0,0,.7-2.587,3.95,3.95,0,0,0-.685-2.5,2.065,2.065,0,0,0-1.626-.833A2.133,2.133,0,0,0,2.7-3.174,4,4,0,0,0,1.979-.609Zm0,0" transform="translate(-0.647 5.219)"/>
        </g>
        <g id="Grupo_597" data-name="Grupo 597" transform="translate(123.013 3.124)">
          <path id="Trazado_610" data-name="Trazado 610" d="M6.505,2.636a5.5,5.5,0,0,1-1.571.987,4.556,4.556,0,0,1-1.615.285,3.118,3.118,0,0,1-2.2-.7,2.312,2.312,0,0,1-.767-1.8A2.351,2.351,0,0,1,.644.24a2.449,2.449,0,0,1,.761-.855A3.659,3.659,0,0,1,2.46-1.1c.288-.066.723-.143,1.3-.219a13.447,13.447,0,0,0,2.621-.51c0-.2.005-.323.005-.389a1.659,1.659,0,0,0-.419-1.272A2.464,2.464,0,0,0,4.3-4a2.634,2.634,0,0,0-1.533.367,2.242,2.242,0,0,0-.723,1.3l-1.435-.2a3.551,3.551,0,0,1,.642-1.5,2.836,2.836,0,0,1,1.294-.877,5.647,5.647,0,0,1,1.968-.312,5.148,5.148,0,0,1,1.8.263,2.411,2.411,0,0,1,1.022.663,2.357,2.357,0,0,1,.457,1.008,10.013,10.013,0,0,1,.071,1.359V.049a19.6,19.6,0,0,0,.092,2.614A3.356,3.356,0,0,0,8.332,3.71H6.8A3.141,3.141,0,0,1,6.505,2.636Zm-.12-3.31a10.39,10.39,0,0,1-2.4.559A6.118,6.118,0,0,0,2.7.18a1.343,1.343,0,0,0-.582.482,1.284,1.284,0,0,0-.2.7,1.254,1.254,0,0,0,.44.987,1.846,1.846,0,0,0,1.3.395,2.915,2.915,0,0,0,1.506-.373,2.279,2.279,0,0,0,.973-1.019,3.687,3.687,0,0,0,.239-1.48Zm0,0" transform="translate(-0.356 5.219)"/>
        </g>
        <g id="Grupo_598" data-name="Grupo 598" transform="translate(132.787 3.124)">
          <path id="Trazado_611" data-name="Trazado 611" d="M.641,3.71V-5.021H1.957V-3.7a3.614,3.614,0,0,1,.935-1.222,1.615,1.615,0,0,1,.946-.3,2.853,2.853,0,0,1,1.506.477l-.506,1.37a2.137,2.137,0,0,0-1.077-.318A1.406,1.406,0,0,0,2.9-3.4a1.537,1.537,0,0,0-.549.811A5.639,5.639,0,0,0,2.109-.861V3.71Zm0,0" transform="translate(-0.641 5.219)"/>
        </g>
        <g id="Grupo_599" data-name="Grupo 599" transform="translate(137.555 0.269)">
          <path id="Trazado_612" data-name="Trazado 612" d="M4.186,3.57,4.4,4.88a5.4,5.4,0,0,1-1.109.132,2.5,2.5,0,0,1-1.24-.252,1.419,1.419,0,0,1-.62-.674A5.3,5.3,0,0,1,1.25,2.342V-2.684H.173V-3.835H1.25V-6l1.457-.888v3.053H4.186v1.151H2.707v5.1a2.375,2.375,0,0,0,.076.817.627.627,0,0,0,.256.29.969.969,0,0,0,.506.1A4.183,4.183,0,0,0,4.186,3.57Zm0,0" transform="translate(-0.173 6.888)"/>
        </g>
        <g id="Grupo_600" data-name="Grupo 600" transform="translate(143.012 0)">
          <path id="Trazado_613" data-name="Trazado 613" d="M.654-5.34v-1.7H2.122v1.7Zm0,10.348V-3.723H2.122V5.008Zm0,0" transform="translate(-0.654 7.045)"/>
        </g>
        <g id="Grupo_601" data-name="Grupo 601" transform="translate(146.184 0)">
          <path id="Trazado_614" data-name="Trazado 614" d="M6.486,5.008v-1.1a2.705,2.705,0,0,1-2.425,1.3,3.367,3.367,0,0,1-1.9-.576A3.689,3.689,0,0,1,.809,3.024,5.6,5.6,0,0,1,.336.651a6.269,6.269,0,0,1,.43-2.373,3.439,3.439,0,0,1,1.3-1.628A3.441,3.441,0,0,1,4-3.921a2.943,2.943,0,0,1,1.4.334,2.949,2.949,0,0,1,1,.866V-7.045H7.845V5.008ZM1.843.651a3.761,3.761,0,0,0,.7,2.51A2.1,2.1,0,0,0,4.2,3.988a2.052,2.052,0,0,0,1.631-.795A3.707,3.707,0,0,0,6.508.777,4.227,4.227,0,0,0,5.823-1.86,2.143,2.143,0,0,0,4.137-2.7,2.059,2.059,0,0,0,2.5-1.893,3.936,3.936,0,0,0,1.843.651Zm0,0" transform="translate(-0.336 7.045)"/>
        </g>
        <g id="Grupo_602" data-name="Grupo 602" transform="translate(155.458 3.124)">
          <path id="Trazado_615" data-name="Trazado 615" d="M.327-.653a4.526,4.526,0,0,1,1.338-3.6,4.011,4.011,0,0,1,2.724-.97,3.863,3.863,0,0,1,2.92,1.184A4.559,4.559,0,0,1,8.439-.779a6,6,0,0,1-.5,2.653,3.579,3.579,0,0,1-1.457,1.5,4.234,4.234,0,0,1-2.093.532A3.858,3.858,0,0,1,1.447,2.734,4.707,4.707,0,0,1,.327-.653Zm1.512,0a3.683,3.683,0,0,0,.723,2.51,2.294,2.294,0,0,0,1.827.833A2.3,2.3,0,0,0,6.2,1.852a3.826,3.826,0,0,0,.729-2.56A3.616,3.616,0,0,0,6.2-3.158,2.348,2.348,0,0,0,4.388-4a2.328,2.328,0,0,0-1.827.833A3.721,3.721,0,0,0,1.838-.653Zm0,0" transform="translate(-0.327 5.219)"/>
        </g>
        <g id="Grupo_603" data-name="Grupo 603" transform="translate(164.703 3.124)">
          <path id="Trazado_616" data-name="Trazado 616" d="M.3,1.1,1.758.871a2.016,2.016,0,0,0,.68,1.354A2.351,2.351,0,0,0,4,2.69a2.266,2.266,0,0,0,1.5-.417A1.236,1.236,0,0,0,5.989,1.3.916.916,0,0,0,5.554.509a6.657,6.657,0,0,0-1.5-.5A13.153,13.153,0,0,1,1.818-.7,2.106,2.106,0,0,1,.872-1.53,2.139,2.139,0,0,1,.551-2.7a2.2,2.2,0,0,1,.261-1.08,2.4,2.4,0,0,1,.723-.828,3.2,3.2,0,0,1,.935-.428,4.293,4.293,0,0,1,1.267-.181,4.98,4.98,0,0,1,1.789.3,2.431,2.431,0,0,1,1.136.806,3.244,3.244,0,0,1,.511,1.348l-1.435.2a1.625,1.625,0,0,0-.571-1.052A2.065,2.065,0,0,0,3.846-4a2.382,2.382,0,0,0-1.446.34.956.956,0,0,0-.435.784.74.74,0,0,0,.185.521,1.194,1.194,0,0,0,.56.395c.147.055.576.181,1.3.378A18.936,18.936,0,0,1,6.179-.9a2.316,2.316,0,0,1,.968.778A2.223,2.223,0,0,1,7.5,1.145a2.587,2.587,0,0,1-.43,1.4,2.723,2.723,0,0,1-1.24,1.008,4.414,4.414,0,0,1-1.822.356A4.043,4.043,0,0,1,1.432,3.2,3.277,3.277,0,0,1,.3,1.1Zm0,0" transform="translate(-0.301 5.219)"/>
        </g>
        <g id="Grupo_604" data-name="Grupo 604" transform="translate(172.544 12.053)">
          <path id="Trazado_617" data-name="Trazado 617"/>
        </g>
        <g id="Grupo_605" data-name="Grupo 605" transform="translate(177.723 3.124)">
          <path id="Trazado_618" data-name="Trazado 618" d="M.611,4.433l1.43.214a1.375,1.375,0,0,0,.495.97,2.428,2.428,0,0,0,1.5.411A2.608,2.608,0,0,0,5.6,5.617a2.024,2.024,0,0,0,.75-1.151,9.568,9.568,0,0,0,.1-1.9A3,3,0,0,1,4.064,3.71,3.258,3.258,0,0,1,1.3,2.411,5.026,5.026,0,0,1,.317-.708a5.847,5.847,0,0,1,.446-2.3,3.621,3.621,0,0,1,1.3-1.633,3.482,3.482,0,0,1,2-.575A3.1,3.1,0,0,1,6.6-3.969V-5.021H7.951V2.526a7.256,7.256,0,0,1-.413,2.888,3.124,3.124,0,0,1-1.3,1.343,4.62,4.62,0,0,1-2.2.493,4.224,4.224,0,0,1-2.507-.7A2.384,2.384,0,0,1,.611,4.433ZM1.823-.812a3.73,3.73,0,0,0,.68,2.5,2.11,2.11,0,0,0,1.7.789A2.136,2.136,0,0,0,5.9,1.7,3.676,3.676,0,0,0,6.581-.763,3.635,3.635,0,0,0,5.874-3.18,2.2,2.2,0,0,0,4.172-4a2.126,2.126,0,0,0-1.664.806A3.522,3.522,0,0,0,1.823-.812Zm0,0" transform="translate(-0.317 5.219)"/>
        </g>
        <g id="Grupo_606" data-name="Grupo 606" transform="translate(187.078 3.124)">
          <path id="Trazado_619" data-name="Trazado 619" d="M6.505,2.636a5.5,5.5,0,0,1-1.571.987,4.556,4.556,0,0,1-1.615.285,3.118,3.118,0,0,1-2.2-.7,2.312,2.312,0,0,1-.767-1.8A2.351,2.351,0,0,1,.644.24a2.449,2.449,0,0,1,.761-.855A3.659,3.659,0,0,1,2.46-1.1c.288-.066.723-.143,1.3-.219a13.447,13.447,0,0,0,2.621-.51c0-.2.005-.323.005-.389a1.659,1.659,0,0,0-.419-1.272A2.464,2.464,0,0,0,4.3-4a2.634,2.634,0,0,0-1.533.367,2.242,2.242,0,0,0-.723,1.3l-1.435-.2a3.551,3.551,0,0,1,.642-1.5,2.836,2.836,0,0,1,1.294-.877,5.647,5.647,0,0,1,1.968-.312,5.148,5.148,0,0,1,1.8.263,2.411,2.411,0,0,1,1.022.663,2.357,2.357,0,0,1,.457,1.008,10.013,10.013,0,0,1,.071,1.359V.049a19.6,19.6,0,0,0,.092,2.614A3.356,3.356,0,0,0,8.332,3.71H6.8A3.141,3.141,0,0,1,6.505,2.636Zm-.12-3.31a10.39,10.39,0,0,1-2.4.559A6.118,6.118,0,0,0,2.7.18a1.343,1.343,0,0,0-.582.482,1.284,1.284,0,0,0-.2.7,1.254,1.254,0,0,0,.44.987,1.846,1.846,0,0,0,1.3.395,2.915,2.915,0,0,0,1.506-.373,2.279,2.279,0,0,0,.973-1.019,3.687,3.687,0,0,0,.239-1.48Zm0,0" transform="translate(-0.356 5.219)"/>
        </g>
        <g id="Grupo_607" data-name="Grupo 607" transform="translate(196.863 3.124)">
          <path id="Trazado_620" data-name="Trazado 620" d="M.647,3.71V-5.021H1.974v1.244A3.094,3.094,0,0,1,4.725-5.219a3.7,3.7,0,0,1,1.441.285,2.346,2.346,0,0,1,.984.74,2.918,2.918,0,0,1,.457,1.1,8.545,8.545,0,0,1,.082,1.436V3.71H6.22V-1.6a4.024,4.024,0,0,0-.174-1.354,1.441,1.441,0,0,0-.6-.713,1.962,1.962,0,0,0-1.022-.269,2.382,2.382,0,0,0-1.626.6,2.937,2.937,0,0,0-.68,2.275V3.71Zm0,0" transform="translate(-0.647 5.219)"/>
        </g>
        <g id="Grupo_608" data-name="Grupo 608" transform="translate(205.658 3.124)">
          <path id="Trazado_621" data-name="Trazado 621" d="M6.505,2.636a5.5,5.5,0,0,1-1.571.987,4.556,4.556,0,0,1-1.615.285,3.118,3.118,0,0,1-2.2-.7,2.312,2.312,0,0,1-.767-1.8A2.351,2.351,0,0,1,.644.24a2.449,2.449,0,0,1,.761-.855A3.659,3.659,0,0,1,2.46-1.1c.288-.066.723-.143,1.3-.219a13.447,13.447,0,0,0,2.621-.51c0-.2.005-.323.005-.389a1.659,1.659,0,0,0-.419-1.272A2.464,2.464,0,0,0,4.3-4a2.634,2.634,0,0,0-1.533.367,2.242,2.242,0,0,0-.723,1.3l-1.435-.2a3.551,3.551,0,0,1,.642-1.5,2.836,2.836,0,0,1,1.294-.877,5.647,5.647,0,0,1,1.968-.312,5.148,5.148,0,0,1,1.8.263,2.411,2.411,0,0,1,1.022.663,2.357,2.357,0,0,1,.457,1.008,10.013,10.013,0,0,1,.071,1.359V.049a19.6,19.6,0,0,0,.092,2.614A3.356,3.356,0,0,0,8.332,3.71H6.8A3.141,3.141,0,0,1,6.505,2.636Zm-.12-3.31a10.39,10.39,0,0,1-2.4.559A6.118,6.118,0,0,0,2.7.18a1.343,1.343,0,0,0-.582.482,1.284,1.284,0,0,0-.2.7,1.254,1.254,0,0,0,.44.987,1.846,1.846,0,0,0,1.3.395,2.915,2.915,0,0,0,1.506-.373,2.279,2.279,0,0,0,.973-1.019,3.687,3.687,0,0,0,.239-1.48Zm0,0" transform="translate(-0.356 5.219)"/>
        </g>
        <g id="Grupo_609" data-name="Grupo 609" transform="translate(214.915 0)">
          <path id="Trazado_622" data-name="Trazado 622" d="M6.486,5.008v-1.1a2.705,2.705,0,0,1-2.425,1.3,3.367,3.367,0,0,1-1.9-.576A3.689,3.689,0,0,1,.809,3.024,5.6,5.6,0,0,1,.336.651a6.269,6.269,0,0,1,.43-2.373,3.439,3.439,0,0,1,1.3-1.628A3.441,3.441,0,0,1,4-3.921a2.943,2.943,0,0,1,1.4.334,2.949,2.949,0,0,1,1,.866V-7.045H7.845V5.008ZM1.843.651a3.761,3.761,0,0,0,.7,2.51A2.1,2.1,0,0,0,4.2,3.988a2.052,2.052,0,0,0,1.631-.795A3.707,3.707,0,0,0,6.508.777,4.227,4.227,0,0,0,5.823-1.86,2.143,2.143,0,0,0,4.137-2.7,2.059,2.059,0,0,0,2.5-1.893,3.936,3.936,0,0,0,1.843.651Zm0,0" transform="translate(-0.336 7.045)"/>
        </g>
        <g id="Grupo_610" data-name="Grupo 610" transform="translate(224.189 3.124)">
          <path id="Trazado_623" data-name="Trazado 623" d="M.327-.653a4.526,4.526,0,0,1,1.338-3.6,4.011,4.011,0,0,1,2.724-.97,3.863,3.863,0,0,1,2.92,1.184A4.559,4.559,0,0,1,8.439-.779a6,6,0,0,1-.5,2.653,3.579,3.579,0,0,1-1.457,1.5,4.234,4.234,0,0,1-2.093.532A3.858,3.858,0,0,1,1.447,2.734,4.707,4.707,0,0,1,.327-.653Zm1.512,0a3.683,3.683,0,0,0,.723,2.51,2.294,2.294,0,0,0,1.827.833A2.3,2.3,0,0,0,6.2,1.852a3.826,3.826,0,0,0,.729-2.56A3.616,3.616,0,0,0,6.2-3.158,2.348,2.348,0,0,0,4.388-4a2.328,2.328,0,0,0-1.827.833A3.721,3.721,0,0,0,1.838-.653Zm0,0" transform="translate(-0.327 5.219)"/>
        </g>
        <g id="Grupo_611" data-name="Grupo 611" transform="translate(233.434 3.124)">
          <path id="Trazado_624" data-name="Trazado 624" d="M.3,1.1,1.758.871a2.016,2.016,0,0,0,.68,1.354A2.351,2.351,0,0,0,4,2.69a2.266,2.266,0,0,0,1.5-.417A1.236,1.236,0,0,0,5.989,1.3.916.916,0,0,0,5.554.509a6.657,6.657,0,0,0-1.5-.5A13.153,13.153,0,0,1,1.818-.7,2.106,2.106,0,0,1,.872-1.53,2.139,2.139,0,0,1,.551-2.7a2.2,2.2,0,0,1,.261-1.08,2.4,2.4,0,0,1,.723-.828,3.2,3.2,0,0,1,.935-.428,4.293,4.293,0,0,1,1.267-.181,4.98,4.98,0,0,1,1.789.3,2.431,2.431,0,0,1,1.136.806,3.244,3.244,0,0,1,.511,1.348l-1.435.2a1.625,1.625,0,0,0-.571-1.052A2.065,2.065,0,0,0,3.846-4a2.382,2.382,0,0,0-1.446.34.956.956,0,0,0-.435.784.74.74,0,0,0,.185.521,1.194,1.194,0,0,0,.56.395c.147.055.576.181,1.3.378A18.936,18.936,0,0,1,6.179-.9a2.316,2.316,0,0,1,.968.778A2.223,2.223,0,0,1,7.5,1.145a2.587,2.587,0,0,1-.43,1.4,2.723,2.723,0,0,1-1.24,1.008,4.414,4.414,0,0,1-1.822.356A4.043,4.043,0,0,1,1.432,3.2,3.277,3.277,0,0,1,.3,1.1Zm0,0" transform="translate(-0.301 5.219)"/>
        </g>
        <g id="Grupo_612" data-name="Grupo 612" transform="translate(241.275 12.053)">
          <path id="Trazado_625" data-name="Trazado 625"/>
        </g>
        <g id="Grupo_613" data-name="Grupo 613" transform="translate(246.187 3.321)">
          <path id="Trazado_626" data-name="Trazado 626" d="M.921,6.993.758,5.6a3.266,3.266,0,0,0,.843.132,1.6,1.6,0,0,0,.783-.164,1.391,1.391,0,0,0,.484-.46,8.082,8.082,0,0,0,.446-1.1q.041-.132.13-.362L.16-5.1H1.737L3.542-.044c.228.641.435,1.315.631,2.017a18.949,18.949,0,0,1,.6-1.984L6.625-5.1H8.093L4.8,3.776a18.646,18.646,0,0,1-.821,1.979,3.054,3.054,0,0,1-.9,1.074,2.248,2.248,0,0,1-1.213.34A3.344,3.344,0,0,1,.921,6.993Zm0,0" transform="translate(-0.16 5.103)"/>
        </g>
        <g id="Grupo_614" data-name="Grupo 614" transform="translate(254.267 12.053)">
          <path id="Trazado_627" data-name="Trazado 627"/>
        </g>
        <g id="Grupo_615" data-name="Grupo 615" transform="translate(260.006 3.124)">
          <path id="Trazado_628" data-name="Trazado 628" d="M.647,7.053V-5.021H1.985v1.135a3.34,3.34,0,0,1,1.071-1A2.906,2.906,0,0,1,4.5-5.219a3.428,3.428,0,0,1,1.957.575A3.6,3.6,0,0,1,7.737-3.015a6.1,6.1,0,0,1,.435,2.3,6,6,0,0,1-.478,2.412A3.567,3.567,0,0,1,6.307,3.337a3.526,3.526,0,0,1-1.914.57,2.732,2.732,0,0,1-1.316-.312,2.992,2.992,0,0,1-.962-.789V7.053ZM1.979-.609a3.819,3.819,0,0,0,.674,2.494A2.075,2.075,0,0,0,4.3,2.69,2.108,2.108,0,0,0,5.97,1.857a4.008,4.008,0,0,0,.7-2.587,3.95,3.95,0,0,0-.685-2.5,2.065,2.065,0,0,0-1.626-.833A2.133,2.133,0,0,0,2.7-3.174,4,4,0,0,0,1.979-.609Zm0,0" transform="translate(-0.647 5.219)"/>
        </g>
        <g id="Grupo_616" data-name="Grupo 616" transform="translate(268.807 3.124)">
          <path id="Trazado_629" data-name="Trazado 629" d="M6.78.9,8.3,1.09A3.73,3.73,0,0,1,6.965,3.167a3.969,3.969,0,0,1-2.474.74A3.932,3.932,0,0,1,1.473,2.729,4.555,4.555,0,0,1,.359-.582,4.8,4.8,0,0,1,1.484-4,3.779,3.779,0,0,1,4.4-5.219,3.691,3.691,0,0,1,7.243-4.024a4.756,4.756,0,0,1,1.1,3.349c0,.093-.005.225-.005.395H1.881a3.29,3.29,0,0,0,.8,2.209A2.392,2.392,0,0,0,4.5,2.69a2.253,2.253,0,0,0,1.381-.428A2.874,2.874,0,0,0,6.78.9ZM1.957-1.5H6.8a3.011,3.011,0,0,0-.555-1.65A2.245,2.245,0,0,0,4.426-4a2.315,2.315,0,0,0-1.7.685A2.7,2.7,0,0,0,1.957-1.5Zm0,0" transform="translate(-0.359 5.219)"/>
        </g>
        <g id="Grupo_617" data-name="Grupo 617" transform="translate(278.575 3.124)">
          <path id="Trazado_630" data-name="Trazado 630" d="M.641,3.71V-5.021H1.957V-3.7a3.614,3.614,0,0,1,.935-1.222,1.615,1.615,0,0,1,.946-.3,2.853,2.853,0,0,1,1.506.477l-.506,1.37a2.137,2.137,0,0,0-1.077-.318A1.406,1.406,0,0,0,2.9-3.4a1.537,1.537,0,0,0-.549.811A5.639,5.639,0,0,0,2.109-.861V3.71Zm0,0" transform="translate(-0.641 5.219)"/>
        </g>
        <g id="Grupo_618" data-name="Grupo 618" transform="translate(283.621 0)">
          <path id="Trazado_631" data-name="Trazado 631" d="M6.486,5.008v-1.1a2.705,2.705,0,0,1-2.425,1.3,3.367,3.367,0,0,1-1.9-.576A3.689,3.689,0,0,1,.809,3.024,5.6,5.6,0,0,1,.336.651a6.269,6.269,0,0,1,.43-2.373,3.439,3.439,0,0,1,1.3-1.628A3.441,3.441,0,0,1,4-3.921a2.943,2.943,0,0,1,1.4.334,2.949,2.949,0,0,1,1,.866V-7.045H7.845V5.008ZM1.843.651a3.761,3.761,0,0,0,.7,2.51A2.1,2.1,0,0,0,4.2,3.988a2.052,2.052,0,0,0,1.631-.795A3.707,3.707,0,0,0,6.508.777,4.227,4.227,0,0,0,5.823-1.86,2.143,2.143,0,0,0,4.137-2.7,2.059,2.059,0,0,0,2.5-1.893,3.936,3.936,0,0,0,1.843.651Zm0,0" transform="translate(-0.336 7.045)"/>
        </g>
        <g id="Grupo_619" data-name="Grupo 619" transform="translate(293.449 0)">
          <path id="Trazado_632" data-name="Trazado 632" d="M.654-5.34v-1.7H2.122v1.7Zm0,10.348V-3.723H2.122V5.008Zm0,0" transform="translate(-0.654 7.045)"/>
        </g>
        <g id="Grupo_620" data-name="Grupo 620" transform="translate(296.622 0)">
          <path id="Trazado_633" data-name="Trazado 633" d="M6.486,5.008v-1.1a2.705,2.705,0,0,1-2.425,1.3,3.367,3.367,0,0,1-1.9-.576A3.689,3.689,0,0,1,.809,3.024,5.6,5.6,0,0,1,.336.651a6.269,6.269,0,0,1,.43-2.373,3.439,3.439,0,0,1,1.3-1.628A3.441,3.441,0,0,1,4-3.921a2.943,2.943,0,0,1,1.4.334,2.949,2.949,0,0,1,1,.866V-7.045H7.845V5.008ZM1.843.651a3.761,3.761,0,0,0,.7,2.51A2.1,2.1,0,0,0,4.2,3.988a2.052,2.052,0,0,0,1.631-.795A3.707,3.707,0,0,0,6.508.777,4.227,4.227,0,0,0,5.823-1.86,2.143,2.143,0,0,0,4.137-2.7,2.059,2.059,0,0,0,2.5-1.893,3.936,3.936,0,0,0,1.843.651Zm0,0" transform="translate(-0.336 7.045)"/>
        </g>
        <g id="Grupo_621" data-name="Grupo 621" transform="translate(305.896 3.124)">
          <path id="Trazado_634" data-name="Trazado 634" d="M.327-.653a4.526,4.526,0,0,1,1.338-3.6,4.011,4.011,0,0,1,2.724-.97,3.863,3.863,0,0,1,2.92,1.184A4.559,4.559,0,0,1,8.439-.779a6,6,0,0,1-.5,2.653,3.579,3.579,0,0,1-1.457,1.5,4.234,4.234,0,0,1-2.093.532A3.858,3.858,0,0,1,1.447,2.734,4.707,4.707,0,0,1,.327-.653Zm1.512,0a3.683,3.683,0,0,0,.723,2.51,2.294,2.294,0,0,0,1.827.833A2.3,2.3,0,0,0,6.2,1.852a3.826,3.826,0,0,0,.729-2.56A3.616,3.616,0,0,0,6.2-3.158,2.348,2.348,0,0,0,4.388-4a2.328,2.328,0,0,0-1.827.833A3.721,3.721,0,0,0,1.838-.653Zm0,0" transform="translate(-0.327 5.219)"/>
        </g>
        <g id="Grupo_622" data-name="Grupo 622" transform="translate(315.142 3.124)">
          <path id="Trazado_635" data-name="Trazado 635" d="M.3,1.1,1.758.871a2.016,2.016,0,0,0,.68,1.354A2.351,2.351,0,0,0,4,2.69a2.266,2.266,0,0,0,1.5-.417A1.236,1.236,0,0,0,5.989,1.3.916.916,0,0,0,5.554.509a6.657,6.657,0,0,0-1.5-.5A13.153,13.153,0,0,1,1.818-.7,2.106,2.106,0,0,1,.872-1.53,2.139,2.139,0,0,1,.551-2.7a2.2,2.2,0,0,1,.261-1.08,2.4,2.4,0,0,1,.723-.828,3.2,3.2,0,0,1,.935-.428,4.293,4.293,0,0,1,1.267-.181,4.98,4.98,0,0,1,1.789.3,2.431,2.431,0,0,1,1.136.806,3.244,3.244,0,0,1,.511,1.348l-1.435.2a1.625,1.625,0,0,0-.571-1.052A2.065,2.065,0,0,0,3.846-4a2.382,2.382,0,0,0-1.446.34.956.956,0,0,0-.435.784.74.74,0,0,0,.185.521,1.194,1.194,0,0,0,.56.395c.147.055.576.181,1.3.378A18.936,18.936,0,0,1,6.179-.9a2.316,2.316,0,0,1,.968.778A2.223,2.223,0,0,1,7.5,1.145a2.587,2.587,0,0,1-.43,1.4,2.723,2.723,0,0,1-1.24,1.008,4.414,4.414,0,0,1-1.822.356A4.043,4.043,0,0,1,1.432,3.2,3.277,3.277,0,0,1,.3,1.1Zm0,0" transform="translate(-0.301 5.219)"/>
        </g>
        <g id="Grupo_623" data-name="Grupo 623" transform="translate(322.983 12.053)">
          <path id="Trazado_636" data-name="Trazado 636"/>
        </g>
      </g>
      <g id="Grupo_636" data-name="Grupo 636" transform="translate(280.557 442.111)">
        <g id="Grupo_625" data-name="Grupo 625" transform="translate(0 12.053)">
          <path id="Trazado_637" data-name="Trazado 637"/>
        </g>
        <g id="Grupo_626" data-name="Grupo 626" transform="translate(5.293 3.124)">
          <path id="Trazado_638" data-name="Trazado 638" d="M6.485.509,7.931.7A3.793,3.793,0,0,1,6.719,3.058a3.512,3.512,0,0,1-2.4.85A3.683,3.683,0,0,1,1.466,2.734,4.75,4.75,0,0,1,.384-.62,6.171,6.171,0,0,1,.847-3.1,3.278,3.278,0,0,1,2.26-4.687a4.2,4.2,0,0,1,2.072-.532A3.579,3.579,0,0,1,6.643-4.5,3.34,3.34,0,0,1,7.79-2.456l-1.425.225a2.455,2.455,0,0,0-.723-1.326A1.874,1.874,0,0,0,4.386-4a2.245,2.245,0,0,0-1.8.806A3.8,3.8,0,0,0,1.9-.664,3.9,3.9,0,0,0,2.565,1.9,2.152,2.152,0,0,0,4.31,2.69a2.067,2.067,0,0,0,1.441-.532A2.663,2.663,0,0,0,6.485.509Zm0,0" transform="translate(-0.384 5.219)"/>
        </g>
        <g id="Grupo_627" data-name="Grupo 627" transform="translate(13.547 3.124)">
          <path id="Trazado_639" data-name="Trazado 639" d="M.327-.653a4.526,4.526,0,0,1,1.338-3.6,4.011,4.011,0,0,1,2.724-.97,3.863,3.863,0,0,1,2.92,1.184A4.559,4.559,0,0,1,8.439-.779a6,6,0,0,1-.5,2.653,3.579,3.579,0,0,1-1.457,1.5,4.234,4.234,0,0,1-2.093.532A3.858,3.858,0,0,1,1.447,2.734,4.707,4.707,0,0,1,.327-.653Zm1.512,0a3.683,3.683,0,0,0,.723,2.51,2.294,2.294,0,0,0,1.827.833A2.3,2.3,0,0,0,6.2,1.852a3.826,3.826,0,0,0,.729-2.56A3.616,3.616,0,0,0,6.2-3.158,2.348,2.348,0,0,0,4.388-4a2.328,2.328,0,0,0-1.827.833A3.721,3.721,0,0,0,1.838-.653Zm0,0" transform="translate(-0.327 5.219)"/>
        </g>
        <g id="Grupo_628" data-name="Grupo 628" transform="translate(23.381 3.124)">
          <path id="Trazado_640" data-name="Trazado 640" d="M.647,3.71V-5.021H1.963V-3.8A3.2,3.2,0,0,1,3.045-4.824a3.014,3.014,0,0,1,1.544-.395,2.834,2.834,0,0,1,1.577.406,2.219,2.219,0,0,1,.87,1.124A3.1,3.1,0,0,1,9.711-5.219,2.61,2.61,0,0,1,11.69-4.5a3.1,3.1,0,0,1,.7,2.209v6H10.924v-5.5a4.584,4.584,0,0,0-.141-1.277,1.249,1.249,0,0,0-.517-.625,1.608,1.608,0,0,0-.881-.241,2.053,2.053,0,0,0-1.517.614,2.714,2.714,0,0,0-.6,1.957V3.71H5.8V-1.963a2.511,2.511,0,0,0-.359-1.48,1.354,1.354,0,0,0-1.174-.493,2.119,2.119,0,0,0-1.147.329,1.854,1.854,0,0,0-.761.965A5.176,5.176,0,0,0,2.115-.817V3.71Zm0,0" transform="translate(-0.647 5.219)"/>
        </g>
        <g id="Grupo_629" data-name="Grupo 629" transform="translate(36.751 3.124)">
          <path id="Trazado_641" data-name="Trazado 641" d="M.327-.653a4.526,4.526,0,0,1,1.338-3.6,4.011,4.011,0,0,1,2.724-.97,3.863,3.863,0,0,1,2.92,1.184A4.559,4.559,0,0,1,8.439-.779a6,6,0,0,1-.5,2.653,3.579,3.579,0,0,1-1.457,1.5,4.234,4.234,0,0,1-2.093.532A3.858,3.858,0,0,1,1.447,2.734,4.707,4.707,0,0,1,.327-.653Zm1.512,0a3.683,3.683,0,0,0,.723,2.51,2.294,2.294,0,0,0,1.827.833A2.3,2.3,0,0,0,6.2,1.852a3.826,3.826,0,0,0,.729-2.56A3.616,3.616,0,0,0,6.2-3.158,2.348,2.348,0,0,0,4.388-4a2.328,2.328,0,0,0-1.827.833A3.721,3.721,0,0,0,1.838-.653Zm0,0" transform="translate(-0.327 5.219)"/>
        </g>
        <g id="Grupo_630" data-name="Grupo 630" transform="translate(45.485 12.053)">
          <path id="Trazado_642" data-name="Trazado 642"/>
        </g>
        <g id="Grupo_631" data-name="Grupo 631" transform="translate(51.192 0)">
          <path id="Trazado_643" data-name="Trazado 643" d="M.628,5.008V-7.045H2.1V5.008Zm0,0" transform="translate(-0.628 7.045)"/>
        </g>
        <g id="Grupo_632" data-name="Grupo 632" transform="translate(54.392 3.124)">
          <path id="Trazado_644" data-name="Trazado 644" d="M.327-.653a4.526,4.526,0,0,1,1.338-3.6,4.011,4.011,0,0,1,2.724-.97,3.863,3.863,0,0,1,2.92,1.184A4.559,4.559,0,0,1,8.439-.779a6,6,0,0,1-.5,2.653,3.579,3.579,0,0,1-1.457,1.5,4.234,4.234,0,0,1-2.093.532A3.858,3.858,0,0,1,1.447,2.734,4.707,4.707,0,0,1,.327-.653Zm1.512,0a3.683,3.683,0,0,0,.723,2.51,2.294,2.294,0,0,0,1.827.833A2.3,2.3,0,0,0,6.2,1.852a3.826,3.826,0,0,0,.729-2.56A3.616,3.616,0,0,0,6.2-3.158,2.348,2.348,0,0,0,4.388-4a2.328,2.328,0,0,0-1.827.833A3.721,3.721,0,0,0,1.838-.653Zm0,0" transform="translate(-0.327 5.219)"/>
        </g>
        <g id="Grupo_633" data-name="Grupo 633" transform="translate(63.779 3.124)">
          <path id="Trazado_645" data-name="Trazado 645" d="M6.485.509,7.931.7A3.793,3.793,0,0,1,6.719,3.058a3.512,3.512,0,0,1-2.4.85A3.683,3.683,0,0,1,1.466,2.734,4.75,4.75,0,0,1,.384-.62,6.171,6.171,0,0,1,.847-3.1,3.278,3.278,0,0,1,2.26-4.687a4.2,4.2,0,0,1,2.072-.532A3.579,3.579,0,0,1,6.643-4.5,3.34,3.34,0,0,1,7.79-2.456l-1.425.225a2.455,2.455,0,0,0-.723-1.326A1.874,1.874,0,0,0,4.386-4a2.245,2.245,0,0,0-1.8.806A3.8,3.8,0,0,0,1.9-.664,3.9,3.9,0,0,0,2.565,1.9,2.152,2.152,0,0,0,4.31,2.69a2.067,2.067,0,0,0,1.441-.532A2.663,2.663,0,0,0,6.485.509Zm0,0" transform="translate(-0.384 5.219)"/>
        </g>
        <g id="Grupo_634" data-name="Grupo 634" transform="translate(72.082 3.124)">
          <path id="Trazado_646" data-name="Trazado 646" d="M6.505,2.636a5.5,5.5,0,0,1-1.571.987,4.556,4.556,0,0,1-1.615.285,3.118,3.118,0,0,1-2.2-.7,2.312,2.312,0,0,1-.767-1.8A2.351,2.351,0,0,1,.644.24a2.449,2.449,0,0,1,.761-.855A3.659,3.659,0,0,1,2.46-1.1c.288-.066.723-.143,1.3-.219a13.447,13.447,0,0,0,2.621-.51c0-.2.005-.323.005-.389a1.659,1.659,0,0,0-.419-1.272A2.464,2.464,0,0,0,4.3-4a2.634,2.634,0,0,0-1.533.367,2.242,2.242,0,0,0-.723,1.3l-1.435-.2a3.551,3.551,0,0,1,.642-1.5,2.836,2.836,0,0,1,1.294-.877,5.647,5.647,0,0,1,1.968-.312,5.148,5.148,0,0,1,1.8.263,2.411,2.411,0,0,1,1.022.663,2.357,2.357,0,0,1,.457,1.008,10.013,10.013,0,0,1,.071,1.359V.049a19.6,19.6,0,0,0,.092,2.614A3.356,3.356,0,0,0,8.332,3.71H6.8A3.141,3.141,0,0,1,6.505,2.636Zm-.12-3.31a10.39,10.39,0,0,1-2.4.559A6.118,6.118,0,0,0,2.7.18a1.343,1.343,0,0,0-.582.482,1.284,1.284,0,0,0-.2.7,1.254,1.254,0,0,0,.44.987,1.846,1.846,0,0,0,1.3.395,2.915,2.915,0,0,0,1.506-.373,2.279,2.279,0,0,0,.973-1.019,3.687,3.687,0,0,0,.239-1.48Zm0,0" transform="translate(-0.356 5.219)"/>
        </g>
        <g id="Grupo_635" data-name="Grupo 635" transform="translate(81.834 0)">
          <path id="Trazado_647" data-name="Trazado 647" d="M.628,5.008V-7.045H2.1V5.008Zm0,0" transform="translate(-0.628 7.045)"/>
        </g>
      </g>
      <g id="Grupo_637" data-name="Grupo 637" transform="translate(474.66 82.839)" clip-path="url(#clip-path-2)">
        <path id="Trazado_648" data-name="Trazado 648" d="M279.694,48.419H365.24v46.2H279.694Zm0,0" transform="translate(-279.639 -48.419)" fill="#fff"/>
      </g>
      <g id="Grupo_638" data-name="Grupo 638" transform="translate(473.268 82.839)" clip-path="url(#clip-path-3)">
        <path id="Trazado_650" data-name="Trazado 650" d="M279.694,48.419H365.24v46.2H279.694Zm0,0" transform="translate(-278.247 -48.419)" fill="none" stroke="#000" stroke-linecap="round" stroke-linejoin="round" stroke-miterlimit="10" stroke-width="0.615"/>
      </g>
      <path id="Trazado_652" data-name="Trazado 652" d="M286.444,55.169h9.166v7.7h-9.166Zm0,0" transform="translate(199.727 39.218)" fill="red" stroke="#000" stroke-linecap="round" stroke-linejoin="round" stroke-miterlimit="10" stroke-width="0.615"/>
      <path id="Trazado_653" data-name="Trazado 653" d="M286.444,64.171h9.166v7.7h-9.166Zm0,0" transform="translate(199.727 45.618)" fill="#038f8f" stroke="#000" stroke-linecap="round" stroke-linejoin="round" stroke-miterlimit="10" stroke-width="0.615"/>
      <g id="Grupo_647" data-name="Grupo 647" transform="translate(507.675 93.417)">
        <g id="Grupo_639" data-name="Grupo 639" transform="translate(0 2.499)">
          <path id="Trazado_654" data-name="Trazado 654" d="M.519,5.642V-4.015H1.59v.9a2.546,2.546,0,0,1,.854-.795A2.392,2.392,0,0,1,3.6-4.174a2.828,2.828,0,0,1,1.566.46,2.942,2.942,0,0,1,1.022,1.3A4.967,4.967,0,0,1,6.533-.579a4.849,4.849,0,0,1-.381,1.935A2.93,2.93,0,0,1,5.043,2.671a2.93,2.93,0,0,1-1.528.455A2.271,2.271,0,0,1,2.46,2.88a2.26,2.26,0,0,1-.767-.636v3.4ZM1.585-.486a3.009,3.009,0,0,0,.538,2,1.618,1.618,0,0,0,1.31.641,1.692,1.692,0,0,0,1.343-.663,3.233,3.233,0,0,0,.56-2.072,3.184,3.184,0,0,0-.549-2,1.659,1.659,0,0,0-1.3-.663,1.679,1.679,0,0,0-1.327.707A3.113,3.113,0,0,0,1.585-.486Zm0,0" transform="translate(-0.519 4.174)"/>
        </g>
        <g id="Grupo_640" data-name="Grupo 640" transform="translate(7.04 2.499)">
          <path id="Trazado_655" data-name="Trazado 655" d="M5.421.72,6.639.868A2.975,2.975,0,0,1,5.573,2.534a3.237,3.237,0,0,1-1.985.592A3.152,3.152,0,0,1,1.18,2.184,3.673,3.673,0,0,1,.288-.464a3.885,3.885,0,0,1,.9-2.735,3.058,3.058,0,0,1,2.338-.976A3.006,3.006,0,0,1,5.8-3.221,3.873,3.873,0,0,1,6.677-.54c-.005.077-.005.181-.005.318H1.5a2.648,2.648,0,0,0,.647,1.765,1.871,1.871,0,0,0,1.446.608,1.765,1.765,0,0,0,1.1-.34A2.313,2.313,0,0,0,5.421.72ZM1.566-1.2H5.438a2.516,2.516,0,0,0-.446-1.321A1.83,1.83,0,0,0,3.54-3.2a1.888,1.888,0,0,0-1.365.548A2.168,2.168,0,0,0,1.566-1.2Zm0,0" transform="translate(-0.288 4.174)"/>
        </g>
        <g id="Grupo_641" data-name="Grupo 641" transform="translate(14.853 2.499)">
          <path id="Trazado_656" data-name="Trazado 656" d="M.513,2.967V-4.015H1.567v1.058a2.819,2.819,0,0,1,.745-.981,1.356,1.356,0,0,1,.756-.236A2.42,2.42,0,0,1,4.275-3.8l-.4,1.1a1.724,1.724,0,0,0-.865-.258,1.109,1.109,0,0,0-.691.236,1.236,1.236,0,0,0-.435.647,4.327,4.327,0,0,0-.2,1.381V2.967Zm0,0" transform="translate(-0.513 4.174)"/>
        </g>
        <g id="Grupo_642" data-name="Grupo 642" transform="translate(18.889)">
          <path id="Trazado_657" data-name="Trazado 657" d="M5.19,4.006V3.123A2.175,2.175,0,0,1,3.249,4.165,2.734,2.734,0,0,1,1.726,3.7,2.9,2.9,0,0,1,.65,2.422,4.461,4.461,0,0,1,.269.52a5.05,5.05,0,0,1,.343-1.9,2.73,2.73,0,0,1,1.039-1.3A2.841,2.841,0,0,1,3.2-3.136a2.394,2.394,0,0,1,1.115.269,2.319,2.319,0,0,1,.794.691V-5.635H6.277V4.006ZM1.476.52a3.029,3.029,0,0,0,.56,2.006,1.662,1.662,0,0,0,2.632.033A3.008,3.008,0,0,0,5.206.619a3.353,3.353,0,0,0-.549-2.1,1.7,1.7,0,0,0-1.348-.669A1.64,1.64,0,0,0,2-1.508,3.216,3.216,0,0,0,1.476.52Zm0,0" transform="translate(-0.269 5.635)"/>
        </g>
        <g id="Grupo_643" data-name="Grupo 643" transform="translate(26.751)">
          <path id="Trazado_658" data-name="Trazado 658" d="M.522-4.276V-5.635H1.7v1.359Zm0,8.282V-2.977H1.7V4.006Zm0,0" transform="translate(-0.522 5.635)"/>
        </g>
        <g id="Grupo_644" data-name="Grupo 644" transform="translate(29.29)">
          <path id="Trazado_659" data-name="Trazado 659" d="M5.19,4.006V3.123A2.175,2.175,0,0,1,3.249,4.165,2.734,2.734,0,0,1,1.726,3.7,2.9,2.9,0,0,1,.65,2.422,4.461,4.461,0,0,1,.269.52a5.05,5.05,0,0,1,.343-1.9,2.73,2.73,0,0,1,1.039-1.3A2.841,2.841,0,0,1,3.2-3.136a2.394,2.394,0,0,1,1.115.269,2.319,2.319,0,0,1,.794.691V-5.635H6.277V4.006ZM1.476.52a3.029,3.029,0,0,0,.56,2.006,1.662,1.662,0,0,0,2.632.033A3.008,3.008,0,0,0,5.206.619a3.353,3.353,0,0,0-.549-2.1,1.7,1.7,0,0,0-1.348-.669A1.64,1.64,0,0,0,2-1.508,3.216,3.216,0,0,0,1.476.52Zm0,0" transform="translate(-0.269 5.635)"/>
        </g>
        <g id="Grupo_645" data-name="Grupo 645" transform="translate(36.711 2.499)">
          <path id="Trazado_660" data-name="Trazado 660" d="M.263-.524A3.607,3.607,0,0,1,1.328-3.4a3.265,3.265,0,0,1,2.18-.773,3.145,3.145,0,0,1,2.338.943A3.669,3.669,0,0,1,6.755-.623a4.782,4.782,0,0,1-.4,2.121A2.819,2.819,0,0,1,5.184,2.7a3.445,3.445,0,0,1-1.675.428A3.107,3.107,0,0,1,1.16,2.189,3.726,3.726,0,0,1,.263-.524Zm1.207,0a2.937,2.937,0,0,0,.576,2.012,1.823,1.823,0,0,0,1.463.663,1.831,1.831,0,0,0,1.457-.669A3.112,3.112,0,0,0,5.548-.562a2.949,2.949,0,0,0-.587-1.962,1.88,1.88,0,0,0-1.452-.669,1.874,1.874,0,0,0-1.463.663A2.931,2.931,0,0,0,1.47-.524Zm0,0" transform="translate(-0.263 4.174)"/>
        </g>
        <g id="Grupo_646" data-name="Grupo 646" transform="translate(44.11 2.499)">
          <path id="Trazado_661" data-name="Trazado 661" d="M.243.885,1.4.7a1.58,1.58,0,0,0,.544,1.08A1.837,1.837,0,0,0,3.2,2.151a1.782,1.782,0,0,0,1.2-.329,1,1,0,0,0,.391-.784.737.737,0,0,0-.348-.63,5.6,5.6,0,0,0-1.2-.4,10.379,10.379,0,0,1-1.794-.57,1.642,1.642,0,0,1-.756-.663,1.688,1.688,0,0,1-.256-.937,1.7,1.7,0,0,1,.212-.861,1.863,1.863,0,0,1,.576-.663,2.442,2.442,0,0,1,.745-.345,3.928,3.928,0,0,1,1.017-.143,4.229,4.229,0,0,1,1.43.236,2.022,2.022,0,0,1,.913.641,2.677,2.677,0,0,1,.4,1.08l-1.147.159A1.361,1.361,0,0,0,4.131-2.9,1.733,1.733,0,0,0,3.071-3.2a1.955,1.955,0,0,0-1.153.274.781.781,0,0,0-.348.63.564.564,0,0,0,.147.411.916.916,0,0,0,.451.318c.114.044.457.148,1.033.3a17.784,17.784,0,0,1,1.74.548A1.867,1.867,0,0,1,5.713-.1,1.778,1.778,0,0,1,6,.918,1.971,1.971,0,0,1,5.654,2.03a2.189,2.189,0,0,1-.99.811A3.686,3.686,0,0,1,3.2,3.126a3.241,3.241,0,0,1-2.055-.565A2.561,2.561,0,0,1,.243.885Zm0,0" transform="translate(-0.243 4.174)"/>
        </g>
      </g>
      <g id="Grupo_655" data-name="Grupo 655" transform="translate(507.224 108.819)">
        <g id="Grupo_648" data-name="Grupo 648" transform="translate(0 2.499)">
          <path id="Trazado_662" data-name="Trazado 662" d="M.487,3.548l1.142.17a1.073,1.073,0,0,0,.4.773,2,2,0,0,0,1.191.329,2.171,2.171,0,0,0,1.256-.329,1.7,1.7,0,0,0,.6-.921,8.033,8.033,0,0,0,.087-1.518,2.417,2.417,0,0,1-1.919.915A2.6,2.6,0,0,1,1.036,1.931,3.943,3.943,0,0,1,.253-.562,4.512,4.512,0,0,1,.612-2.409a2.885,2.885,0,0,1,1.039-1.3,2.889,2.889,0,0,1,1.6-.46,2.521,2.521,0,0,1,2.023,1v-.839H6.359V2.019a5.9,5.9,0,0,1-.332,2.313A2.5,2.5,0,0,1,4.984,5.406,3.733,3.733,0,0,1,3.227,5.8a3.324,3.324,0,0,1-2-.565A1.885,1.885,0,0,1,.487,3.548ZM1.46-.65A2.984,2.984,0,0,0,2,1.356a1.687,1.687,0,0,0,1.359.63,1.719,1.719,0,0,0,1.359-.625A2.982,2.982,0,0,0,5.266-.612,2.911,2.911,0,0,0,4.7-2.541a1.779,1.779,0,0,0-1.359-.652,1.717,1.717,0,0,0-1.332.641A2.82,2.82,0,0,0,1.46-.65Zm0,0" transform="translate(-0.253 4.174)"/>
        </g>
        <g id="Grupo_649" data-name="Grupo 649" transform="translate(7.486 2.499)">
          <path id="Trazado_663" data-name="Trazado 663" d="M5.206,2.107A4.275,4.275,0,0,1,3.95,2.9a3.792,3.792,0,0,1-1.3.23A2.534,2.534,0,0,1,.894,2.567,1.846,1.846,0,0,1,.285,1.126,1.841,1.841,0,0,1,.514.189a1.976,1.976,0,0,1,.609-.68A2.834,2.834,0,0,1,1.965-.88a9.168,9.168,0,0,1,1.044-.175,9.985,9.985,0,0,0,2.1-.411c0-.153,0-.258.005-.307a1.368,1.368,0,0,0-.332-1.019,2.023,2.023,0,0,0-1.338-.4A2.127,2.127,0,0,0,2.216-2.9a1.811,1.811,0,0,0-.582,1.036L.486-2.026A2.829,2.829,0,0,1,1-3.221a2.292,2.292,0,0,1,1.033-.707,4.863,4.863,0,0,1,1.577-.247,4.351,4.351,0,0,1,1.441.214,1.957,1.957,0,0,1,.816.526,1.893,1.893,0,0,1,.364.806,6.8,6.8,0,0,1,.06,1.091V.041A15.908,15.908,0,0,0,6.37,2.129a2.339,2.339,0,0,0,.294.839H5.44A2.153,2.153,0,0,1,5.206,2.107ZM5.108-.54a8.244,8.244,0,0,1-1.919.449A4.673,4.673,0,0,0,2.161.145.994.994,0,0,0,1.7.534a.935.935,0,0,0-.163.559.98.98,0,0,0,.353.789A1.492,1.492,0,0,0,2.933,2.2,2.326,2.326,0,0,0,4.14,1.9a1.872,1.872,0,0,0,.778-.817A3.062,3.062,0,0,0,5.108-.1Zm0,0" transform="translate(-0.285 4.174)"/>
        </g>
        <g id="Grupo_650" data-name="Grupo 650" transform="translate(15.315 2.499)">
          <path id="Trazado_664" data-name="Trazado 664" d="M.519,2.967V-4.015H1.574v.992A2.508,2.508,0,0,1,3.781-4.174a3.04,3.04,0,0,1,1.147.23,1.916,1.916,0,0,1,.788.592,2.522,2.522,0,0,1,.37.871A8.4,8.4,0,0,1,6.152-1.33v4.3H4.978V-1.28a3.485,3.485,0,0,0-.141-1.08,1.184,1.184,0,0,0-.484-.575,1.555,1.555,0,0,0-.821-.214,1.886,1.886,0,0,0-1.294.482,2.377,2.377,0,0,0-.544,1.82V2.967Zm0,0" transform="translate(-0.519 4.174)"/>
        </g>
        <g id="Grupo_651" data-name="Grupo 651" transform="translate(22.349 2.499)">
          <path id="Trazado_665" data-name="Trazado 665" d="M5.206,2.107A4.275,4.275,0,0,1,3.95,2.9a3.792,3.792,0,0,1-1.3.23A2.534,2.534,0,0,1,.894,2.567,1.846,1.846,0,0,1,.285,1.126,1.841,1.841,0,0,1,.514.189a1.976,1.976,0,0,1,.609-.68A2.834,2.834,0,0,1,1.965-.88a9.168,9.168,0,0,1,1.044-.175,9.985,9.985,0,0,0,2.1-.411c0-.153,0-.258.005-.307a1.368,1.368,0,0,0-.332-1.019,2.023,2.023,0,0,0-1.338-.4A2.127,2.127,0,0,0,2.216-2.9a1.811,1.811,0,0,0-.582,1.036L.486-2.026A2.829,2.829,0,0,1,1-3.221a2.292,2.292,0,0,1,1.033-.707,4.863,4.863,0,0,1,1.577-.247,4.351,4.351,0,0,1,1.441.214,1.957,1.957,0,0,1,.816.526,1.893,1.893,0,0,1,.364.806,6.8,6.8,0,0,1,.06,1.091V.041A15.908,15.908,0,0,0,6.37,2.129a2.339,2.339,0,0,0,.294.839H5.44A2.153,2.153,0,0,1,5.206,2.107ZM5.108-.54a8.244,8.244,0,0,1-1.919.449A4.673,4.673,0,0,0,2.161.145.994.994,0,0,0,1.7.534a.935.935,0,0,0-.163.559.98.98,0,0,0,.353.789A1.492,1.492,0,0,0,2.933,2.2,2.326,2.326,0,0,0,4.14,1.9a1.872,1.872,0,0,0,.778-.817A3.062,3.062,0,0,0,5.108-.1Zm0,0" transform="translate(-0.285 4.174)"/>
        </g>
        <g id="Grupo_652" data-name="Grupo 652" transform="translate(29.754)">
          <path id="Trazado_666" data-name="Trazado 666" d="M5.19,4.006V3.123A2.175,2.175,0,0,1,3.249,4.165,2.734,2.734,0,0,1,1.726,3.7,2.9,2.9,0,0,1,.65,2.422,4.461,4.461,0,0,1,.269.52a5.05,5.05,0,0,1,.343-1.9,2.73,2.73,0,0,1,1.039-1.3A2.841,2.841,0,0,1,3.2-3.136a2.394,2.394,0,0,1,1.115.269,2.319,2.319,0,0,1,.794.691V-5.635H6.277V4.006ZM1.476.52a3.029,3.029,0,0,0,.56,2.006,1.662,1.662,0,0,0,2.632.033A3.008,3.008,0,0,0,5.206.619a3.353,3.353,0,0,0-.549-2.1,1.7,1.7,0,0,0-1.348-.669A1.64,1.64,0,0,0,2-1.508,3.216,3.216,0,0,0,1.476.52Zm0,0" transform="translate(-0.269 5.635)"/>
        </g>
        <g id="Grupo_653" data-name="Grupo 653" transform="translate(37.175 2.499)">
          <path id="Trazado_667" data-name="Trazado 667" d="M.263-.524A3.607,3.607,0,0,1,1.328-3.4a3.265,3.265,0,0,1,2.18-.773,3.145,3.145,0,0,1,2.338.943A3.669,3.669,0,0,1,6.755-.623a4.782,4.782,0,0,1-.4,2.121A2.819,2.819,0,0,1,5.184,2.7a3.445,3.445,0,0,1-1.675.428A3.107,3.107,0,0,1,1.16,2.189,3.726,3.726,0,0,1,.263-.524Zm1.207,0a2.937,2.937,0,0,0,.576,2.012,1.823,1.823,0,0,0,1.463.663,1.831,1.831,0,0,0,1.457-.669A3.112,3.112,0,0,0,5.548-.562a2.949,2.949,0,0,0-.587-1.962,1.88,1.88,0,0,0-1.452-.669,1.874,1.874,0,0,0-1.463.663A2.931,2.931,0,0,0,1.47-.524Zm0,0" transform="translate(-0.263 4.174)"/>
        </g>
        <g id="Grupo_654" data-name="Grupo 654" transform="translate(44.574 2.499)">
          <path id="Trazado_668" data-name="Trazado 668" d="M.243.885,1.4.7a1.58,1.58,0,0,0,.544,1.08A1.837,1.837,0,0,0,3.2,2.151a1.782,1.782,0,0,0,1.2-.329,1,1,0,0,0,.391-.784.737.737,0,0,0-.348-.63,5.6,5.6,0,0,0-1.2-.4,10.379,10.379,0,0,1-1.794-.57,1.642,1.642,0,0,1-.756-.663,1.688,1.688,0,0,1-.256-.937,1.7,1.7,0,0,1,.212-.861,1.863,1.863,0,0,1,.576-.663,2.442,2.442,0,0,1,.745-.345,3.928,3.928,0,0,1,1.017-.143,4.229,4.229,0,0,1,1.43.236,2.022,2.022,0,0,1,.913.641,2.677,2.677,0,0,1,.4,1.08l-1.147.159A1.361,1.361,0,0,0,4.131-2.9,1.733,1.733,0,0,0,3.071-3.2a1.955,1.955,0,0,0-1.153.274.781.781,0,0,0-.348.63.564.564,0,0,0,.147.411.916.916,0,0,0,.451.318c.114.044.457.148,1.033.3a17.784,17.784,0,0,1,1.74.548A1.867,1.867,0,0,1,5.713-.1,1.778,1.778,0,0,1,6,.918,1.971,1.971,0,0,1,5.654,2.03a2.189,2.189,0,0,1-.99.811A3.686,3.686,0,0,1,3.2,3.126a3.241,3.241,0,0,1-2.055-.565A2.561,2.561,0,0,1,.243.885Zm0,0" transform="translate(-0.243 4.174)"/>
        </g>
      </g>
    </g>
  </g>
</svg>
